ISO-10303-21;
HEADER;
/* Generated by software containing ST-Developer
 * from STEP Tools, Inc. (www.steptools.com) 
 */

FILE_DESCRIPTION(
/* description */ (''),
/* implementation_level */ '2;1');

FILE_NAME(
/* name */ 'Support.stp',
/* time_stamp */ '2025-11-20T10:55:36-08:00',
/* author */ ('alexi'),
/* organization */ (''),
/* preprocessor_version */ 'ST-DEVELOPER v20.1',
/* originating_system */ 'Autodesk Inventor 2026',
/* authorisation */ '');

FILE_SCHEMA (('AUTOMOTIVE_DESIGN { 1 0 10303 214 3 1 1 }'));
ENDSEC;

DATA;
#10=MECHANICAL_DESIGN_GEOMETRIC_PRESENTATION_REPRESENTATION('',(#13),#1152);
#11=SHAPE_REPRESENTATION_RELATIONSHIP('SRR','None',#1159,#12);
#12=ADVANCED_BREP_SHAPE_REPRESENTATION('',(#14),#1151);
#13=STYLED_ITEM('',(#1168),#14);
#14=MANIFOLD_SOLID_BREP('\X2\C194B9ACB4DC\X0\1',#707);
#15=FACE_BOUND('',#96,.T.);
#16=FACE_BOUND('',#97,.T.);
#17=FACE_BOUND('',#100,.T.);
#18=FACE_BOUND('',#101,.T.);
#19=FACE_BOUND('',#102,.T.);
#20=FACE_BOUND('',#103,.T.);
#21=FACE_BOUND('',#126,.T.);
#22=FACE_BOUND('',#127,.T.);
#23=FACE_BOUND('',#131,.T.);
#24=FACE_BOUND('',#132,.T.);
#25=FACE_BOUND('',#133,.T.);
#26=FACE_BOUND('',#134,.T.);
#27=PLANE('',#748);
#28=PLANE('',#749);
#29=PLANE('',#750);
#30=PLANE('',#751);
#31=PLANE('',#752);
#32=PLANE('',#753);
#33=PLANE('',#754);
#34=PLANE('',#755);
#35=PLANE('',#756);
#36=PLANE('',#757);
#37=PLANE('',#758);
#38=PLANE('',#759);
#39=PLANE('',#760);
#40=PLANE('',#761);
#41=PLANE('',#762);
#42=PLANE('',#763);
#43=PLANE('',#764);
#44=PLANE('',#765);
#45=PLANE('',#766);
#46=PLANE('',#767);
#47=PLANE('',#768);
#48=PLANE('',#769);
#49=PLANE('',#770);
#50=PLANE('',#771);
#51=PLANE('',#772);
#52=PLANE('',#773);
#53=PLANE('',#774);
#54=PLANE('',#775);
#55=FACE_OUTER_BOUND('',#89,.T.);
#56=FACE_OUTER_BOUND('',#90,.T.);
#57=FACE_OUTER_BOUND('',#91,.T.);
#58=FACE_OUTER_BOUND('',#92,.T.);
#59=FACE_OUTER_BOUND('',#93,.T.);
#60=FACE_OUTER_BOUND('',#94,.T.);
#61=FACE_OUTER_BOUND('',#95,.T.);
#62=FACE_OUTER_BOUND('',#98,.T.);
#63=FACE_OUTER_BOUND('',#99,.T.);
#64=FACE_OUTER_BOUND('',#104,.T.);
#65=FACE_OUTER_BOUND('',#105,.T.);
#66=FACE_OUTER_BOUND('',#106,.T.);
#67=FACE_OUTER_BOUND('',#107,.T.);
#68=FACE_OUTER_BOUND('',#108,.T.);
#69=FACE_OUTER_BOUND('',#109,.T.);
#70=FACE_OUTER_BOUND('',#110,.T.);
#71=FACE_OUTER_BOUND('',#111,.T.);
#72=FACE_OUTER_BOUND('',#112,.T.);
#73=FACE_OUTER_BOUND('',#113,.T.);
#74=FACE_OUTER_BOUND('',#114,.T.);
#75=FACE_OUTER_BOUND('',#115,.T.);
#76=FACE_OUTER_BOUND('',#116,.T.);
#77=FACE_OUTER_BOUND('',#117,.T.);
#78=FACE_OUTER_BOUND('',#118,.T.);
#79=FACE_OUTER_BOUND('',#119,.T.);
#80=FACE_OUTER_BOUND('',#120,.T.);
#81=FACE_OUTER_BOUND('',#121,.T.);
#82=FACE_OUTER_BOUND('',#122,.T.);
#83=FACE_OUTER_BOUND('',#123,.T.);
#84=FACE_OUTER_BOUND('',#124,.T.);
#85=FACE_OUTER_BOUND('',#125,.T.);
#86=FACE_OUTER_BOUND('',#128,.T.);
#87=FACE_OUTER_BOUND('',#129,.T.);
#88=FACE_OUTER_BOUND('',#130,.T.);
#89=EDGE_LOOP('',(#475,#476,#477,#478));
#90=EDGE_LOOP('',(#479,#480,#481,#482));
#91=EDGE_LOOP('',(#483,#484,#485,#486));
#92=EDGE_LOOP('',(#487,#488,#489,#490));
#93=EDGE_LOOP('',(#491,#492,#493,#494));
#94=EDGE_LOOP('',(#495,#496,#497,#498));
#95=EDGE_LOOP('',(#499,#500,#501,#502));
#96=EDGE_LOOP('',(#503));
#97=EDGE_LOOP('',(#504));
#98=EDGE_LOOP('',(#505,#506,#507,#508));
#99=EDGE_LOOP('',(#509,#510,#511,#512,#513,#514,#515,#516,#517,#518,#519,
#520,#521,#522,#523,#524,#525,#526,#527,#528,#529,#530,#531,#532));
#100=EDGE_LOOP('',(#533));
#101=EDGE_LOOP('',(#534));
#102=EDGE_LOOP('',(#535));
#103=EDGE_LOOP('',(#536));
#104=EDGE_LOOP('',(#537,#538,#539,#540));
#105=EDGE_LOOP('',(#541,#542,#543,#544));
#106=EDGE_LOOP('',(#545,#546,#547,#548));
#107=EDGE_LOOP('',(#549,#550,#551,#552));
#108=EDGE_LOOP('',(#553,#554,#555,#556));
#109=EDGE_LOOP('',(#557,#558,#559,#560));
#110=EDGE_LOOP('',(#561,#562,#563,#564));
#111=EDGE_LOOP('',(#565,#566,#567,#568));
#112=EDGE_LOOP('',(#569,#570,#571,#572));
#113=EDGE_LOOP('',(#573,#574,#575,#576));
#114=EDGE_LOOP('',(#577,#578,#579,#580));
#115=EDGE_LOOP('',(#581,#582,#583,#584));
#116=EDGE_LOOP('',(#585,#586,#587,#588));
#117=EDGE_LOOP('',(#589,#590,#591,#592));
#118=EDGE_LOOP('',(#593,#594,#595,#596));
#119=EDGE_LOOP('',(#597,#598,#599,#600));
#120=EDGE_LOOP('',(#601,#602,#603,#604));
#121=EDGE_LOOP('',(#605,#606,#607,#608));
#122=EDGE_LOOP('',(#609,#610,#611,#612));
#123=EDGE_LOOP('',(#613,#614,#615,#616,#617,#618,#619,#620,#621,#622,#623,
#624,#625,#626,#627,#628,#629,#630,#631,#632));
#124=EDGE_LOOP('',(#633,#634,#635,#636,#637,#638,#639,#640,#641,#642));
#125=EDGE_LOOP('',(#643,#644,#645,#646));
#126=EDGE_LOOP('',(#647));
#127=EDGE_LOOP('',(#648));
#128=EDGE_LOOP('',(#649,#650,#651,#652,#653,#654));
#129=EDGE_LOOP('',(#655,#656,#657,#658));
#130=EDGE_LOOP('',(#659,#660,#661,#662));
#131=EDGE_LOOP('',(#663));
#132=EDGE_LOOP('',(#664));
#133=EDGE_LOOP('',(#665));
#134=EDGE_LOOP('',(#666));
#135=LINE('',#959,#219);
#136=LINE('',#965,#220);
#137=LINE('',#971,#221);
#138=LINE('',#977,#222);
#139=LINE('',#983,#223);
#140=LINE('',#989,#224);
#141=LINE('',#994,#225);
#142=LINE('',#996,#226);
#143=LINE('',#998,#227);
#144=LINE('',#999,#228);
#145=LINE('',#1002,#229);
#146=LINE('',#1004,#230);
#147=LINE('',#1005,#231);
#148=LINE('',#1008,#232);
#149=LINE('',#1010,#233);
#150=LINE('',#1012,#234);
#151=LINE('',#1014,#235);
#152=LINE('',#1016,#236);
#153=LINE('',#1018,#237);
#154=LINE('',#1020,#238);
#155=LINE('',#1022,#239);
#156=LINE('',#1024,#240);
#157=LINE('',#1026,#241);
#158=LINE('',#1028,#242);
#159=LINE('',#1030,#243);
#160=LINE('',#1032,#244);
#161=LINE('',#1034,#245);
#162=LINE('',#1036,#246);
#163=LINE('',#1038,#247);
#164=LINE('',#1040,#248);
#165=LINE('',#1042,#249);
#166=LINE('',#1044,#250);
#167=LINE('',#1046,#251);
#168=LINE('',#1048,#252);
#169=LINE('',#1050,#253);
#170=LINE('',#1051,#254);
#171=LINE('',#1054,#255);
#172=LINE('',#1056,#256);
#173=LINE('',#1057,#257);
#174=LINE('',#1060,#258);
#175=LINE('',#1061,#259);
#176=LINE('',#1064,#260);
#177=LINE('',#1065,#261);
#178=LINE('',#1068,#262);
#179=LINE('',#1069,#263);
#180=LINE('',#1072,#264);
#181=LINE('',#1073,#265);
#182=LINE('',#1076,#266);
#183=LINE('',#1077,#267);
#184=LINE('',#1080,#268);
#185=LINE('',#1081,#269);
#186=LINE('',#1084,#270);
#187=LINE('',#1085,#271);
#188=LINE('',#1088,#272);
#189=LINE('',#1089,#273);
#190=LINE('',#1092,#274);
#191=LINE('',#1093,#275);
#192=LINE('',#1096,#276);
#193=LINE('',#1097,#277);
#194=LINE('',#1100,#278);
#195=LINE('',#1101,#279);
#196=LINE('',#1104,#280);
#197=LINE('',#1105,#281);
#198=LINE('',#1108,#282);
#199=LINE('',#1109,#283);
#200=LINE('',#1112,#284);
#201=LINE('',#1113,#285);
#202=LINE('',#1116,#286);
#203=LINE('',#1117,#287);
#204=LINE('',#1120,#288);
#205=LINE('',#1121,#289);
#206=LINE('',#1124,#290);
#207=LINE('',#1125,#291);
#208=LINE('',#1128,#292);
#209=LINE('',#1129,#293);
#210=LINE('',#1131,#294);
#211=LINE('',#1134,#295);
#212=LINE('',#1136,#296);
#213=LINE('',#1137,#297);
#214=LINE('',#1140,#298);
#215=LINE('',#1141,#299);
#216=LINE('',#1144,#300);
#217=LINE('',#1145,#301);
#218=LINE('',#1147,#302);
#219=VECTOR('',#782,0.7835);
#220=VECTOR('',#789,0.7835);
#221=VECTOR('',#796,0.7835);
#222=VECTOR('',#803,0.7835);
#223=VECTOR('',#810,2.25);
#224=VECTOR('',#817,2.25);
#225=VECTOR('',#822,10.);
#226=VECTOR('',#823,10.);
#227=VECTOR('',#824,10.);
#228=VECTOR('',#825,10.);
#229=VECTOR('',#828,10.);
#230=VECTOR('',#829,10.);
#231=VECTOR('',#830,10.);
#232=VECTOR('',#833,10.);
#233=VECTOR('',#834,10.);
#234=VECTOR('',#835,10.);
#235=VECTOR('',#836,10.);
#236=VECTOR('',#837,10.);
#237=VECTOR('',#838,10.);
#238=VECTOR('',#839,10.);
#239=VECTOR('',#840,10.);
#240=VECTOR('',#841,10.);
#241=VECTOR('',#842,10.);
#242=VECTOR('',#843,10.);
#243=VECTOR('',#844,10.);
#244=VECTOR('',#845,10.);
#245=VECTOR('',#846,10.);
#246=VECTOR('',#847,10.);
#247=VECTOR('',#848,10.);
#248=VECTOR('',#849,10.);
#249=VECTOR('',#850,10.);
#250=VECTOR('',#851,10.);
#251=VECTOR('',#852,10.);
#252=VECTOR('',#853,10.);
#253=VECTOR('',#854,10.);
#254=VECTOR('',#855,10.);
#255=VECTOR('',#858,10.);
#256=VECTOR('',#859,10.);
#257=VECTOR('',#860,10.);
#258=VECTOR('',#863,10.);
#259=VECTOR('',#864,10.);
#260=VECTOR('',#867,10.);
#261=VECTOR('',#868,10.);
#262=VECTOR('',#871,10.);
#263=VECTOR('',#872,10.);
#264=VECTOR('',#875,10.);
#265=VECTOR('',#876,10.);
#266=VECTOR('',#879,10.);
#267=VECTOR('',#880,10.);
#268=VECTOR('',#883,10.);
#269=VECTOR('',#884,10.);
#270=VECTOR('',#887,10.);
#271=VECTOR('',#888,10.);
#272=VECTOR('',#891,10.);
#273=VECTOR('',#892,10.);
#274=VECTOR('',#895,10.);
#275=VECTOR('',#896,10.);
#276=VECTOR('',#899,10.);
#277=VECTOR('',#900,10.);
#278=VECTOR('',#903,10.);
#279=VECTOR('',#904,10.);
#280=VECTOR('',#907,10.);
#281=VECTOR('',#908,10.);
#282=VECTOR('',#911,10.);
#283=VECTOR('',#912,10.);
#284=VECTOR('',#915,10.);
#285=VECTOR('',#916,10.);
#286=VECTOR('',#919,10.);
#287=VECTOR('',#920,10.);
#288=VECTOR('',#923,10.);
#289=VECTOR('',#924,10.);
#290=VECTOR('',#927,10.);
#291=VECTOR('',#928,10.);
#292=VECTOR('',#931,10.);
#293=VECTOR('',#932,10.);
#294=VECTOR('',#935,10.);
#295=VECTOR('',#938,10.);
#296=VECTOR('',#939,10.);
#297=VECTOR('',#940,10.);
#298=VECTOR('',#943,10.);
#299=VECTOR('',#944,10.);
#300=VECTOR('',#947,10.);
#301=VECTOR('',#948,10.);
#302=VECTOR('',#951,10.);
#303=CIRCLE('',#731,0.7835);
#304=CIRCLE('',#732,0.783500000000001);
#305=CIRCLE('',#734,0.7835);
#306=CIRCLE('',#735,0.783500000000001);
#307=CIRCLE('',#737,0.7835);
#308=CIRCLE('',#738,0.783500000000001);
#309=CIRCLE('',#740,0.7835);
#310=CIRCLE('',#741,0.783500000000001);
#311=CIRCLE('',#743,2.25);
#312=CIRCLE('',#744,2.25);
#313=CIRCLE('',#746,2.25);
#314=CIRCLE('',#747,2.25);
#315=VERTEX_POINT('',#956);
#316=VERTEX_POINT('',#958);
#317=VERTEX_POINT('',#962);
#318=VERTEX_POINT('',#964);
#319=VERTEX_POINT('',#968);
#320=VERTEX_POINT('',#970);
#321=VERTEX_POINT('',#974);
#322=VERTEX_POINT('',#976);
#323=VERTEX_POINT('',#980);
#324=VERTEX_POINT('',#982);
#325=VERTEX_POINT('',#986);
#326=VERTEX_POINT('',#988);
#327=VERTEX_POINT('',#992);
#328=VERTEX_POINT('',#993);
#329=VERTEX_POINT('',#995);
#330=VERTEX_POINT('',#997);
#331=VERTEX_POINT('',#1001);
#332=VERTEX_POINT('',#1003);
#333=VERTEX_POINT('',#1007);
#334=VERTEX_POINT('',#1009);
#335=VERTEX_POINT('',#1011);
#336=VERTEX_POINT('',#1013);
#337=VERTEX_POINT('',#1015);
#338=VERTEX_POINT('',#1017);
#339=VERTEX_POINT('',#1019);
#340=VERTEX_POINT('',#1021);
#341=VERTEX_POINT('',#1023);
#342=VERTEX_POINT('',#1025);
#343=VERTEX_POINT('',#1027);
#344=VERTEX_POINT('',#1029);
#345=VERTEX_POINT('',#1031);
#346=VERTEX_POINT('',#1033);
#347=VERTEX_POINT('',#1035);
#348=VERTEX_POINT('',#1037);
#349=VERTEX_POINT('',#1039);
#350=VERTEX_POINT('',#1041);
#351=VERTEX_POINT('',#1043);
#352=VERTEX_POINT('',#1045);
#353=VERTEX_POINT('',#1047);
#354=VERTEX_POINT('',#1049);
#355=VERTEX_POINT('',#1053);
#356=VERTEX_POINT('',#1055);
#357=VERTEX_POINT('',#1059);
#358=VERTEX_POINT('',#1063);
#359=VERTEX_POINT('',#1067);
#360=VERTEX_POINT('',#1071);
#361=VERTEX_POINT('',#1075);
#362=VERTEX_POINT('',#1079);
#363=VERTEX_POINT('',#1083);
#364=VERTEX_POINT('',#1087);
#365=VERTEX_POINT('',#1091);
#366=VERTEX_POINT('',#1095);
#367=VERTEX_POINT('',#1099);
#368=VERTEX_POINT('',#1103);
#369=VERTEX_POINT('',#1107);
#370=VERTEX_POINT('',#1111);
#371=VERTEX_POINT('',#1115);
#372=VERTEX_POINT('',#1119);
#373=VERTEX_POINT('',#1123);
#374=VERTEX_POINT('',#1127);
#375=VERTEX_POINT('',#1133);
#376=VERTEX_POINT('',#1135);
#377=VERTEX_POINT('',#1139);
#378=VERTEX_POINT('',#1143);
#379=EDGE_CURVE('',#315,#315,#303,.T.);
#380=EDGE_CURVE('',#315,#316,#135,.T.);
#381=EDGE_CURVE('',#316,#316,#304,.T.);
#382=EDGE_CURVE('',#317,#317,#305,.T.);
#383=EDGE_CURVE('',#317,#318,#136,.T.);
#384=EDGE_CURVE('',#318,#318,#306,.T.);
#385=EDGE_CURVE('',#319,#319,#307,.T.);
#386=EDGE_CURVE('',#319,#320,#137,.T.);
#387=EDGE_CURVE('',#320,#320,#308,.T.);
#388=EDGE_CURVE('',#321,#321,#309,.T.);
#389=EDGE_CURVE('',#321,#322,#138,.T.);
#390=EDGE_CURVE('',#322,#322,#310,.T.);
#391=EDGE_CURVE('',#323,#323,#311,.T.);
#392=EDGE_CURVE('',#323,#324,#139,.T.);
#393=EDGE_CURVE('',#324,#324,#312,.T.);
#394=EDGE_CURVE('',#325,#325,#313,.T.);
#395=EDGE_CURVE('',#325,#326,#140,.T.);
#396=EDGE_CURVE('',#326,#326,#314,.T.);
#397=EDGE_CURVE('',#327,#328,#141,.T.);
#398=EDGE_CURVE('',#327,#329,#142,.T.);
#399=EDGE_CURVE('',#330,#329,#143,.T.);
#400=EDGE_CURVE('',#328,#330,#144,.T.);
#401=EDGE_CURVE('',#331,#330,#145,.T.);
#402=EDGE_CURVE('',#329,#332,#146,.T.);
#403=EDGE_CURVE('',#332,#331,#147,.T.);
#404=EDGE_CURVE('',#333,#328,#148,.T.);
#405=EDGE_CURVE('',#334,#333,#149,.T.);
#406=EDGE_CURVE('',#335,#334,#150,.T.);
#407=EDGE_CURVE('',#335,#336,#151,.T.);
#408=EDGE_CURVE('',#336,#337,#152,.T.);
#409=EDGE_CURVE('',#337,#338,#153,.T.);
#410=EDGE_CURVE('',#338,#339,#154,.T.);
#411=EDGE_CURVE('',#339,#340,#155,.T.);
#412=EDGE_CURVE('',#340,#341,#156,.T.);
#413=EDGE_CURVE('',#341,#342,#157,.T.);
#414=EDGE_CURVE('',#342,#343,#158,.T.);
#415=EDGE_CURVE('',#343,#344,#159,.T.);
#416=EDGE_CURVE('',#344,#345,#160,.T.);
#417=EDGE_CURVE('',#345,#346,#161,.T.);
#418=EDGE_CURVE('',#346,#347,#162,.T.);
#419=EDGE_CURVE('',#347,#348,#163,.T.);
#420=EDGE_CURVE('',#348,#349,#164,.T.);
#421=EDGE_CURVE('',#349,#350,#165,.T.);
#422=EDGE_CURVE('',#350,#351,#166,.T.);
#423=EDGE_CURVE('',#351,#352,#167,.T.);
#424=EDGE_CURVE('',#352,#353,#168,.T.);
#425=EDGE_CURVE('',#353,#354,#169,.T.);
#426=EDGE_CURVE('',#327,#354,#170,.T.);
#427=EDGE_CURVE('',#353,#355,#171,.T.);
#428=EDGE_CURVE('',#355,#356,#172,.T.);
#429=EDGE_CURVE('',#354,#356,#173,.T.);
#430=EDGE_CURVE('',#352,#357,#174,.T.);
#431=EDGE_CURVE('',#357,#355,#175,.T.);
#432=EDGE_CURVE('',#351,#358,#176,.T.);
#433=EDGE_CURVE('',#358,#357,#177,.T.);
#434=EDGE_CURVE('',#350,#359,#178,.T.);
#435=EDGE_CURVE('',#359,#358,#179,.T.);
#436=EDGE_CURVE('',#349,#360,#180,.T.);
#437=EDGE_CURVE('',#360,#359,#181,.T.);
#438=EDGE_CURVE('',#348,#361,#182,.T.);
#439=EDGE_CURVE('',#361,#360,#183,.T.);
#440=EDGE_CURVE('',#347,#362,#184,.T.);
#441=EDGE_CURVE('',#362,#361,#185,.T.);
#442=EDGE_CURVE('',#346,#363,#186,.T.);
#443=EDGE_CURVE('',#363,#362,#187,.T.);
#444=EDGE_CURVE('',#345,#364,#188,.T.);
#445=EDGE_CURVE('',#364,#363,#189,.T.);
#446=EDGE_CURVE('',#344,#365,#190,.T.);
#447=EDGE_CURVE('',#365,#364,#191,.T.);
#448=EDGE_CURVE('',#343,#366,#192,.T.);
#449=EDGE_CURVE('',#366,#365,#193,.T.);
#450=EDGE_CURVE('',#342,#367,#194,.T.);
#451=EDGE_CURVE('',#367,#366,#195,.T.);
#452=EDGE_CURVE('',#341,#368,#196,.T.);
#453=EDGE_CURVE('',#368,#367,#197,.T.);
#454=EDGE_CURVE('',#340,#369,#198,.T.);
#455=EDGE_CURVE('',#369,#368,#199,.T.);
#456=EDGE_CURVE('',#339,#370,#200,.T.);
#457=EDGE_CURVE('',#370,#369,#201,.T.);
#458=EDGE_CURVE('',#338,#371,#202,.T.);
#459=EDGE_CURVE('',#371,#370,#203,.T.);
#460=EDGE_CURVE('',#337,#372,#204,.T.);
#461=EDGE_CURVE('',#372,#371,#205,.T.);
#462=EDGE_CURVE('',#336,#373,#206,.T.);
#463=EDGE_CURVE('',#373,#372,#207,.T.);
#464=EDGE_CURVE('',#374,#335,#208,.T.);
#465=EDGE_CURVE('',#374,#373,#209,.T.);
#466=EDGE_CURVE('',#356,#374,#210,.T.);
#467=EDGE_CURVE('',#334,#375,#211,.T.);
#468=EDGE_CURVE('',#376,#375,#212,.T.);
#469=EDGE_CURVE('',#332,#376,#213,.T.);
#470=EDGE_CURVE('',#377,#376,#214,.T.);
#471=EDGE_CURVE('',#331,#377,#215,.T.);
#472=EDGE_CURVE('',#378,#377,#216,.T.);
#473=EDGE_CURVE('',#333,#378,#217,.T.);
#474=EDGE_CURVE('',#375,#378,#218,.T.);
#475=ORIENTED_EDGE('',*,*,#379,.F.);
#476=ORIENTED_EDGE('',*,*,#380,.T.);
#477=ORIENTED_EDGE('',*,*,#381,.F.);
#478=ORIENTED_EDGE('',*,*,#380,.F.);
#479=ORIENTED_EDGE('',*,*,#382,.F.);
#480=ORIENTED_EDGE('',*,*,#383,.T.);
#481=ORIENTED_EDGE('',*,*,#384,.F.);
#482=ORIENTED_EDGE('',*,*,#383,.F.);
#483=ORIENTED_EDGE('',*,*,#385,.F.);
#484=ORIENTED_EDGE('',*,*,#386,.T.);
#485=ORIENTED_EDGE('',*,*,#387,.F.);
#486=ORIENTED_EDGE('',*,*,#386,.F.);
#487=ORIENTED_EDGE('',*,*,#388,.F.);
#488=ORIENTED_EDGE('',*,*,#389,.T.);
#489=ORIENTED_EDGE('',*,*,#390,.F.);
#490=ORIENTED_EDGE('',*,*,#389,.F.);
#491=ORIENTED_EDGE('',*,*,#391,.F.);
#492=ORIENTED_EDGE('',*,*,#392,.T.);
#493=ORIENTED_EDGE('',*,*,#393,.F.);
#494=ORIENTED_EDGE('',*,*,#392,.F.);
#495=ORIENTED_EDGE('',*,*,#394,.F.);
#496=ORIENTED_EDGE('',*,*,#395,.T.);
#497=ORIENTED_EDGE('',*,*,#396,.F.);
#498=ORIENTED_EDGE('',*,*,#395,.F.);
#499=ORIENTED_EDGE('',*,*,#397,.F.);
#500=ORIENTED_EDGE('',*,*,#398,.T.);
#501=ORIENTED_EDGE('',*,*,#399,.F.);
#502=ORIENTED_EDGE('',*,*,#400,.F.);
#503=ORIENTED_EDGE('',*,*,#393,.T.);
#504=ORIENTED_EDGE('',*,*,#396,.T.);
#505=ORIENTED_EDGE('',*,*,#401,.T.);
#506=ORIENTED_EDGE('',*,*,#399,.T.);
#507=ORIENTED_EDGE('',*,*,#402,.T.);
#508=ORIENTED_EDGE('',*,*,#403,.T.);
#509=ORIENTED_EDGE('',*,*,#397,.T.);
#510=ORIENTED_EDGE('',*,*,#404,.F.);
#511=ORIENTED_EDGE('',*,*,#405,.F.);
#512=ORIENTED_EDGE('',*,*,#406,.F.);
#513=ORIENTED_EDGE('',*,*,#407,.T.);
#514=ORIENTED_EDGE('',*,*,#408,.T.);
#515=ORIENTED_EDGE('',*,*,#409,.T.);
#516=ORIENTED_EDGE('',*,*,#410,.T.);
#517=ORIENTED_EDGE('',*,*,#411,.T.);
#518=ORIENTED_EDGE('',*,*,#412,.T.);
#519=ORIENTED_EDGE('',*,*,#413,.T.);
#520=ORIENTED_EDGE('',*,*,#414,.T.);
#521=ORIENTED_EDGE('',*,*,#415,.T.);
#522=ORIENTED_EDGE('',*,*,#416,.T.);
#523=ORIENTED_EDGE('',*,*,#417,.T.);
#524=ORIENTED_EDGE('',*,*,#418,.T.);
#525=ORIENTED_EDGE('',*,*,#419,.T.);
#526=ORIENTED_EDGE('',*,*,#420,.T.);
#527=ORIENTED_EDGE('',*,*,#421,.T.);
#528=ORIENTED_EDGE('',*,*,#422,.T.);
#529=ORIENTED_EDGE('',*,*,#423,.T.);
#530=ORIENTED_EDGE('',*,*,#424,.T.);
#531=ORIENTED_EDGE('',*,*,#425,.T.);
#532=ORIENTED_EDGE('',*,*,#426,.F.);
#533=ORIENTED_EDGE('',*,*,#379,.T.);
#534=ORIENTED_EDGE('',*,*,#382,.T.);
#535=ORIENTED_EDGE('',*,*,#385,.T.);
#536=ORIENTED_EDGE('',*,*,#388,.T.);
#537=ORIENTED_EDGE('',*,*,#425,.F.);
#538=ORIENTED_EDGE('',*,*,#427,.T.);
#539=ORIENTED_EDGE('',*,*,#428,.T.);
#540=ORIENTED_EDGE('',*,*,#429,.F.);
#541=ORIENTED_EDGE('',*,*,#424,.F.);
#542=ORIENTED_EDGE('',*,*,#430,.T.);
#543=ORIENTED_EDGE('',*,*,#431,.T.);
#544=ORIENTED_EDGE('',*,*,#427,.F.);
#545=ORIENTED_EDGE('',*,*,#423,.F.);
#546=ORIENTED_EDGE('',*,*,#432,.T.);
#547=ORIENTED_EDGE('',*,*,#433,.T.);
#548=ORIENTED_EDGE('',*,*,#430,.F.);
#549=ORIENTED_EDGE('',*,*,#422,.F.);
#550=ORIENTED_EDGE('',*,*,#434,.T.);
#551=ORIENTED_EDGE('',*,*,#435,.T.);
#552=ORIENTED_EDGE('',*,*,#432,.F.);
#553=ORIENTED_EDGE('',*,*,#421,.F.);
#554=ORIENTED_EDGE('',*,*,#436,.T.);
#555=ORIENTED_EDGE('',*,*,#437,.T.);
#556=ORIENTED_EDGE('',*,*,#434,.F.);
#557=ORIENTED_EDGE('',*,*,#420,.F.);
#558=ORIENTED_EDGE('',*,*,#438,.T.);
#559=ORIENTED_EDGE('',*,*,#439,.T.);
#560=ORIENTED_EDGE('',*,*,#436,.F.);
#561=ORIENTED_EDGE('',*,*,#419,.F.);
#562=ORIENTED_EDGE('',*,*,#440,.T.);
#563=ORIENTED_EDGE('',*,*,#441,.T.);
#564=ORIENTED_EDGE('',*,*,#438,.F.);
#565=ORIENTED_EDGE('',*,*,#418,.F.);
#566=ORIENTED_EDGE('',*,*,#442,.T.);
#567=ORIENTED_EDGE('',*,*,#443,.T.);
#568=ORIENTED_EDGE('',*,*,#440,.F.);
#569=ORIENTED_EDGE('',*,*,#417,.F.);
#570=ORIENTED_EDGE('',*,*,#444,.T.);
#571=ORIENTED_EDGE('',*,*,#445,.T.);
#572=ORIENTED_EDGE('',*,*,#442,.F.);
#573=ORIENTED_EDGE('',*,*,#416,.F.);
#574=ORIENTED_EDGE('',*,*,#446,.T.);
#575=ORIENTED_EDGE('',*,*,#447,.T.);
#576=ORIENTED_EDGE('',*,*,#444,.F.);
#577=ORIENTED_EDGE('',*,*,#415,.F.);
#578=ORIENTED_EDGE('',*,*,#448,.T.);
#579=ORIENTED_EDGE('',*,*,#449,.T.);
#580=ORIENTED_EDGE('',*,*,#446,.F.);
#581=ORIENTED_EDGE('',*,*,#414,.F.);
#582=ORIENTED_EDGE('',*,*,#450,.T.);
#583=ORIENTED_EDGE('',*,*,#451,.T.);
#584=ORIENTED_EDGE('',*,*,#448,.F.);
#585=ORIENTED_EDGE('',*,*,#413,.F.);
#586=ORIENTED_EDGE('',*,*,#452,.T.);
#587=ORIENTED_EDGE('',*,*,#453,.T.);
#588=ORIENTED_EDGE('',*,*,#450,.F.);
#589=ORIENTED_EDGE('',*,*,#412,.F.);
#590=ORIENTED_EDGE('',*,*,#454,.T.);
#591=ORIENTED_EDGE('',*,*,#455,.T.);
#592=ORIENTED_EDGE('',*,*,#452,.F.);
#593=ORIENTED_EDGE('',*,*,#411,.F.);
#594=ORIENTED_EDGE('',*,*,#456,.T.);
#595=ORIENTED_EDGE('',*,*,#457,.T.);
#596=ORIENTED_EDGE('',*,*,#454,.F.);
#597=ORIENTED_EDGE('',*,*,#410,.F.);
#598=ORIENTED_EDGE('',*,*,#458,.T.);
#599=ORIENTED_EDGE('',*,*,#459,.T.);
#600=ORIENTED_EDGE('',*,*,#456,.F.);
#601=ORIENTED_EDGE('',*,*,#409,.F.);
#602=ORIENTED_EDGE('',*,*,#460,.T.);
#603=ORIENTED_EDGE('',*,*,#461,.T.);
#604=ORIENTED_EDGE('',*,*,#458,.F.);
#605=ORIENTED_EDGE('',*,*,#408,.F.);
#606=ORIENTED_EDGE('',*,*,#462,.T.);
#607=ORIENTED_EDGE('',*,*,#463,.T.);
#608=ORIENTED_EDGE('',*,*,#460,.F.);
#609=ORIENTED_EDGE('',*,*,#407,.F.);
#610=ORIENTED_EDGE('',*,*,#464,.F.);
#611=ORIENTED_EDGE('',*,*,#465,.T.);
#612=ORIENTED_EDGE('',*,*,#462,.F.);
#613=ORIENTED_EDGE('',*,*,#465,.F.);
#614=ORIENTED_EDGE('',*,*,#466,.F.);
#615=ORIENTED_EDGE('',*,*,#428,.F.);
#616=ORIENTED_EDGE('',*,*,#431,.F.);
#617=ORIENTED_EDGE('',*,*,#433,.F.);
#618=ORIENTED_EDGE('',*,*,#435,.F.);
#619=ORIENTED_EDGE('',*,*,#437,.F.);
#620=ORIENTED_EDGE('',*,*,#439,.F.);
#621=ORIENTED_EDGE('',*,*,#441,.F.);
#622=ORIENTED_EDGE('',*,*,#443,.F.);
#623=ORIENTED_EDGE('',*,*,#445,.F.);
#624=ORIENTED_EDGE('',*,*,#447,.F.);
#625=ORIENTED_EDGE('',*,*,#449,.F.);
#626=ORIENTED_EDGE('',*,*,#451,.F.);
#627=ORIENTED_EDGE('',*,*,#453,.F.);
#628=ORIENTED_EDGE('',*,*,#455,.F.);
#629=ORIENTED_EDGE('',*,*,#457,.F.);
#630=ORIENTED_EDGE('',*,*,#459,.F.);
#631=ORIENTED_EDGE('',*,*,#461,.F.);
#632=ORIENTED_EDGE('',*,*,#463,.F.);
#633=ORIENTED_EDGE('',*,*,#464,.T.);
#634=ORIENTED_EDGE('',*,*,#406,.T.);
#635=ORIENTED_EDGE('',*,*,#467,.T.);
#636=ORIENTED_EDGE('',*,*,#468,.F.);
#637=ORIENTED_EDGE('',*,*,#469,.F.);
#638=ORIENTED_EDGE('',*,*,#402,.F.);
#639=ORIENTED_EDGE('',*,*,#398,.F.);
#640=ORIENTED_EDGE('',*,*,#426,.T.);
#641=ORIENTED_EDGE('',*,*,#429,.T.);
#642=ORIENTED_EDGE('',*,*,#466,.T.);
#643=ORIENTED_EDGE('',*,*,#469,.T.);
#644=ORIENTED_EDGE('',*,*,#470,.F.);
#645=ORIENTED_EDGE('',*,*,#471,.F.);
#646=ORIENTED_EDGE('',*,*,#403,.F.);
#647=ORIENTED_EDGE('',*,*,#391,.T.);
#648=ORIENTED_EDGE('',*,*,#394,.T.);
#649=ORIENTED_EDGE('',*,*,#404,.T.);
#650=ORIENTED_EDGE('',*,*,#400,.T.);
#651=ORIENTED_EDGE('',*,*,#401,.F.);
#652=ORIENTED_EDGE('',*,*,#471,.T.);
#653=ORIENTED_EDGE('',*,*,#472,.F.);
#654=ORIENTED_EDGE('',*,*,#473,.F.);
#655=ORIENTED_EDGE('',*,*,#405,.T.);
#656=ORIENTED_EDGE('',*,*,#473,.T.);
#657=ORIENTED_EDGE('',*,*,#474,.F.);
#658=ORIENTED_EDGE('',*,*,#467,.F.);
#659=ORIENTED_EDGE('',*,*,#474,.T.);
#660=ORIENTED_EDGE('',*,*,#472,.T.);
#661=ORIENTED_EDGE('',*,*,#470,.T.);
#662=ORIENTED_EDGE('',*,*,#468,.T.);
#663=ORIENTED_EDGE('',*,*,#381,.T.);
#664=ORIENTED_EDGE('',*,*,#384,.T.);
#665=ORIENTED_EDGE('',*,*,#387,.T.);
#666=ORIENTED_EDGE('',*,*,#390,.T.);
#667=CYLINDRICAL_SURFACE('',#730,0.7835);
#668=CYLINDRICAL_SURFACE('',#733,0.7835);
#669=CYLINDRICAL_SURFACE('',#736,0.7835);
#670=CYLINDRICAL_SURFACE('',#739,0.7835);
#671=CYLINDRICAL_SURFACE('',#742,2.25);
#672=CYLINDRICAL_SURFACE('',#745,2.25);
#673=ADVANCED_FACE('',(#55),#667,.F.);
#674=ADVANCED_FACE('',(#56),#668,.F.);
#675=ADVANCED_FACE('',(#57),#669,.F.);
#676=ADVANCED_FACE('',(#58),#670,.F.);
#677=ADVANCED_FACE('',(#59),#671,.F.);
#678=ADVANCED_FACE('',(#60),#672,.F.);
#679=ADVANCED_FACE('',(#61,#15,#16),#27,.T.);
#680=ADVANCED_FACE('',(#62),#28,.T.);
#681=ADVANCED_FACE('',(#63,#17,#18,#19,#20),#29,.F.);
#682=ADVANCED_FACE('',(#64),#30,.F.);
#683=ADVANCED_FACE('',(#65),#31,.F.);
#684=ADVANCED_FACE('',(#66),#32,.F.);
#685=ADVANCED_FACE('',(#67),#33,.F.);
#686=ADVANCED_FACE('',(#68),#34,.F.);
#687=ADVANCED_FACE('',(#69),#35,.F.);
#688=ADVANCED_FACE('',(#70),#36,.F.);
#689=ADVANCED_FACE('',(#71),#37,.F.);
#690=ADVANCED_FACE('',(#72),#38,.F.);
#691=ADVANCED_FACE('',(#73),#39,.F.);
#692=ADVANCED_FACE('',(#74),#40,.F.);
#693=ADVANCED_FACE('',(#75),#41,.F.);
#694=ADVANCED_FACE('',(#76),#42,.F.);
#695=ADVANCED_FACE('',(#77),#43,.F.);
#696=ADVANCED_FACE('',(#78),#44,.F.);
#697=ADVANCED_FACE('',(#79),#45,.F.);
#698=ADVANCED_FACE('',(#80),#46,.F.);
#699=ADVANCED_FACE('',(#81),#47,.F.);
#700=ADVANCED_FACE('',(#82),#48,.F.);
#701=ADVANCED_FACE('',(#83),#49,.F.);
#702=ADVANCED_FACE('',(#84),#50,.T.);
#703=ADVANCED_FACE('',(#85,#21,#22),#51,.T.);
#704=ADVANCED_FACE('',(#86),#52,.T.);
#705=ADVANCED_FACE('',(#87),#53,.T.);
#706=ADVANCED_FACE('',(#88,#23,#24,#25,#26),#54,.T.);
#707=CLOSED_SHELL('',(#673,#674,#675,#676,#677,#678,#679,#680,#681,#682,
#683,#684,#685,#686,#687,#688,#689,#690,#691,#692,#693,#694,#695,#696,#697,
#698,#699,#700,#701,#702,#703,#704,#705,#706));
#708=DERIVED_UNIT_ELEMENT(#711,1.);
#709=DERIVED_UNIT_ELEMENT(#1154,-3.);
#710=DIMENSIONAL_EXPONENTS(0.,1.,0.,0.,0.,0.,0.);
#711=(
CONVERSION_BASED_UNIT('gram',#713)
MASS_UNIT()
NAMED_UNIT(#710)
);
#712=(
MASS_UNIT()
NAMED_UNIT(*)
SI_UNIT(.KILO.,.GRAM.)
);
#713=MASS_MEASURE_WITH_UNIT(MASS_MEASURE(0.001),#712);
#714=DERIVED_UNIT((#708,#709));
#715=MEASURE_REPRESENTATION_ITEM('density measure',
POSITIVE_RATIO_MEASURE(1.),#714);
#716=PROPERTY_DEFINITION_REPRESENTATION(#721,#718);
#717=PROPERTY_DEFINITION_REPRESENTATION(#722,#719);
#718=REPRESENTATION('material name',(#720),#1151);
#719=REPRESENTATION('density',(#715),#1151);
#720=DESCRIPTIVE_REPRESENTATION_ITEM('Generic','Generic');
#721=PROPERTY_DEFINITION('material property','material name',#1161);
#722=PROPERTY_DEFINITION('material property','density of part',#1161);
#723=DATE_TIME_ROLE('creation_date');
#724=APPLIED_DATE_AND_TIME_ASSIGNMENT(#725,#723,(#1161));
#725=DATE_AND_TIME(#726,#727);
#726=CALENDAR_DATE(2025,7,11);
#727=LOCAL_TIME(0,0,0.,#728);
#728=COORDINATED_UNIVERSAL_TIME_OFFSET(0,0,.BEHIND.);
#729=AXIS2_PLACEMENT_3D('',#954,#776,#777);
#730=AXIS2_PLACEMENT_3D('',#955,#778,#779);
#731=AXIS2_PLACEMENT_3D('',#957,#780,#781);
#732=AXIS2_PLACEMENT_3D('',#960,#783,#784);
#733=AXIS2_PLACEMENT_3D('',#961,#785,#786);
#734=AXIS2_PLACEMENT_3D('',#963,#787,#788);
#735=AXIS2_PLACEMENT_3D('',#966,#790,#791);
#736=AXIS2_PLACEMENT_3D('',#967,#792,#793);
#737=AXIS2_PLACEMENT_3D('',#969,#794,#795);
#738=AXIS2_PLACEMENT_3D('',#972,#797,#798);
#739=AXIS2_PLACEMENT_3D('',#973,#799,#800);
#740=AXIS2_PLACEMENT_3D('',#975,#801,#802);
#741=AXIS2_PLACEMENT_3D('',#978,#804,#805);
#742=AXIS2_PLACEMENT_3D('',#979,#806,#807);
#743=AXIS2_PLACEMENT_3D('',#981,#808,#809);
#744=AXIS2_PLACEMENT_3D('',#984,#811,#812);
#745=AXIS2_PLACEMENT_3D('',#985,#813,#814);
#746=AXIS2_PLACEMENT_3D('',#987,#815,#816);
#747=AXIS2_PLACEMENT_3D('',#990,#818,#819);
#748=AXIS2_PLACEMENT_3D('',#991,#820,#821);
#749=AXIS2_PLACEMENT_3D('',#1000,#826,#827);
#750=AXIS2_PLACEMENT_3D('',#1006,#831,#832);
#751=AXIS2_PLACEMENT_3D('',#1052,#856,#857);
#752=AXIS2_PLACEMENT_3D('',#1058,#861,#862);
#753=AXIS2_PLACEMENT_3D('',#1062,#865,#866);
#754=AXIS2_PLACEMENT_3D('',#1066,#869,#870);
#755=AXIS2_PLACEMENT_3D('',#1070,#873,#874);
#756=AXIS2_PLACEMENT_3D('',#1074,#877,#878);
#757=AXIS2_PLACEMENT_3D('',#1078,#881,#882);
#758=AXIS2_PLACEMENT_3D('',#1082,#885,#886);
#759=AXIS2_PLACEMENT_3D('',#1086,#889,#890);
#760=AXIS2_PLACEMENT_3D('',#1090,#893,#894);
#761=AXIS2_PLACEMENT_3D('',#1094,#897,#898);
#762=AXIS2_PLACEMENT_3D('',#1098,#901,#902);
#763=AXIS2_PLACEMENT_3D('',#1102,#905,#906);
#764=AXIS2_PLACEMENT_3D('',#1106,#909,#910);
#765=AXIS2_PLACEMENT_3D('',#1110,#913,#914);
#766=AXIS2_PLACEMENT_3D('',#1114,#917,#918);
#767=AXIS2_PLACEMENT_3D('',#1118,#921,#922);
#768=AXIS2_PLACEMENT_3D('',#1122,#925,#926);
#769=AXIS2_PLACEMENT_3D('',#1126,#929,#930);
#770=AXIS2_PLACEMENT_3D('',#1130,#933,#934);
#771=AXIS2_PLACEMENT_3D('',#1132,#936,#937);
#772=AXIS2_PLACEMENT_3D('',#1138,#941,#942);
#773=AXIS2_PLACEMENT_3D('',#1142,#945,#946);
#774=AXIS2_PLACEMENT_3D('',#1146,#949,#950);
#775=AXIS2_PLACEMENT_3D('',#1148,#952,#953);
#776=DIRECTION('axis',(0.,0.,1.));
#777=DIRECTION('refdir',(1.,0.,0.));
#778=DIRECTION('center_axis',(0.,0.,-1.));
#779=DIRECTION('ref_axis',(-1.,0.,0.));
#780=DIRECTION('center_axis',(0.,0.,1.));
#781=DIRECTION('ref_axis',(-1.,0.,0.));
#782=DIRECTION('',(0.,0.,1.));
#783=DIRECTION('center_axis',(0.,0.,-1.));
#784=DIRECTION('ref_axis',(-1.,0.,0.));
#785=DIRECTION('center_axis',(0.,0.,-1.));
#786=DIRECTION('ref_axis',(-1.,0.,0.));
#787=DIRECTION('center_axis',(0.,0.,1.));
#788=DIRECTION('ref_axis',(-1.,0.,0.));
#789=DIRECTION('',(0.,0.,1.));
#790=DIRECTION('center_axis',(0.,0.,-1.));
#791=DIRECTION('ref_axis',(-1.,0.,0.));
#792=DIRECTION('center_axis',(0.,0.,-1.));
#793=DIRECTION('ref_axis',(-1.,0.,0.));
#794=DIRECTION('center_axis',(0.,0.,1.));
#795=DIRECTION('ref_axis',(-1.,0.,0.));
#796=DIRECTION('',(0.,0.,1.));
#797=DIRECTION('center_axis',(0.,0.,-1.));
#798=DIRECTION('ref_axis',(-1.,0.,0.));
#799=DIRECTION('center_axis',(0.,0.,-1.));
#800=DIRECTION('ref_axis',(-1.,0.,0.));
#801=DIRECTION('center_axis',(0.,0.,1.));
#802=DIRECTION('ref_axis',(-1.,0.,0.));
#803=DIRECTION('',(0.,0.,1.));
#804=DIRECTION('center_axis',(0.,0.,-1.));
#805=DIRECTION('ref_axis',(-1.,0.,0.));
#806=DIRECTION('center_axis',(0.,1.,0.));
#807=DIRECTION('ref_axis',(1.,0.,0.));
#808=DIRECTION('center_axis',(0.,-1.,0.));
#809=DIRECTION('ref_axis',(1.,0.,0.));
#810=DIRECTION('',(0.,-1.,0.));
#811=DIRECTION('center_axis',(0.,1.,0.));
#812=DIRECTION('ref_axis',(1.,0.,0.));
#813=DIRECTION('center_axis',(0.,1.,0.));
#814=DIRECTION('ref_axis',(1.,0.,0.));
#815=DIRECTION('center_axis',(0.,-1.,0.));
#816=DIRECTION('ref_axis',(1.,0.,0.));
#817=DIRECTION('',(0.,-1.,0.));
#818=DIRECTION('center_axis',(0.,1.,0.));
#819=DIRECTION('ref_axis',(1.,0.,0.));
#820=DIRECTION('center_axis',(0.,-1.,0.));
#821=DIRECTION('ref_axis',(-1.,0.,0.));
#822=DIRECTION('',(1.,0.,0.));
#823=DIRECTION('',(0.,0.,-1.));
#824=DIRECTION('',(-1.,0.,0.));
#825=DIRECTION('',(0.,0.,-1.));
#826=DIRECTION('center_axis',(0.,0.,-1.));
#827=DIRECTION('ref_axis',(-1.,0.,0.));
#828=DIRECTION('',(8.07434927000114E-17,-1.,0.));
#829=DIRECTION('',(-1.21115239050017E-16,1.,0.));
#830=DIRECTION('',(1.,0.,0.));
#831=DIRECTION('center_axis',(0.,0.,1.));
#832=DIRECTION('ref_axis',(1.,0.,0.));
#833=DIRECTION('',(-8.07434927000114E-17,1.,0.));
#834=DIRECTION('',(1.,1.38777878078145E-16,0.));
#835=DIRECTION('',(1.21115239050017E-16,-1.,0.));
#836=DIRECTION('',(1.,-1.48029736616688E-16,0.));
#837=DIRECTION('',(1.77809156287623E-16,1.,0.));
#838=DIRECTION('',(1.,0.,0.));
#839=DIRECTION('',(0.,1.,0.));
#840=DIRECTION('',(-1.,0.,0.));
#841=DIRECTION('',(1.77809156287623E-16,1.,0.));
#842=DIRECTION('',(1.,-2.77555756156289E-16,0.));
#843=DIRECTION('',(0.,1.,0.));
#844=DIRECTION('',(-1.,0.,0.));
#845=DIRECTION('',(1.77809156287623E-16,1.,0.));
#846=DIRECTION('',(1.,-1.18952466924124E-16,0.));
#847=DIRECTION('',(0.,1.,0.));
#848=DIRECTION('',(-1.,0.,0.));
#849=DIRECTION('',(1.77809156287623E-16,1.,0.));
#850=DIRECTION('',(1.,-1.58603289232165E-16,0.));
#851=DIRECTION('',(-5.55111512312578E-16,1.,0.));
#852=DIRECTION('',(-1.,0.,0.));
#853=DIRECTION('',(1.77809156287623E-16,1.,0.));
#854=DIRECTION('',(-1.,0.,0.));
#855=DIRECTION('',(1.21115239050017E-16,-1.,0.));
#856=DIRECTION('center_axis',(0.,1.,0.));
#857=DIRECTION('ref_axis',(-1.,0.,0.));
#858=DIRECTION('',(0.,0.,1.));
#859=DIRECTION('',(-1.,0.,0.));
#860=DIRECTION('',(0.,0.,1.));
#861=DIRECTION('center_axis',(1.,-1.77809156287623E-16,0.));
#862=DIRECTION('ref_axis',(1.77809156287623E-16,1.,0.));
#863=DIRECTION('',(0.,0.,1.));
#864=DIRECTION('',(1.77809156287623E-16,1.,0.));
#865=DIRECTION('center_axis',(0.,1.,0.));
#866=DIRECTION('ref_axis',(-1.,0.,0.));
#867=DIRECTION('',(0.,0.,1.));
#868=DIRECTION('',(-1.,0.,0.));
#869=DIRECTION('center_axis',(1.,5.55111512312578E-16,0.));
#870=DIRECTION('ref_axis',(-5.55111512312578E-16,1.,0.));
#871=DIRECTION('',(0.,0.,1.));
#872=DIRECTION('',(-5.55111512312578E-16,1.,0.));
#873=DIRECTION('center_axis',(-1.58603289232165E-16,-1.,0.));
#874=DIRECTION('ref_axis',(1.,-1.58603289232165E-16,0.));
#875=DIRECTION('',(0.,0.,1.));
#876=DIRECTION('',(1.,-1.58603289232165E-16,0.));
#877=DIRECTION('center_axis',(1.,-1.77809156287623E-16,0.));
#878=DIRECTION('ref_axis',(1.77809156287623E-16,1.,0.));
#879=DIRECTION('',(0.,0.,1.));
#880=DIRECTION('',(1.77809156287623E-16,1.,0.));
#881=DIRECTION('center_axis',(0.,1.,0.));
#882=DIRECTION('ref_axis',(-1.,0.,0.));
#883=DIRECTION('',(0.,0.,1.));
#884=DIRECTION('',(-1.,0.,0.));
#885=DIRECTION('center_axis',(1.,0.,0.));
#886=DIRECTION('ref_axis',(0.,1.,0.));
#887=DIRECTION('',(0.,0.,1.));
#888=DIRECTION('',(0.,1.,0.));
#889=DIRECTION('center_axis',(-1.18952466924124E-16,-1.,0.));
#890=DIRECTION('ref_axis',(1.,-1.18952466924124E-16,0.));
#891=DIRECTION('',(0.,0.,1.));
#892=DIRECTION('',(1.,-1.18952466924124E-16,0.));
#893=DIRECTION('center_axis',(1.,-1.77809156287623E-16,0.));
#894=DIRECTION('ref_axis',(1.77809156287623E-16,1.,0.));
#895=DIRECTION('',(0.,0.,1.));
#896=DIRECTION('',(1.77809156287623E-16,1.,0.));
#897=DIRECTION('center_axis',(0.,1.,0.));
#898=DIRECTION('ref_axis',(-1.,0.,0.));
#899=DIRECTION('',(0.,0.,1.));
#900=DIRECTION('',(-1.,0.,0.));
#901=DIRECTION('center_axis',(1.,0.,0.));
#902=DIRECTION('ref_axis',(0.,1.,0.));
#903=DIRECTION('',(0.,0.,1.));
#904=DIRECTION('',(0.,1.,0.));
#905=DIRECTION('center_axis',(-2.77555756156289E-16,-1.,0.));
#906=DIRECTION('ref_axis',(1.,-2.77555756156289E-16,0.));
#907=DIRECTION('',(0.,0.,1.));
#908=DIRECTION('',(1.,-2.77555756156289E-16,0.));
#909=DIRECTION('center_axis',(1.,-1.77809156287623E-16,0.));
#910=DIRECTION('ref_axis',(1.77809156287623E-16,1.,0.));
#911=DIRECTION('',(0.,0.,1.));
#912=DIRECTION('',(1.77809156287623E-16,1.,0.));
#913=DIRECTION('center_axis',(0.,1.,0.));
#914=DIRECTION('ref_axis',(-1.,0.,0.));
#915=DIRECTION('',(0.,0.,1.));
#916=DIRECTION('',(-1.,0.,0.));
#917=DIRECTION('center_axis',(1.,0.,0.));
#918=DIRECTION('ref_axis',(0.,1.,0.));
#919=DIRECTION('',(0.,0.,1.));
#920=DIRECTION('',(0.,1.,0.));
#921=DIRECTION('center_axis',(0.,-1.,0.));
#922=DIRECTION('ref_axis',(1.,0.,0.));
#923=DIRECTION('',(0.,0.,1.));
#924=DIRECTION('',(1.,0.,0.));
#925=DIRECTION('center_axis',(1.,-1.77809156287623E-16,0.));
#926=DIRECTION('ref_axis',(1.77809156287623E-16,1.,0.));
#927=DIRECTION('',(0.,0.,1.));
#928=DIRECTION('',(1.77809156287623E-16,1.,0.));
#929=DIRECTION('center_axis',(-1.48029736616688E-16,-1.,0.));
#930=DIRECTION('ref_axis',(1.,-1.48029736616688E-16,0.));
#931=DIRECTION('',(0.,0.,-1.));
#932=DIRECTION('',(1.,-1.48029736616688E-16,0.));
#933=DIRECTION('center_axis',(0.,0.,1.));
#934=DIRECTION('ref_axis',(1.,0.,0.));
#935=DIRECTION('',(1.21115239050017E-16,-1.,0.));
#936=DIRECTION('center_axis',(-1.,-1.21115239050017E-16,0.));
#937=DIRECTION('ref_axis',(1.21115239050017E-16,-1.,0.));
#938=DIRECTION('',(0.,0.,1.));
#939=DIRECTION('',(1.21115239050017E-16,-1.,0.));
#940=DIRECTION('',(0.,0.,1.));
#941=DIRECTION('center_axis',(0.,1.,0.));
#942=DIRECTION('ref_axis',(-1.,0.,0.));
#943=DIRECTION('',(-1.,0.,0.));
#944=DIRECTION('',(0.,0.,1.));
#945=DIRECTION('center_axis',(1.,8.07434927000114E-17,0.));
#946=DIRECTION('ref_axis',(-8.07434927000114E-17,1.,0.));
#947=DIRECTION('',(-8.07434927000114E-17,1.,0.));
#948=DIRECTION('',(0.,0.,1.));
#949=DIRECTION('center_axis',(1.38777878078145E-16,-1.,0.));
#950=DIRECTION('ref_axis',(1.,1.38777878078145E-16,0.));
#951=DIRECTION('',(1.,1.38777878078145E-16,0.));
#952=DIRECTION('center_axis',(0.,0.,1.));
#953=DIRECTION('ref_axis',(1.,0.,0.));
#954=CARTESIAN_POINT('',(0.,0.,0.));
#955=CARTESIAN_POINT('Origin',(-9.,-20.,66.7008245826092));
#956=CARTESIAN_POINT('',(-8.2165,-20.,0.));
#957=CARTESIAN_POINT('Origin',(-9.,-20.,0.));
#958=CARTESIAN_POINT('',(-8.2165,-20.,4.99999999999999));
#959=CARTESIAN_POINT('',(-8.2165,-20.,66.7008245826092));
#960=CARTESIAN_POINT('Origin',(-9.,-20.,5.));
#961=CARTESIAN_POINT('Origin',(9.,-20.,66.7008245826092));
#962=CARTESIAN_POINT('',(9.7835,-20.,0.));
#963=CARTESIAN_POINT('Origin',(9.,-20.,0.));
#964=CARTESIAN_POINT('',(9.7835,-20.,4.99999999999999));
#965=CARTESIAN_POINT('',(9.7835,-20.,66.7008245826092));
#966=CARTESIAN_POINT('Origin',(9.,-20.,5.));
#967=CARTESIAN_POINT('Origin',(9.,20.,66.7008245826092));
#968=CARTESIAN_POINT('',(9.7835,20.,0.));
#969=CARTESIAN_POINT('Origin',(9.,20.,0.));
#970=CARTESIAN_POINT('',(9.7835,20.,4.99999999999999));
#971=CARTESIAN_POINT('',(9.7835,20.,66.7008245826092));
#972=CARTESIAN_POINT('Origin',(9.,20.,5.));
#973=CARTESIAN_POINT('Origin',(-9.,20.,66.7008245826092));
#974=CARTESIAN_POINT('',(-8.2165,20.,0.));
#975=CARTESIAN_POINT('Origin',(-9.,20.,0.));
#976=CARTESIAN_POINT('',(-8.2165,20.,4.99999999999999));
#977=CARTESIAN_POINT('',(-8.2165,20.,66.7008245826092));
#978=CARTESIAN_POINT('Origin',(-9.,20.,5.));
#979=CARTESIAN_POINT('Origin',(-10.,-36.7008245826092,-7.));
#980=CARTESIAN_POINT('',(-12.25,30.,-7.));
#981=CARTESIAN_POINT('Origin',(-10.,30.,-7.));
#982=CARTESIAN_POINT('',(-12.25,27.,-7.));
#983=CARTESIAN_POINT('',(-12.25,-36.7008245826092,-7.));
#984=CARTESIAN_POINT('Origin',(-10.,27.,-7.));
#985=CARTESIAN_POINT('Origin',(10.,-36.7008245826092,-7.));
#986=CARTESIAN_POINT('',(7.75,30.,-7.));
#987=CARTESIAN_POINT('Origin',(10.,30.,-7.));
#988=CARTESIAN_POINT('',(7.75,27.,-7.));
#989=CARTESIAN_POINT('',(7.75,-36.7008245826092,-7.));
#990=CARTESIAN_POINT('Origin',(10.,27.,-7.));
#991=CARTESIAN_POINT('Origin',(16.,27.,0.));
#992=CARTESIAN_POINT('',(-16.,27.,0.));
#993=CARTESIAN_POINT('',(16.,27.,0.));
#994=CARTESIAN_POINT('',(8.,27.,0.));
#995=CARTESIAN_POINT('',(-16.,27.,-15.));
#996=CARTESIAN_POINT('',(-16.,27.,0.));
#997=CARTESIAN_POINT('',(16.,27.,-15.));
#998=CARTESIAN_POINT('',(16.,27.,-15.));
#999=CARTESIAN_POINT('',(16.,27.,0.));
#1000=CARTESIAN_POINT('Origin',(-2.22044604925031E-15,28.5,-15.));
#1001=CARTESIAN_POINT('',(16.,30.,-15.));
#1002=CARTESIAN_POINT('',(16.,30.,-15.));
#1003=CARTESIAN_POINT('',(-16.,30.,-15.));
#1004=CARTESIAN_POINT('',(-16.,-25.,-15.));
#1005=CARTESIAN_POINT('',(-16.,30.,-15.));
#1006=CARTESIAN_POINT('Origin',(-1.11022302462516E-15,2.5,0.));
#1007=CARTESIAN_POINT('',(16.,-25.,0.));
#1008=CARTESIAN_POINT('',(16.,-25.,0.));
#1009=CARTESIAN_POINT('',(-16.,-25.,0.));
#1010=CARTESIAN_POINT('',(-16.,-25.,0.));
#1011=CARTESIAN_POINT('',(-16.,-16.,0.));
#1012=CARTESIAN_POINT('',(-16.,30.,0.));
#1013=CARTESIAN_POINT('',(-1.,-16.,0.));
#1014=CARTESIAN_POINT('',(-8.,-16.,0.));
#1015=CARTESIAN_POINT('',(-0.999999999999998,-10.,0.));
#1016=CARTESIAN_POINT('',(-1.,-6.75,0.));
#1017=CARTESIAN_POINT('',(10.,-10.,0.));
#1018=CARTESIAN_POINT('',(-0.5,-10.,0.));
#1019=CARTESIAN_POINT('',(10.,-6.,0.));
#1020=CARTESIAN_POINT('',(10.,-3.75,0.));
#1021=CARTESIAN_POINT('',(-0.999999999999998,-6.,0.));
#1022=CARTESIAN_POINT('',(5.,-6.,0.));
#1023=CARTESIAN_POINT('',(-0.999999999999998,-4.,0.));
#1024=CARTESIAN_POINT('',(-0.999999999999999,-1.75,0.));
#1025=CARTESIAN_POINT('',(10.,-4.,0.));
#1026=CARTESIAN_POINT('',(-0.500000000000001,-4.,0.));
#1027=CARTESIAN_POINT('',(10.,5.55111512312578E-16,0.));
#1028=CARTESIAN_POINT('',(10.,-0.750000000000001,0.));
#1029=CARTESIAN_POINT('',(-0.999999999999998,5.55111512312578E-16,0.));
#1030=CARTESIAN_POINT('',(5.,5.55111512312578E-16,0.));
#1031=CARTESIAN_POINT('',(-0.999999999999998,2.,0.));
#1032=CARTESIAN_POINT('',(-0.999999999999998,1.25,0.));
#1033=CARTESIAN_POINT('',(10.,2.,0.));
#1034=CARTESIAN_POINT('',(-0.499999999999999,2.,0.));
#1035=CARTESIAN_POINT('',(10.,6.,0.));
#1036=CARTESIAN_POINT('',(10.,2.25,0.));
#1037=CARTESIAN_POINT('',(-0.999999999999997,6.,0.));
#1038=CARTESIAN_POINT('',(5.,6.,0.));
#1039=CARTESIAN_POINT('',(-0.999999999999997,8.,0.));
#1040=CARTESIAN_POINT('',(-0.999999999999998,4.25,0.));
#1041=CARTESIAN_POINT('',(10.,8.,0.));
#1042=CARTESIAN_POINT('',(-0.499999999999999,8.,0.));
#1043=CARTESIAN_POINT('',(10.,12.,0.));
#1044=CARTESIAN_POINT('',(10.,5.25,0.));
#1045=CARTESIAN_POINT('',(-0.999999999999997,12.,0.));
#1046=CARTESIAN_POINT('',(5.,12.,0.));
#1047=CARTESIAN_POINT('',(-0.999999999999996,16.,0.));
#1048=CARTESIAN_POINT('',(-0.999999999999997,7.25,0.));
#1049=CARTESIAN_POINT('',(-16.,16.,0.));
#1050=CARTESIAN_POINT('',(-0.499999999999999,16.,0.));
#1051=CARTESIAN_POINT('',(-16.,30.,0.));
#1052=CARTESIAN_POINT('Origin',(-0.999999999999996,16.,0.));
#1053=CARTESIAN_POINT('',(-0.999999999999996,16.,3.));
#1054=CARTESIAN_POINT('',(-0.999999999999996,16.,0.));
#1055=CARTESIAN_POINT('',(-16.,16.,3.));
#1056=CARTESIAN_POINT('',(-16.,16.,3.));
#1057=CARTESIAN_POINT('',(-16.,16.,0.));
#1058=CARTESIAN_POINT('Origin',(-0.999999999999996,12.,0.));
#1059=CARTESIAN_POINT('',(-0.999999999999997,12.,3.));
#1060=CARTESIAN_POINT('',(-0.999999999999997,12.,0.));
#1061=CARTESIAN_POINT('',(-0.999999999999996,16.,3.));
#1062=CARTESIAN_POINT('Origin',(10.,12.,0.));
#1063=CARTESIAN_POINT('',(10.,12.,3.));
#1064=CARTESIAN_POINT('',(10.,12.,0.));
#1065=CARTESIAN_POINT('',(-0.999999999999998,12.,3.));
#1066=CARTESIAN_POINT('Origin',(10.,8.,0.));
#1067=CARTESIAN_POINT('',(10.,8.,3.));
#1068=CARTESIAN_POINT('',(10.,8.,0.));
#1069=CARTESIAN_POINT('',(10.,12.,3.));
#1070=CARTESIAN_POINT('Origin',(-0.999999999999998,8.,0.));
#1071=CARTESIAN_POINT('',(-0.999999999999997,8.,3.));
#1072=CARTESIAN_POINT('',(-0.999999999999997,8.,0.));
#1073=CARTESIAN_POINT('',(6.,8.,3.));
#1074=CARTESIAN_POINT('Origin',(-0.999999999999998,6.,0.));
#1075=CARTESIAN_POINT('',(-0.999999999999997,6.,3.));
#1076=CARTESIAN_POINT('',(-0.999999999999997,6.,0.));
#1077=CARTESIAN_POINT('',(-0.999999999999996,16.,3.));
#1078=CARTESIAN_POINT('Origin',(10.,6.,0.));
#1079=CARTESIAN_POINT('',(10.,6.,3.));
#1080=CARTESIAN_POINT('',(10.,6.,0.));
#1081=CARTESIAN_POINT('',(-0.999999999999998,6.,3.));
#1082=CARTESIAN_POINT('Origin',(10.,2.,0.));
#1083=CARTESIAN_POINT('',(10.,2.,3.));
#1084=CARTESIAN_POINT('',(10.,2.,0.));
#1085=CARTESIAN_POINT('',(10.,6.,3.));
#1086=CARTESIAN_POINT('Origin',(-0.999999999999998,2.,0.));
#1087=CARTESIAN_POINT('',(-0.999999999999998,2.,3.));
#1088=CARTESIAN_POINT('',(-0.999999999999998,2.,0.));
#1089=CARTESIAN_POINT('',(6.,2.,3.));
#1090=CARTESIAN_POINT('Origin',(-0.999999999999999,0.,0.));
#1091=CARTESIAN_POINT('',(-0.999999999999998,0.,3.));
#1092=CARTESIAN_POINT('',(-0.999999999999998,5.55111512312578E-16,0.));
#1093=CARTESIAN_POINT('',(-0.999999999999996,16.,3.));
#1094=CARTESIAN_POINT('Origin',(10.,5.55111512312578E-16,0.));
#1095=CARTESIAN_POINT('',(10.,0.,3.));
#1096=CARTESIAN_POINT('',(10.,5.55111512312578E-16,0.));
#1097=CARTESIAN_POINT('',(6.,5.55111512312578E-16,3.));
#1098=CARTESIAN_POINT('Origin',(10.,-4.,0.));
#1099=CARTESIAN_POINT('',(10.,-4.,3.));
#1100=CARTESIAN_POINT('',(10.,-4.,0.));
#1101=CARTESIAN_POINT('',(10.,5.55111512312578E-16,3.));
#1102=CARTESIAN_POINT('Origin',(-0.999999999999999,-4.,0.));
#1103=CARTESIAN_POINT('',(-0.999999999999998,-4.,3.));
#1104=CARTESIAN_POINT('',(-0.999999999999998,-4.,0.));
#1105=CARTESIAN_POINT('',(10.,-4.,3.));
#1106=CARTESIAN_POINT('Origin',(-1.,-6.,0.));
#1107=CARTESIAN_POINT('',(-0.999999999999998,-6.,3.));
#1108=CARTESIAN_POINT('',(-0.999999999999998,-6.,0.));
#1109=CARTESIAN_POINT('',(-0.999999999999996,16.,3.));
#1110=CARTESIAN_POINT('Origin',(10.,-6.,0.));
#1111=CARTESIAN_POINT('',(10.,-6.,3.));
#1112=CARTESIAN_POINT('',(10.,-6.,0.));
#1113=CARTESIAN_POINT('',(6.,-6.,3.));
#1114=CARTESIAN_POINT('Origin',(10.,-10.,0.));
#1115=CARTESIAN_POINT('',(10.,-10.,3.));
#1116=CARTESIAN_POINT('',(10.,-10.,0.));
#1117=CARTESIAN_POINT('',(10.,-6.,3.));
#1118=CARTESIAN_POINT('Origin',(-0.999999999999999,-10.,0.));
#1119=CARTESIAN_POINT('',(-0.999999999999998,-10.,3.));
#1120=CARTESIAN_POINT('',(-0.999999999999998,-10.,0.));
#1121=CARTESIAN_POINT('',(10.,-10.,3.));
#1122=CARTESIAN_POINT('Origin',(-1.,-16.,0.));
#1123=CARTESIAN_POINT('',(-1.,-16.,3.));
#1124=CARTESIAN_POINT('',(-1.,-16.,0.));
#1125=CARTESIAN_POINT('',(-0.999999999999996,16.,3.));
#1126=CARTESIAN_POINT('Origin',(-16.,-16.,0.));
#1127=CARTESIAN_POINT('',(-16.,-16.,3.));
#1128=CARTESIAN_POINT('',(-16.,-16.,0.));
#1129=CARTESIAN_POINT('',(-1.,-16.,3.));
#1130=CARTESIAN_POINT('Origin',(-8.5,0.,3.));
#1131=CARTESIAN_POINT('',(-16.,15.,3.));
#1132=CARTESIAN_POINT('Origin',(-16.,30.,0.));
#1133=CARTESIAN_POINT('',(-16.,-25.,5.));
#1134=CARTESIAN_POINT('',(-16.,-25.,0.));
#1135=CARTESIAN_POINT('',(-16.,30.,5.));
#1136=CARTESIAN_POINT('',(-16.,30.,5.));
#1137=CARTESIAN_POINT('',(-16.,30.,0.));
#1138=CARTESIAN_POINT('Origin',(16.,30.,0.));
#1139=CARTESIAN_POINT('',(16.,30.,5.));
#1140=CARTESIAN_POINT('',(16.,30.,5.));
#1141=CARTESIAN_POINT('',(16.,30.,0.));
#1142=CARTESIAN_POINT('Origin',(16.,-25.,0.));
#1143=CARTESIAN_POINT('',(16.,-25.,5.));
#1144=CARTESIAN_POINT('',(16.,-25.,5.));
#1145=CARTESIAN_POINT('',(16.,-25.,0.));
#1146=CARTESIAN_POINT('Origin',(-16.,-25.,0.));
#1147=CARTESIAN_POINT('',(-16.,-25.,5.));
#1148=CARTESIAN_POINT('Origin',(-2.22044604925031E-15,2.5,5.));
#1149=UNCERTAINTY_MEASURE_WITH_UNIT(LENGTH_MEASURE(0.01),#1153,
'DISTANCE_ACCURACY_VALUE',
'Maximum model space distance between geometric entities at asserted c
onnectivities');
#1150=UNCERTAINTY_MEASURE_WITH_UNIT(LENGTH_MEASURE(0.01),#1153,
'DISTANCE_ACCURACY_VALUE',
'Maximum model space distance between geometric entities at asserted c
onnectivities');
#1151=(
GEOMETRIC_REPRESENTATION_CONTEXT(3)
GLOBAL_UNCERTAINTY_ASSIGNED_CONTEXT((#1149))
GLOBAL_UNIT_ASSIGNED_CONTEXT((#1153,#1155,#1156))
REPRESENTATION_CONTEXT('','3D')
);
#1152=(
GEOMETRIC_REPRESENTATION_CONTEXT(3)
GLOBAL_UNCERTAINTY_ASSIGNED_CONTEXT((#1150))
GLOBAL_UNIT_ASSIGNED_CONTEXT((#1153,#1155,#1156))
REPRESENTATION_CONTEXT('','3D')
);
#1153=(
LENGTH_UNIT()
NAMED_UNIT(*)
SI_UNIT(.MILLI.,.METRE.)
);
#1154=(
LENGTH_UNIT()
NAMED_UNIT(*)
SI_UNIT(.CENTI.,.METRE.)
);
#1155=(
NAMED_UNIT(*)
PLANE_ANGLE_UNIT()
SI_UNIT($,.RADIAN.)
);
#1156=(
NAMED_UNIT(*)
SI_UNIT($,.STERADIAN.)
SOLID_ANGLE_UNIT()
);
#1157=SHAPE_DEFINITION_REPRESENTATION(#1158,#1159);
#1158=PRODUCT_DEFINITION_SHAPE('',$,#1161);
#1159=SHAPE_REPRESENTATION('',(#729),#1151);
#1160=PRODUCT_DEFINITION_CONTEXT('part definition',#1165,'design');
#1161=PRODUCT_DEFINITION('Support','Support',#1162,#1160);
#1162=PRODUCT_DEFINITION_FORMATION('',$,#1167);
#1163=PRODUCT_RELATED_PRODUCT_CATEGORY('Support','Support',(#1167));
#1164=APPLICATION_PROTOCOL_DEFINITION('international standard',
'automotive_design',2009,#1165);
#1165=APPLICATION_CONTEXT(
'Core Data for Automotive Mechanical Design Process');
#1166=PRODUCT_CONTEXT('part definition',#1165,'mechanical');
#1167=PRODUCT('Support','Support',$,(#1166));
#1168=PRESENTATION_STYLE_ASSIGNMENT((#1169));
#1169=SURFACE_STYLE_USAGE(.BOTH.,#1172);
#1170=SURFACE_STYLE_RENDERING_WITH_PROPERTIES($,#1176,(#1171));
#1171=SURFACE_STYLE_TRANSPARENT(0.);
#1172=SURFACE_SIDE_STYLE('',(#1173,#1170));
#1173=SURFACE_STYLE_FILL_AREA(#1174);
#1174=FILL_AREA_STYLE('',(#1175));
#1175=FILL_AREA_STYLE_COLOUR('',#1176);
#1176=COLOUR_RGB('',0.749019607843137,0.749019607843137,0.749019607843137);
ENDSEC;
END-ISO-10303-21;
