G04*
G04 #@! TF.GenerationSoftware,Altium Limited,Altium Designer,25.8.1 (18)*
G04*
G04 Layer_Physical_Order=4*
G04 Layer_Color=16711680*
%FSLAX44Y44*%
%MOMM*%
G71*
G04*
G04 #@! TF.SameCoordinates,45B643EA-730A-4FF9-8589-E9E9826B77D5*
G04*
G04*
G04 #@! TF.FilePolarity,Positive*
G04*
G01*
G75*
%ADD19C,3.5000*%
%ADD20C,3.0000*%
%ADD21O,1.3000X1.0000*%
%ADD22C,0.3000*%
%ADD23C,0.7000*%
G36*
X260000Y0D02*
X0D01*
Y380000D01*
X260000D01*
Y0D01*
D02*
G37*
%LPC*%
G36*
X205974Y332590D02*
X205270D01*
Y313820D01*
X224040D01*
Y314524D01*
X223270Y318396D01*
X221759Y322043D01*
X219566Y325325D01*
X216775Y328116D01*
X213493Y330309D01*
X209846Y331820D01*
X205974Y332590D01*
D02*
G37*
G36*
X202730D02*
X202026D01*
X198155Y331820D01*
X194508Y330309D01*
X191225Y328116D01*
X188434Y325325D01*
X186241Y322043D01*
X184730Y318396D01*
X183960Y314524D01*
Y313820D01*
X202730D01*
Y332590D01*
D02*
G37*
G36*
X224040Y311280D02*
X205270D01*
Y292510D01*
X205974D01*
X209846Y293280D01*
X213493Y294791D01*
X216775Y296984D01*
X219566Y299775D01*
X221759Y303057D01*
X223270Y306705D01*
X224040Y310576D01*
Y311280D01*
D02*
G37*
G36*
X202730D02*
X183960D01*
Y310576D01*
X184730Y306705D01*
X186241Y303057D01*
X188434Y299775D01*
X191225Y296984D01*
X194508Y294791D01*
X198155Y293280D01*
X202026Y292510D01*
X202730D01*
Y311280D01*
D02*
G37*
G36*
X127201Y306040D02*
X124799D01*
X122579Y305121D01*
X120879Y303421D01*
X119960Y301201D01*
Y298799D01*
X120879Y296579D01*
X122458Y295000D01*
X120879Y293421D01*
X119960Y291201D01*
Y288799D01*
X120879Y286579D01*
X122458Y285000D01*
X120879Y283421D01*
X119960Y281201D01*
Y278799D01*
X120879Y276579D01*
X122579Y274879D01*
X124799Y273960D01*
X127201D01*
X129421Y274879D01*
X131121Y276579D01*
X132040Y278799D01*
Y281201D01*
X131121Y283421D01*
X129542Y285000D01*
X131121Y286579D01*
X132040Y288799D01*
Y291201D01*
X131121Y293421D01*
X129542Y295000D01*
X131121Y296579D01*
X132040Y298799D01*
Y301201D01*
X131121Y303421D01*
X129421Y305121D01*
X127201Y306040D01*
D02*
G37*
G36*
X50201D02*
X47799D01*
X45579Y305121D01*
X43879Y303421D01*
X42960Y301201D01*
Y298799D01*
X43879Y296579D01*
X45458Y295000D01*
X43879Y293421D01*
X42960Y291201D01*
Y288799D01*
X43879Y286579D01*
X45458Y285000D01*
X43879Y283421D01*
X42960Y281201D01*
Y278799D01*
X43879Y276579D01*
X45579Y274879D01*
X47799Y273960D01*
X50201D01*
X52421Y274879D01*
X54120Y276579D01*
X55040Y278799D01*
Y281201D01*
X54120Y283421D01*
X52542Y285000D01*
X54120Y286579D01*
X55040Y288799D01*
Y291201D01*
X54120Y293421D01*
X52542Y295000D01*
X54120Y296579D01*
X55040Y298799D01*
Y301201D01*
X54120Y303421D01*
X52421Y305121D01*
X50201Y306040D01*
D02*
G37*
G36*
X127201Y246040D02*
X124799D01*
X122579Y245121D01*
X120879Y243421D01*
X119960Y241201D01*
Y238799D01*
X120879Y236579D01*
X122458Y235000D01*
X120879Y233421D01*
X119960Y231201D01*
Y228799D01*
X120879Y226579D01*
X122458Y225000D01*
X120879Y223421D01*
X119960Y221201D01*
Y218799D01*
X120879Y216579D01*
X122579Y214879D01*
X124799Y213960D01*
X127201D01*
X129421Y214879D01*
X131121Y216579D01*
X132040Y218799D01*
Y221201D01*
X131121Y223421D01*
X129542Y225000D01*
X131121Y226579D01*
X132040Y228799D01*
Y231201D01*
X131121Y233421D01*
X129542Y235000D01*
X131121Y236579D01*
X132040Y238799D01*
Y241201D01*
X131121Y243421D01*
X129421Y245121D01*
X127201Y246040D01*
D02*
G37*
G36*
X50201D02*
X47799D01*
X45579Y245121D01*
X43879Y243421D01*
X42960Y241201D01*
Y238799D01*
X43879Y236579D01*
X45458Y235000D01*
X43879Y233421D01*
X42960Y231201D01*
Y228799D01*
X43879Y226579D01*
X45458Y225000D01*
X43879Y223421D01*
X42960Y221201D01*
Y218799D01*
X43879Y216579D01*
X45579Y214879D01*
X47799Y213960D01*
X50201D01*
X52421Y214879D01*
X54120Y216579D01*
X55040Y218799D01*
Y221201D01*
X54120Y223421D01*
X52542Y225000D01*
X54120Y226579D01*
X55040Y228799D01*
Y231201D01*
X54120Y233421D01*
X52542Y235000D01*
X54120Y236579D01*
X55040Y238799D01*
Y241201D01*
X54120Y243421D01*
X52421Y245121D01*
X50201Y246040D01*
D02*
G37*
G36*
X127201Y186040D02*
X124799D01*
X122579Y185121D01*
X120879Y183421D01*
X119960Y181201D01*
Y178799D01*
X120879Y176579D01*
X122458Y175000D01*
X120879Y173421D01*
X119960Y171201D01*
Y168799D01*
X120879Y166579D01*
X122458Y165000D01*
X120879Y163421D01*
X119960Y161201D01*
Y158799D01*
X120879Y156579D01*
X122579Y154880D01*
X124799Y153960D01*
X127201D01*
X129421Y154880D01*
X131121Y156579D01*
X132040Y158799D01*
Y161201D01*
X131121Y163421D01*
X129542Y165000D01*
X131121Y166579D01*
X132040Y168799D01*
Y171201D01*
X131121Y173421D01*
X129542Y175000D01*
X131121Y176579D01*
X132040Y178799D01*
Y181201D01*
X131121Y183421D01*
X129421Y185121D01*
X127201Y186040D01*
D02*
G37*
G36*
X50201D02*
X47799D01*
X45579Y185121D01*
X43879Y183421D01*
X42960Y181201D01*
Y178799D01*
X43879Y176579D01*
X45458Y175000D01*
X43879Y173421D01*
X42960Y171201D01*
Y168799D01*
X43879Y166579D01*
X45458Y165000D01*
X43879Y163421D01*
X42960Y161201D01*
Y158799D01*
X43879Y156579D01*
X45579Y154880D01*
X47799Y153960D01*
X50201D01*
X52421Y154880D01*
X54120Y156579D01*
X55040Y158799D01*
Y161201D01*
X54120Y163421D01*
X52542Y165000D01*
X54120Y166579D01*
X55040Y168799D01*
Y171201D01*
X54120Y173421D01*
X52542Y175000D01*
X54120Y176579D01*
X55040Y178799D01*
Y181201D01*
X54120Y183421D01*
X52421Y185121D01*
X50201Y186040D01*
D02*
G37*
G36*
X192800Y267455D02*
X189800D01*
X187832Y267196D01*
X185998Y266436D01*
X184422Y265228D01*
X183214Y263653D01*
X182454Y261819D01*
X182195Y259850D01*
X182454Y257882D01*
X183214Y256048D01*
X184422Y254473D01*
X184862Y254135D01*
Y252865D01*
X184422Y252528D01*
X183214Y250953D01*
X182454Y249118D01*
X182195Y247150D01*
X182454Y245182D01*
X183214Y243348D01*
X184422Y241772D01*
X184862Y241435D01*
Y240165D01*
X184422Y239828D01*
X183214Y238253D01*
X182454Y236418D01*
X182195Y234450D01*
X182454Y232482D01*
X183214Y230648D01*
X184422Y229072D01*
X184862Y228735D01*
Y227465D01*
X184422Y227128D01*
X183214Y225553D01*
X182454Y223718D01*
X182195Y221750D01*
X182454Y219782D01*
X183214Y217948D01*
X184422Y216373D01*
X184862Y216035D01*
Y214765D01*
X184422Y214428D01*
X183214Y212853D01*
X182454Y211019D01*
X182195Y209050D01*
X182454Y207082D01*
X183214Y205248D01*
X184422Y203673D01*
X184862Y203335D01*
Y202065D01*
X184422Y201728D01*
X183214Y200153D01*
X182454Y198319D01*
X182195Y196350D01*
X182454Y194382D01*
X183214Y192548D01*
X184422Y190972D01*
X184862Y190635D01*
Y189365D01*
X184422Y189028D01*
X183214Y187453D01*
X182454Y185618D01*
X182195Y183650D01*
X182454Y181682D01*
X183214Y179848D01*
X184422Y178272D01*
X184862Y177935D01*
Y176665D01*
X184422Y176328D01*
X183214Y174753D01*
X182454Y172918D01*
X182195Y170950D01*
X182454Y168982D01*
X183214Y167148D01*
X184422Y165572D01*
X184862Y165235D01*
Y163965D01*
X184422Y163628D01*
X183214Y162053D01*
X182454Y160219D01*
X182195Y158250D01*
X182454Y156282D01*
X183214Y154448D01*
X184422Y152872D01*
X184862Y152535D01*
Y151265D01*
X184422Y150928D01*
X183214Y149353D01*
X182454Y147519D01*
X182195Y145550D01*
X182454Y143582D01*
X183214Y141748D01*
X184422Y140173D01*
X184862Y139835D01*
Y138565D01*
X184422Y138228D01*
X183214Y136653D01*
X182454Y134818D01*
X182195Y132850D01*
X182454Y130882D01*
X183214Y129048D01*
X184422Y127472D01*
X184862Y127135D01*
Y125865D01*
X184422Y125528D01*
X183214Y123953D01*
X182454Y122119D01*
X182195Y120150D01*
X182454Y118182D01*
X183214Y116348D01*
X184422Y114773D01*
X185998Y113564D01*
X187832Y112804D01*
X189800Y112545D01*
X192800D01*
X194768Y112804D01*
X196603Y113564D01*
X198178Y114773D01*
X199386Y116348D01*
X200146Y118182D01*
X200405Y120150D01*
X200146Y122119D01*
X199386Y123953D01*
X198178Y125528D01*
X197738Y125865D01*
Y127135D01*
X198178Y127472D01*
X199386Y129048D01*
X200146Y130882D01*
X200405Y132850D01*
X200146Y134818D01*
X199386Y136653D01*
X198178Y138228D01*
X197738Y138565D01*
Y139835D01*
X198178Y140173D01*
X199386Y141748D01*
X200146Y143582D01*
X200405Y145550D01*
X200146Y147519D01*
X199386Y149353D01*
X198178Y150928D01*
X197738Y151265D01*
Y152535D01*
X198178Y152872D01*
X199386Y154448D01*
X200146Y156282D01*
X200405Y158250D01*
X200146Y160219D01*
X199386Y162053D01*
X198178Y163628D01*
X197738Y163965D01*
Y165235D01*
X198178Y165572D01*
X199386Y167148D01*
X200146Y168982D01*
X200405Y170950D01*
X200146Y172918D01*
X199386Y174753D01*
X198178Y176328D01*
X197738Y176665D01*
Y177935D01*
X198178Y178272D01*
X199386Y179848D01*
X200146Y181682D01*
X200405Y183650D01*
X200146Y185618D01*
X199386Y187453D01*
X198178Y189028D01*
X197738Y189365D01*
Y190635D01*
X198178Y190972D01*
X199386Y192548D01*
X200146Y194382D01*
X200405Y196350D01*
X200146Y198319D01*
X199386Y200153D01*
X198178Y201728D01*
X197738Y202065D01*
Y203335D01*
X198178Y203673D01*
X199386Y205248D01*
X200146Y207082D01*
X200405Y209050D01*
X200146Y211019D01*
X199386Y212853D01*
X198178Y214428D01*
X197738Y214765D01*
Y216035D01*
X198178Y216373D01*
X199386Y217948D01*
X200146Y219782D01*
X200405Y221750D01*
X200146Y223718D01*
X199386Y225553D01*
X198178Y227128D01*
X197738Y227465D01*
Y228735D01*
X198178Y229072D01*
X199386Y230648D01*
X200146Y232482D01*
X200405Y234450D01*
X200146Y236418D01*
X199386Y238253D01*
X198178Y239828D01*
X197738Y240165D01*
Y241435D01*
X198178Y241772D01*
X199386Y243348D01*
X200146Y245182D01*
X200405Y247150D01*
X200146Y249118D01*
X199386Y250953D01*
X198178Y252528D01*
X197738Y252865D01*
Y254135D01*
X198178Y254473D01*
X199386Y256048D01*
X200146Y257882D01*
X200405Y259850D01*
X200146Y261819D01*
X199386Y263653D01*
X198178Y265228D01*
X196603Y266436D01*
X194768Y267196D01*
X192800Y267455D01*
D02*
G37*
G36*
X167400Y273805D02*
X164400D01*
X162432Y273546D01*
X160598Y272786D01*
X159023Y271578D01*
X157814Y270003D01*
X157054Y268169D01*
X156795Y266200D01*
X157054Y264232D01*
X157814Y262398D01*
X159023Y260823D01*
X159462Y260485D01*
Y259215D01*
X159023Y258878D01*
X157814Y257303D01*
X157054Y255469D01*
X156795Y253500D01*
X157054Y251532D01*
X157814Y249698D01*
X159023Y248123D01*
X159462Y247785D01*
Y246515D01*
X159023Y246178D01*
X157814Y244603D01*
X157054Y242768D01*
X156795Y240800D01*
X157054Y238832D01*
X157814Y236998D01*
X159023Y235422D01*
X159462Y235085D01*
Y233815D01*
X159023Y233478D01*
X157814Y231903D01*
X157054Y230068D01*
X156795Y228100D01*
X157054Y226132D01*
X157814Y224298D01*
X159023Y222722D01*
X159462Y222385D01*
Y221115D01*
X159023Y220778D01*
X157814Y219203D01*
X157054Y217369D01*
X156795Y215400D01*
X157054Y213432D01*
X157814Y211598D01*
X159023Y210023D01*
X159462Y209685D01*
Y208415D01*
X159023Y208078D01*
X157814Y206503D01*
X157054Y204669D01*
X156795Y202700D01*
X157054Y200732D01*
X157814Y198898D01*
X159023Y197323D01*
X159462Y196985D01*
Y195715D01*
X159023Y195378D01*
X157814Y193803D01*
X157054Y191968D01*
X156795Y190000D01*
X157054Y188032D01*
X157814Y186198D01*
X159023Y184622D01*
X159462Y184285D01*
Y183015D01*
X159023Y182678D01*
X157814Y181103D01*
X157054Y179268D01*
X156795Y177300D01*
X157054Y175332D01*
X157814Y173498D01*
X159023Y171922D01*
X159462Y171585D01*
Y170315D01*
X159023Y169978D01*
X157814Y168403D01*
X157054Y166569D01*
X156795Y164600D01*
X157054Y162632D01*
X157814Y160798D01*
X159023Y159222D01*
X159462Y158885D01*
Y157615D01*
X159023Y157278D01*
X157814Y155703D01*
X157054Y153869D01*
X156795Y151900D01*
X157054Y149932D01*
X157814Y148098D01*
X159023Y146523D01*
X159462Y146185D01*
Y144915D01*
X159023Y144578D01*
X157814Y143003D01*
X157054Y141168D01*
X156795Y139200D01*
X157054Y137232D01*
X157814Y135398D01*
X159023Y133822D01*
X159462Y133485D01*
Y132215D01*
X159023Y131878D01*
X157814Y130303D01*
X157054Y128469D01*
X156795Y126500D01*
X157054Y124532D01*
X157814Y122698D01*
X159023Y121123D01*
X159462Y120785D01*
Y119515D01*
X159023Y119178D01*
X157814Y117603D01*
X157054Y115768D01*
X156795Y113800D01*
X157054Y111832D01*
X157814Y109998D01*
X159023Y108422D01*
X160598Y107214D01*
X162432Y106454D01*
X164400Y106195D01*
X167400D01*
X169368Y106454D01*
X171203Y107214D01*
X172778Y108422D01*
X173986Y109998D01*
X174746Y111832D01*
X175005Y113800D01*
X174746Y115768D01*
X173986Y117603D01*
X172778Y119178D01*
X172338Y119515D01*
Y120785D01*
X172778Y121123D01*
X173986Y122698D01*
X174746Y124532D01*
X175005Y126500D01*
X174746Y128469D01*
X173986Y130303D01*
X172778Y131878D01*
X172338Y132215D01*
Y133485D01*
X172778Y133822D01*
X173986Y135398D01*
X174746Y137232D01*
X175005Y139200D01*
X174746Y141168D01*
X173986Y143003D01*
X172778Y144578D01*
X172338Y144915D01*
Y146185D01*
X172778Y146523D01*
X173986Y148098D01*
X174746Y149932D01*
X175005Y151900D01*
X174746Y153869D01*
X173986Y155703D01*
X172778Y157278D01*
X172338Y157615D01*
Y158885D01*
X172778Y159222D01*
X173986Y160798D01*
X174746Y162632D01*
X175005Y164600D01*
X174746Y166569D01*
X173986Y168403D01*
X172778Y169978D01*
X172338Y170315D01*
Y171585D01*
X172778Y171922D01*
X173986Y173498D01*
X174746Y175332D01*
X175005Y177300D01*
X174746Y179268D01*
X173986Y181103D01*
X172778Y182678D01*
X172338Y183015D01*
Y184285D01*
X172778Y184622D01*
X173986Y186198D01*
X174746Y188032D01*
X175005Y190000D01*
X174746Y191968D01*
X173986Y193803D01*
X172778Y195378D01*
X172338Y195715D01*
Y196985D01*
X172778Y197323D01*
X173986Y198898D01*
X174746Y200732D01*
X175005Y202700D01*
X174746Y204669D01*
X173986Y206503D01*
X172778Y208078D01*
X172338Y208415D01*
Y209685D01*
X172778Y210023D01*
X173986Y211598D01*
X174746Y213432D01*
X175005Y215400D01*
X174746Y217369D01*
X173986Y219203D01*
X172778Y220778D01*
X172338Y221115D01*
Y222385D01*
X172778Y222722D01*
X173986Y224298D01*
X174746Y226132D01*
X175005Y228100D01*
X174746Y230068D01*
X173986Y231903D01*
X172778Y233478D01*
X172338Y233815D01*
Y235085D01*
X172778Y235422D01*
X173986Y236998D01*
X174746Y238832D01*
X175005Y240800D01*
X174746Y242768D01*
X173986Y244603D01*
X172778Y246178D01*
X172338Y246515D01*
Y247785D01*
X172778Y248123D01*
X173986Y249698D01*
X174746Y251532D01*
X175005Y253500D01*
X174746Y255469D01*
X173986Y257303D01*
X172778Y258878D01*
X172338Y259215D01*
Y260485D01*
X172778Y260823D01*
X173986Y262398D01*
X174746Y264232D01*
X175005Y266200D01*
X174746Y268169D01*
X173986Y270003D01*
X172778Y271578D01*
X171203Y272786D01*
X169368Y273546D01*
X167400Y273805D01*
D02*
G37*
G36*
X127201Y126040D02*
X124799D01*
X122579Y125120D01*
X120879Y123421D01*
X119960Y121201D01*
Y118799D01*
X120879Y116579D01*
X122458Y115000D01*
X120879Y113421D01*
X119960Y111201D01*
Y108799D01*
X120879Y106579D01*
X122458Y105000D01*
X120879Y103421D01*
X119960Y101201D01*
Y98799D01*
X120879Y96579D01*
X122579Y94880D01*
X124799Y93960D01*
X127201D01*
X129421Y94880D01*
X131121Y96579D01*
X132040Y98799D01*
Y101201D01*
X131121Y103421D01*
X129542Y105000D01*
X131121Y106579D01*
X132040Y108799D01*
Y111201D01*
X131121Y113421D01*
X129542Y115000D01*
X131121Y116579D01*
X132040Y118799D01*
Y121201D01*
X131121Y123421D01*
X129421Y125120D01*
X127201Y126040D01*
D02*
G37*
G36*
X50201D02*
X47799D01*
X45579Y125120D01*
X43879Y123421D01*
X42960Y121201D01*
Y118799D01*
X43879Y116579D01*
X45458Y115000D01*
X43879Y113421D01*
X42960Y111201D01*
Y108799D01*
X43879Y106579D01*
X45458Y105000D01*
X43879Y103421D01*
X42960Y101201D01*
Y98799D01*
X43879Y96579D01*
X45579Y94880D01*
X47799Y93960D01*
X50201D01*
X52421Y94880D01*
X54120Y96579D01*
X55040Y98799D01*
Y101201D01*
X54120Y103421D01*
X52542Y105000D01*
X54120Y106579D01*
X55040Y108799D01*
Y111201D01*
X54120Y113421D01*
X52542Y115000D01*
X54120Y116579D01*
X55040Y118799D01*
Y121201D01*
X54120Y123421D01*
X52421Y125120D01*
X50201Y126040D01*
D02*
G37*
G36*
X205974Y87490D02*
X205270D01*
Y68720D01*
X224040D01*
Y69424D01*
X223270Y73296D01*
X221759Y76943D01*
X219566Y80225D01*
X216775Y83016D01*
X213493Y85209D01*
X209846Y86720D01*
X205974Y87490D01*
D02*
G37*
G36*
X202730D02*
X202026D01*
X198155Y86720D01*
X194508Y85209D01*
X191225Y83016D01*
X188434Y80225D01*
X186241Y76943D01*
X184730Y73296D01*
X183960Y69424D01*
Y68720D01*
X202730D01*
Y87490D01*
D02*
G37*
G36*
X224040Y66180D02*
X205270D01*
Y47410D01*
X205974D01*
X209846Y48180D01*
X213493Y49691D01*
X216775Y51884D01*
X219566Y54675D01*
X221759Y57958D01*
X223270Y61605D01*
X224040Y65476D01*
Y66180D01*
D02*
G37*
G36*
X202730D02*
X183960D01*
Y65476D01*
X184730Y61605D01*
X186241Y57958D01*
X188434Y54675D01*
X191225Y51884D01*
X194508Y49691D01*
X198155Y48180D01*
X202026Y47410D01*
X202730D01*
Y66180D01*
D02*
G37*
%LPD*%
D19*
X204000Y67450D02*
D03*
Y312550D02*
D03*
D20*
X20000Y20000D02*
D03*
Y360000D02*
D03*
X220000D02*
D03*
Y20000D02*
D03*
D21*
X165900Y139200D02*
D03*
Y126500D02*
D03*
X191300Y259850D02*
D03*
Y247150D02*
D03*
Y234450D02*
D03*
Y221750D02*
D03*
Y209050D02*
D03*
Y196350D02*
D03*
Y183650D02*
D03*
Y170950D02*
D03*
Y158250D02*
D03*
Y145550D02*
D03*
Y132850D02*
D03*
Y120150D02*
D03*
X165900Y113800D02*
D03*
Y151900D02*
D03*
Y164600D02*
D03*
Y177300D02*
D03*
Y190000D02*
D03*
Y202700D02*
D03*
Y215400D02*
D03*
Y228100D02*
D03*
Y240800D02*
D03*
Y253500D02*
D03*
Y266200D02*
D03*
D22*
X14000Y374000D02*
D03*
X20000Y375000D02*
D03*
X31000Y371000D02*
D03*
X26000Y374000D02*
D03*
X34000Y366000D02*
D03*
X35000Y360000D02*
D03*
X34000Y354000D02*
D03*
X31000Y349000D02*
D03*
X234000Y26000D02*
D03*
X235000Y20000D02*
D03*
X231000Y31000D02*
D03*
X226000Y34000D02*
D03*
X209000Y30000D02*
D03*
X214000Y34000D02*
D03*
X220000Y35000D02*
D03*
X207000Y337000D02*
D03*
D03*
X59000Y307000D02*
D03*
D03*
X90000Y120000D02*
D03*
X95000D02*
D03*
X100000D02*
D03*
Y115000D02*
D03*
X80000Y110000D02*
D03*
X85000Y115000D02*
D03*
X100000Y110000D02*
D03*
X35000Y310000D02*
D03*
Y130000D02*
D03*
X206000Y25000D02*
D03*
X234000Y14000D02*
D03*
X231000Y9000D02*
D03*
X226000Y6000D02*
D03*
X214000D02*
D03*
X205000Y19000D02*
D03*
X206000Y14000D02*
D03*
X209000Y9000D02*
D03*
X228000Y69000D02*
D03*
X226000Y57000D02*
D03*
X197000Y44000D02*
D03*
X191000Y46000D02*
D03*
X186000Y50000D02*
D03*
X181000Y60000D02*
D03*
X183000Y55000D02*
D03*
X203000Y43000D02*
D03*
X209000D02*
D03*
X14000Y34000D02*
D03*
X26000D02*
D03*
X20000Y35000D02*
D03*
X9000Y31000D02*
D03*
X31000D02*
D03*
X35000Y21000D02*
D03*
X34000Y15000D02*
D03*
X31000Y10000D02*
D03*
X26000Y6000D02*
D03*
X34000Y26000D02*
D03*
X6000D02*
D03*
Y14000D02*
D03*
X14000Y6000D02*
D03*
X9000Y9000D02*
D03*
X20000Y5000D02*
D03*
X5000Y20000D02*
D03*
X224000Y300000D02*
D03*
X227000Y306000D02*
D03*
X228000Y312000D02*
D03*
X226000Y323000D02*
D03*
X228000Y318000D02*
D03*
X223000Y329000D02*
D03*
X219000Y333000D02*
D03*
X201000Y337000D02*
D03*
X213000Y336000D02*
D03*
X183000Y325000D02*
D03*
X180000Y315000D02*
D03*
X181000Y320000D02*
D03*
X182000Y305000D02*
D03*
X231000Y371000D02*
D03*
X226000Y374000D02*
D03*
X209000Y370000D02*
D03*
X214000Y374000D02*
D03*
X206000Y365000D02*
D03*
X235000Y361000D02*
D03*
X234000Y366000D02*
D03*
Y355000D02*
D03*
X206000D02*
D03*
X209000Y350000D02*
D03*
X231000D02*
D03*
X226000Y346000D02*
D03*
X214000D02*
D03*
X9000Y371000D02*
D03*
X6000Y366000D02*
D03*
X9000Y349000D02*
D03*
X6000Y354000D02*
D03*
X26000Y346000D02*
D03*
X14000D02*
D03*
X90000Y240000D02*
D03*
X85000D02*
D03*
X80000D02*
D03*
X75000D02*
D03*
Y245000D02*
D03*
Y250000D02*
D03*
Y255000D02*
D03*
X100000Y165000D02*
D03*
Y170000D02*
D03*
Y175000D02*
D03*
Y180000D02*
D03*
X95000D02*
D03*
X90000D02*
D03*
X85000D02*
D03*
X80000Y175000D02*
D03*
X75000Y170000D02*
D03*
X95000Y165000D02*
D03*
X90000D02*
D03*
X85000D02*
D03*
D03*
X80000D02*
D03*
X75000D02*
D03*
X70000D02*
D03*
X65000D02*
D03*
X60000D02*
D03*
X75000Y260000D02*
D03*
X70000Y265000D02*
D03*
X66000Y269000D02*
D03*
X61000Y271000D02*
D03*
X56000D02*
D03*
X50000Y270000D02*
D03*
X45000D02*
D03*
X40000D02*
D03*
X35000D02*
D03*
X30000D02*
D03*
Y250000D02*
D03*
X35000D02*
D03*
X40000D02*
D03*
X45000D02*
D03*
X50000D02*
D03*
X55000Y247000D02*
D03*
X60000Y245000D02*
D03*
X65000D02*
D03*
X70000Y240000D02*
D03*
X75000Y235000D02*
D03*
X80000Y230000D02*
D03*
X85000Y225000D02*
D03*
X90000D02*
D03*
X95000Y240000D02*
D03*
Y235000D02*
D03*
Y230000D02*
D03*
Y225000D02*
D03*
X30000Y190000D02*
D03*
X35000D02*
D03*
X45000D02*
D03*
X40000D02*
D03*
X50000D02*
D03*
X55000D02*
D03*
X60000Y195000D02*
D03*
X65000Y200000D02*
D03*
X60000Y205000D02*
D03*
X55000Y210000D02*
D03*
Y205000D02*
D03*
X50000Y210000D02*
D03*
X45000D02*
D03*
X40000D02*
D03*
X35000Y212000D02*
D03*
X30000Y213000D02*
D03*
Y150000D02*
D03*
X35000D02*
D03*
X40000D02*
D03*
X45000D02*
D03*
X50000D02*
D03*
X55000D02*
D03*
X60000D02*
D03*
X65000D02*
D03*
Y145000D02*
D03*
X60000Y140000D02*
D03*
X55000Y135000D02*
D03*
X50000Y130000D02*
D03*
X45000D02*
D03*
X40000D02*
D03*
X30000D02*
D03*
X5000Y360000D02*
D03*
X20000Y345000D02*
D03*
X205000Y360000D02*
D03*
X220000Y375000D02*
D03*
Y345000D02*
D03*
Y5000D02*
D03*
X75000Y305000D02*
D03*
X80000Y300000D02*
D03*
X85000Y295000D02*
D03*
X90000Y290000D02*
D03*
X95000Y285000D02*
D03*
X100000Y280000D02*
D03*
Y285000D02*
D03*
Y290000D02*
D03*
Y295000D02*
D03*
Y300000D02*
D03*
Y305000D02*
D03*
Y310000D02*
D03*
X45000Y90000D02*
D03*
X40000D02*
D03*
X35000D02*
D03*
X30000D02*
D03*
X25000D02*
D03*
Y95000D02*
D03*
Y100000D02*
D03*
Y105000D02*
D03*
Y110000D02*
D03*
Y115000D02*
D03*
Y120000D02*
D03*
Y125000D02*
D03*
Y130000D02*
D03*
Y135000D02*
D03*
Y140000D02*
D03*
Y145000D02*
D03*
Y180000D02*
D03*
Y150000D02*
D03*
Y155000D02*
D03*
Y160000D02*
D03*
Y165000D02*
D03*
Y170000D02*
D03*
Y175000D02*
D03*
Y185000D02*
D03*
Y190000D02*
D03*
Y195000D02*
D03*
Y200000D02*
D03*
Y205000D02*
D03*
Y210000D02*
D03*
Y215000D02*
D03*
Y220000D02*
D03*
Y225000D02*
D03*
Y230000D02*
D03*
Y235000D02*
D03*
Y240000D02*
D03*
Y245000D02*
D03*
Y250000D02*
D03*
Y255000D02*
D03*
Y260000D02*
D03*
Y265000D02*
D03*
Y270000D02*
D03*
Y275000D02*
D03*
Y280000D02*
D03*
Y285000D02*
D03*
Y290000D02*
D03*
Y295000D02*
D03*
Y300000D02*
D03*
Y305000D02*
D03*
Y310000D02*
D03*
X30000D02*
D03*
X40000D02*
D03*
X45000D02*
D03*
X50000D02*
D03*
X55000Y309000D02*
D03*
X64000Y307000D02*
D03*
X70000D02*
D03*
X105000Y310000D02*
D03*
X110000D02*
D03*
X115000D02*
D03*
X120000D02*
D03*
X125000D02*
D03*
X130000D02*
D03*
X135000Y305000D02*
D03*
X140000D02*
D03*
X145000D02*
D03*
X150000D02*
D03*
X155000D02*
D03*
X160000D02*
D03*
X164000Y301000D02*
D03*
X168000Y298000D02*
D03*
X174000Y297000D02*
D03*
X180000D02*
D03*
X185000Y300000D02*
D03*
X180000Y310000D02*
D03*
X186000Y329000D02*
D03*
X190000Y333000D02*
D03*
X195000Y336000D02*
D03*
X222000Y295000D02*
D03*
Y290000D02*
D03*
X230000Y280000D02*
D03*
Y275000D02*
D03*
Y270000D02*
D03*
Y265000D02*
D03*
Y260000D02*
D03*
Y255000D02*
D03*
Y250000D02*
D03*
Y245000D02*
D03*
Y240000D02*
D03*
Y235000D02*
D03*
Y230000D02*
D03*
Y225000D02*
D03*
Y220000D02*
D03*
Y215000D02*
D03*
Y210000D02*
D03*
Y205000D02*
D03*
Y200000D02*
D03*
Y195000D02*
D03*
Y190000D02*
D03*
Y185000D02*
D03*
Y180000D02*
D03*
Y175000D02*
D03*
Y170000D02*
D03*
Y165000D02*
D03*
Y160000D02*
D03*
Y155000D02*
D03*
Y150000D02*
D03*
D03*
Y145000D02*
D03*
Y140000D02*
D03*
Y135000D02*
D03*
Y130000D02*
D03*
Y125000D02*
D03*
Y120000D02*
D03*
Y115000D02*
D03*
Y110000D02*
D03*
Y105000D02*
D03*
Y100000D02*
D03*
Y95000D02*
D03*
X228000Y90000D02*
D03*
X226000Y81000D02*
D03*
X227000Y75000D02*
D03*
X228000Y63000D02*
D03*
X223000Y52000D02*
D03*
X219000Y48000D02*
D03*
X214000Y45000D02*
D03*
X180000Y65000D02*
D03*
Y70000D02*
D03*
Y75000D02*
D03*
Y80000D02*
D03*
X175000D02*
D03*
X170000D02*
D03*
D03*
X165000D02*
D03*
X160000D02*
D03*
X155000D02*
D03*
X150000D02*
D03*
X145000D02*
D03*
X140000D02*
D03*
X135000D02*
D03*
X130000D02*
D03*
X120000Y90000D02*
D03*
X115000D02*
D03*
X110000D02*
D03*
X105000D02*
D03*
X100000D02*
D03*
Y95000D02*
D03*
Y100000D02*
D03*
Y105000D02*
D03*
X75000D02*
D03*
X70000Y100000D02*
D03*
X65000Y95000D02*
D03*
X55000D02*
D03*
X50000Y92000D02*
D03*
X246000Y366000D02*
D03*
Y326000D02*
D03*
Y286000D02*
D03*
Y246000D02*
D03*
Y206000D02*
D03*
Y166000D02*
D03*
Y126000D02*
D03*
Y86000D02*
D03*
Y46000D02*
D03*
X236000Y346000D02*
D03*
Y306000D02*
D03*
X226000Y286000D02*
D03*
X236000Y266000D02*
D03*
Y226000D02*
D03*
Y186000D02*
D03*
Y146000D02*
D03*
Y106000D02*
D03*
X226000Y86000D02*
D03*
X236000Y66000D02*
D03*
X226000Y46000D02*
D03*
X186000Y366000D02*
D03*
X196000Y346000D02*
D03*
Y26000D02*
D03*
X166000Y366000D02*
D03*
X176000Y346000D02*
D03*
X166000Y326000D02*
D03*
X176000Y306000D02*
D03*
Y66000D02*
D03*
X166000Y46000D02*
D03*
X176000Y26000D02*
D03*
X146000Y366000D02*
D03*
X156000Y346000D02*
D03*
X146000Y326000D02*
D03*
X156000Y66000D02*
D03*
X146000Y46000D02*
D03*
X156000Y26000D02*
D03*
X126000Y366000D02*
D03*
X136000Y346000D02*
D03*
X126000Y326000D02*
D03*
Y86000D02*
D03*
X136000Y66000D02*
D03*
X126000Y46000D02*
D03*
X136000Y26000D02*
D03*
X106000Y366000D02*
D03*
X116000Y346000D02*
D03*
X106000Y326000D02*
D03*
Y86000D02*
D03*
X116000Y66000D02*
D03*
X106000Y46000D02*
D03*
X116000Y26000D02*
D03*
X86000Y366000D02*
D03*
X96000Y346000D02*
D03*
X86000Y326000D02*
D03*
Y86000D02*
D03*
X96000Y66000D02*
D03*
X86000Y46000D02*
D03*
X96000Y26000D02*
D03*
X66000Y366000D02*
D03*
X76000Y346000D02*
D03*
X66000Y326000D02*
D03*
Y86000D02*
D03*
X76000Y66000D02*
D03*
X66000Y46000D02*
D03*
X76000Y26000D02*
D03*
X46000Y366000D02*
D03*
X56000Y346000D02*
D03*
X46000Y326000D02*
D03*
X56000Y66000D02*
D03*
X46000Y46000D02*
D03*
X56000Y26000D02*
D03*
X36000Y346000D02*
D03*
X26000Y326000D02*
D03*
X36000Y66000D02*
D03*
X26000Y46000D02*
D03*
X16000Y266000D02*
D03*
Y226000D02*
D03*
Y146000D02*
D03*
Y106000D02*
D03*
Y66000D02*
D03*
D23*
X126000Y180000D02*
D03*
Y160000D02*
D03*
Y170000D02*
D03*
Y220000D02*
D03*
Y240000D02*
D03*
Y230000D02*
D03*
Y110000D02*
D03*
Y120000D02*
D03*
Y100000D02*
D03*
X49000Y290000D02*
D03*
Y300000D02*
D03*
Y280000D02*
D03*
Y220000D02*
D03*
Y230000D02*
D03*
Y240000D02*
D03*
Y160000D02*
D03*
Y180000D02*
D03*
Y120000D02*
D03*
Y100000D02*
D03*
X126000Y300000D02*
D03*
Y290000D02*
D03*
Y280000D02*
D03*
X49000Y170000D02*
D03*
Y110000D02*
D03*
M02*
