M48
;Layer_Color=9474304
;FILE_FORMAT=4:4
METRIC,LZ
;TYPE=PLATED
T01F00S00C0.3000
T02F00S00C0.8000
T03F00S00C2.4000
T04F00S00C2.8000
%
T01
X00009Y00009
X00006Y00014
X00005Y0002
X00006Y00026
X00009Y00031
X00014Y00034
X0002Y00035
X00026Y00034
X00031Y00031
X00034Y00026
X00035Y00021
X00034Y00015
X00031Y0001
X00026Y00006
X0002Y00005
X00014Y00006
X00026Y00046
X00046
X00066
X00086
X00106
X00126
X00136Y00066
X00135Y0008
X0014
X0013
X00126Y00086
X0012Y0009
X00115
X0011
X00105
X001
Y00095
Y001
Y00105
Y0011
Y00115
Y0012
X00095
X0009
X00085Y00115
X0008Y0011
X00075Y00105
X0007Y001
X00065Y00095
X00066Y00086
X00055Y00095
X0005Y00092
X00045Y0009
X0004
X00035
X0003
X00025
Y00095
Y001
Y00105
Y0011
Y00115
Y0012
Y00125
Y0013
X0003
X00035
X0004
X00045
X0005
X00055Y00135
X0006Y0014
X00049Y0012
Y0011
Y001
X00016Y00106
X00025Y00135
Y0014
X00016Y00066
X00036
X00056
X00076
X00096
X00116
X00106Y00086
X00086
X00126Y001
Y0011
Y0012
X00116Y00026
X00136
X00096
X00076
X00056
X00156
X00176
X00196
X00206Y00025
X00205Y00019
X00206Y00014
X00209Y00009
X00214Y00006
X0022Y00005
X00226Y00006
X00231Y00009
X00234Y00014
X00235Y0002
X00234Y00026
X00231Y00031
X00226Y00034
X0022Y00035
X00214Y00034
X00209Y0003
Y00043
X00203
X00197Y00044
X00191Y00046
X00186Y0005
X00183Y00055
X00181Y0006
X0018Y00065
X00176Y00066
X0018Y0007
Y00075
Y0008
X00175
X0017
X00165
X0016
X00155
X0015
X00145
X00156Y00066
X00166Y00046
X00146
X00214Y00045
X00219Y00048
X00223Y00052
X00226Y00057
X00228Y00063
Y00069
X00227Y00075
X00226Y00081
X00226Y00086
X00228Y0009
X0023Y00095
Y001
Y00105
Y0011
Y00115
Y0012
Y00125
Y0013
Y00135
Y0014
X00246Y00126
X00236Y00106
X00246Y00086
X00236Y00066
X00246Y00046
X00226
X0023Y00145
Y0015
Y00155
Y0016
Y00165
Y0017
Y00175
Y0018
Y00185
Y0019
Y00195
Y002
Y00205
Y0021
Y00215
Y0022
Y00225
Y0023
Y00235
Y0024
Y00245
Y0025
Y00255
Y0026
Y00265
Y0027
Y00275
Y0028
X00226Y00286
X00222Y0029
Y00295
X00224Y003
X00227Y00306
X00228Y00312
Y00318
X00226Y00323
X00223Y00329
X00219Y00333
X00213Y00336
X00207Y00337
X00201
X00195Y00336
X0019Y00333
X00186Y00329
X00183Y00325
X00181Y0032
X0018Y00315
Y0031
X00182Y00305
X00176Y00306
X00174Y00297
X0018
X00185Y003
X00168Y00298
X00164Y00301
X0016Y00305
X00155
X0015
X00145
X00146Y00326
X00166
X00176Y00346
X00196
X00209Y0035
X00206Y00355
X00205Y0036
X00206Y00365
X00209Y0037
X00214Y00374
X0022Y00375
X00226Y00374
X00231Y00371
X00234Y00366
X00235Y00361
X00234Y00355
X00231Y0035
X00236Y00346
X00226Y00346
X0022Y00345
X00214Y00346
X00186Y00366
X00166
X00146
X00156Y00346
X00246Y00366
Y00326
X00236Y00306
X00246Y00286
X00236Y00266
X00246Y00246
X00236Y00226
X00246Y00206
X00236Y00186
X00246Y00166
X00236Y00146
X00126Y0016
Y0017
Y0018
X001
Y00175
Y0017
Y00165
X00095
X0009
X00085
X0008
X00075
Y0017
X0007Y00165
X00065
X0006
Y0015
X00065
Y00145
X00055Y0015
X0005
X00045
X0004
X00035
X0003
X00025
Y00155
Y0016
Y00165
Y0017
Y00175
Y0018
Y00185
Y0019
X0003
X00035
X0004
X00045
X0005
X00055
X0006Y00195
X00065Y002
X0006Y00205
X00055
Y0021
X0005
X00045
X0004
X00035Y00212
X0003Y00213
X00025Y00215
Y0021
Y00205
Y002
Y00195
Y0022
Y00225
Y0023
Y00235
Y0024
Y00245
Y0025
X0003
X00035
X0004
X00045
X0005
X00055Y00247
X0006Y00245
X00065
X00075
Y0024
X0008
X00085
X0009
X00095
Y00235
Y0023
Y00225
X0009
X00085
X0008Y0023
X00075Y00235
X0007Y0024
X00075Y0025
Y00255
Y0026
X0007Y00265
X00066Y00269
X00061Y00271
X00056
X0005Y0027
X00045
X0004
X00035
X0003
X00025
Y00265
Y0026
Y00255
Y00275
Y0028
Y00285
Y0029
Y00295
Y003
Y00305
Y0031
X0003
X00035
X0004
X00045
X0005
X00055Y00309
X00059Y00307
X00064
X0007
X00075Y00305
X0008Y003
X00085Y00295
X0009Y0029
X00095Y00285
X001
Y0028
Y0029
Y00295
Y003
Y00305
Y0031
X00105
X0011
X00115
X0012
X00125
X0013
X00135Y00305
X0014
X00126Y003
Y0029
Y0028
Y0024
Y0023
Y0022
X00095Y0018
X0009
X00085
X0008Y00175
X00049Y0018
Y0017
Y0016
X00025Y00145
X00016Y00146
Y00226
X00049Y0023
Y0022
Y0024
Y0028
Y0029
Y003
X00046Y00326
X00066
X00086
X00106
X00126
X00136Y00346
X00116
X00096
X00076
X00056
X00036
X00031Y00349
X00026Y00346
X0002Y00345
X00014Y00346
X00009Y00349
X00006Y00354
X00005Y0036
X00006Y00366
X00009Y00371
X00014Y00374
X0002Y00375
X00026Y00374
X00031Y00371
X00034Y00366
X00035Y0036
X00034Y00354
X00046Y00366
X00066
X00086
X00106
X00126
X00026Y00326
X00016Y00266
T02
X001659Y001138
Y001265
Y001392
X001913Y0013285
Y0012015
Y0014555
Y0015825
Y0017095
Y0018365
Y0019635
Y0020905
Y0022175
Y0023445
Y0024715
Y0025985
X001659Y002535
Y002408
Y002281
Y002154
Y002027
Y0019
Y001773
Y001646
Y001519
Y002662
T03
X0002Y0002
X0022
Y0036
X0002
T04
X00204Y0006745
Y0031255
M30
