G04*
G04 #@! TF.GenerationSoftware,Altium Limited,Altium Designer,23.0.1 (38)*
G04*
G04 Layer_Physical_Order=3*
G04 Layer_Color=16440176*
%FSLAX44Y44*%
%MOMM*%
G71*
G04*
G04 #@! TF.SameCoordinates,DF40126D-40D4-41C7-8A41-B1E1652C26B1*
G04*
G04*
G04 #@! TF.FilePolarity,Positive*
G04*
G01*
G75*
%ADD19C,3.5000*%
%ADD20C,3.0000*%
%ADD21O,1.3000X1.0000*%
%ADD22C,0.3000*%
%ADD23C,0.5000*%
G36*
X260000Y0D02*
X0D01*
Y380000D01*
X260000D01*
Y0D01*
D02*
G37*
%LPC*%
G36*
X205974Y332590D02*
X205270D01*
Y313820D01*
X224040D01*
Y314524D01*
X223270Y318396D01*
X221759Y322043D01*
X219566Y325325D01*
X216775Y328116D01*
X213493Y330309D01*
X209846Y331820D01*
X205974Y332590D01*
D02*
G37*
G36*
X202730D02*
X202026D01*
X198155Y331820D01*
X194508Y330309D01*
X191225Y328116D01*
X188434Y325325D01*
X186241Y322043D01*
X184730Y318396D01*
X183960Y314524D01*
Y313820D01*
X202730D01*
Y332590D01*
D02*
G37*
G36*
X224040Y311280D02*
X205270D01*
Y292510D01*
X205974D01*
X209846Y293280D01*
X213493Y294791D01*
X216775Y296984D01*
X219566Y299775D01*
X221759Y303057D01*
X223270Y306705D01*
X224040Y310576D01*
Y311280D01*
D02*
G37*
G36*
X202730D02*
X183960D01*
Y310576D01*
X184730Y306705D01*
X186241Y303057D01*
X188434Y299775D01*
X191225Y296984D01*
X194508Y294791D01*
X198155Y293280D01*
X202026Y292510D01*
X202730D01*
Y311280D01*
D02*
G37*
G36*
X127002Y303040D02*
X124998D01*
X123145Y302273D01*
X121727Y300855D01*
X120960Y299002D01*
Y296998D01*
X121727Y295145D01*
X122872Y294000D01*
X121727Y292855D01*
X120960Y291003D01*
Y288997D01*
X121727Y287145D01*
X122872Y286000D01*
X121727Y284855D01*
X120960Y283002D01*
Y280998D01*
X121727Y279145D01*
X123145Y277727D01*
X124998Y276960D01*
X127002D01*
X128855Y277727D01*
X130273Y279145D01*
X131040Y280998D01*
Y283002D01*
X130273Y284855D01*
X129128Y286000D01*
X130273Y287145D01*
X131040Y288997D01*
Y291003D01*
X130273Y292855D01*
X129128Y294000D01*
X130273Y295145D01*
X131040Y296998D01*
Y299002D01*
X130273Y300855D01*
X128855Y302273D01*
X127002Y303040D01*
D02*
G37*
G36*
X50002D02*
X47997D01*
X46145Y302273D01*
X44727Y300855D01*
X43960Y299002D01*
Y296998D01*
X44727Y295145D01*
X45872Y294000D01*
X44727Y292855D01*
X43960Y291003D01*
Y288997D01*
X44727Y287145D01*
X45872Y286000D01*
X44727Y284855D01*
X43960Y283002D01*
Y280998D01*
X44727Y279145D01*
X46145Y277727D01*
X47997Y276960D01*
X50002D01*
X51855Y277727D01*
X53273Y279145D01*
X54040Y280998D01*
Y283002D01*
X53273Y284855D01*
X52128Y286000D01*
X53273Y287145D01*
X54040Y288997D01*
Y291003D01*
X53273Y292855D01*
X52128Y294000D01*
X53273Y295145D01*
X54040Y296998D01*
Y299002D01*
X53273Y300855D01*
X51855Y302273D01*
X50002Y303040D01*
D02*
G37*
G36*
Y243040D02*
X47997D01*
X46145Y242273D01*
X44727Y240855D01*
X43960Y239002D01*
Y236998D01*
X44727Y235145D01*
X45872Y234000D01*
X44727Y232855D01*
X43960Y231003D01*
Y228997D01*
X44727Y227145D01*
X45872Y226000D01*
X44727Y224855D01*
X43960Y223002D01*
Y220998D01*
X44727Y219145D01*
X46145Y217727D01*
X47997Y216960D01*
X50002D01*
X51855Y217727D01*
X53273Y219145D01*
X54040Y220998D01*
Y223002D01*
X53273Y224855D01*
X52128Y226000D01*
X53273Y227145D01*
X54040Y228997D01*
Y231003D01*
X53273Y232855D01*
X52128Y234000D01*
X53273Y235145D01*
X54040Y236998D01*
Y239002D01*
X53273Y240855D01*
X51855Y242273D01*
X50002Y243040D01*
D02*
G37*
G36*
Y183040D02*
X47997D01*
X46145Y182273D01*
X44727Y180855D01*
X43960Y179002D01*
Y176998D01*
X44727Y175145D01*
X45872Y174000D01*
X44727Y172855D01*
X43960Y171003D01*
Y168997D01*
X44727Y167145D01*
X45872Y166000D01*
X44727Y164855D01*
X43960Y163002D01*
Y160998D01*
X44727Y159145D01*
X46145Y157727D01*
X47997Y156960D01*
X50002D01*
X51855Y157727D01*
X53273Y159145D01*
X54040Y160998D01*
Y163002D01*
X53273Y164855D01*
X52128Y166000D01*
X53273Y167145D01*
X54040Y168997D01*
Y171003D01*
X53273Y172855D01*
X52128Y174000D01*
X53273Y175145D01*
X54040Y176998D01*
Y179002D01*
X53273Y180855D01*
X51855Y182273D01*
X50002Y183040D01*
D02*
G37*
G36*
X192800Y267455D02*
X189800D01*
X187832Y267196D01*
X185998Y266436D01*
X184422Y265228D01*
X183214Y263653D01*
X182454Y261819D01*
X182195Y259850D01*
X182454Y257882D01*
X183214Y256048D01*
X184422Y254473D01*
X184862Y254135D01*
Y252865D01*
X184422Y252528D01*
X183214Y250953D01*
X182454Y249118D01*
X182195Y247150D01*
X182454Y245182D01*
X183214Y243348D01*
X184422Y241772D01*
X184862Y241435D01*
Y240165D01*
X184422Y239828D01*
X183214Y238253D01*
X182454Y236418D01*
X182195Y234450D01*
X182454Y232482D01*
X183214Y230648D01*
X184422Y229072D01*
X184862Y228735D01*
Y227465D01*
X184422Y227128D01*
X183214Y225553D01*
X182454Y223718D01*
X182195Y221750D01*
X182454Y219782D01*
X183214Y217948D01*
X184422Y216373D01*
X184862Y216035D01*
Y214765D01*
X184422Y214428D01*
X183214Y212853D01*
X182454Y211019D01*
X182195Y209050D01*
X182454Y207082D01*
X183214Y205248D01*
X184422Y203673D01*
X184862Y203335D01*
Y202065D01*
X184422Y201728D01*
X183214Y200153D01*
X182454Y198319D01*
X182195Y196350D01*
X182454Y194382D01*
X183214Y192548D01*
X184422Y190972D01*
X184862Y190635D01*
Y189365D01*
X184422Y189028D01*
X183214Y187453D01*
X182454Y185618D01*
X182195Y183650D01*
X182454Y181682D01*
X183214Y179848D01*
X184422Y178272D01*
X184862Y177935D01*
Y176665D01*
X184422Y176328D01*
X183214Y174753D01*
X182454Y172918D01*
X182195Y170950D01*
X182454Y168982D01*
X183214Y167148D01*
X184422Y165572D01*
X184862Y165235D01*
Y163965D01*
X184422Y163628D01*
X183214Y162053D01*
X182454Y160219D01*
X182195Y158250D01*
X182454Y156282D01*
X183214Y154448D01*
X184422Y152872D01*
X184862Y152535D01*
Y151265D01*
X184422Y150928D01*
X183214Y149353D01*
X182454Y147519D01*
X182195Y145550D01*
X182454Y143582D01*
X183214Y141748D01*
X184422Y140173D01*
X184862Y139835D01*
Y138565D01*
X184422Y138228D01*
X183214Y136653D01*
X182454Y134818D01*
X182195Y132850D01*
X182454Y130882D01*
X183214Y129048D01*
X184422Y127472D01*
X184862Y127135D01*
Y125865D01*
X184422Y125528D01*
X183214Y123953D01*
X182454Y122119D01*
X182195Y120150D01*
X182454Y118182D01*
X183214Y116348D01*
X184422Y114773D01*
X185998Y113564D01*
X187832Y112804D01*
X189800Y112545D01*
X192800D01*
X194768Y112804D01*
X196603Y113564D01*
X198178Y114773D01*
X199386Y116348D01*
X200146Y118182D01*
X200405Y120150D01*
X200146Y122119D01*
X199386Y123953D01*
X198178Y125528D01*
X197738Y125865D01*
Y127135D01*
X198178Y127472D01*
X199386Y129048D01*
X200146Y130882D01*
X200405Y132850D01*
X200146Y134818D01*
X199386Y136653D01*
X198178Y138228D01*
X197738Y138565D01*
Y139835D01*
X198178Y140173D01*
X199386Y141748D01*
X200146Y143582D01*
X200405Y145550D01*
X200146Y147519D01*
X199386Y149353D01*
X198178Y150928D01*
X197738Y151265D01*
Y152535D01*
X198178Y152872D01*
X199386Y154448D01*
X200146Y156282D01*
X200405Y158250D01*
X200146Y160219D01*
X199386Y162053D01*
X198178Y163628D01*
X197738Y163965D01*
Y165235D01*
X198178Y165572D01*
X199386Y167148D01*
X200146Y168982D01*
X200405Y170950D01*
X200146Y172918D01*
X199386Y174753D01*
X198178Y176328D01*
X197738Y176665D01*
Y177935D01*
X198178Y178272D01*
X199386Y179848D01*
X200146Y181682D01*
X200405Y183650D01*
X200146Y185618D01*
X199386Y187453D01*
X198178Y189028D01*
X197738Y189365D01*
Y190635D01*
X198178Y190972D01*
X199386Y192548D01*
X200146Y194382D01*
X200405Y196350D01*
X200146Y198319D01*
X199386Y200153D01*
X198178Y201728D01*
X197738Y202065D01*
Y203335D01*
X198178Y203673D01*
X199386Y205248D01*
X200146Y207082D01*
X200405Y209050D01*
X200146Y211019D01*
X199386Y212853D01*
X198178Y214428D01*
X197738Y214765D01*
Y216035D01*
X198178Y216373D01*
X199386Y217948D01*
X200146Y219782D01*
X200405Y221750D01*
X200146Y223718D01*
X199386Y225553D01*
X198178Y227128D01*
X197738Y227465D01*
Y228735D01*
X198178Y229072D01*
X199386Y230648D01*
X200146Y232482D01*
X200405Y234450D01*
X200146Y236418D01*
X199386Y238253D01*
X198178Y239828D01*
X197738Y240165D01*
Y241435D01*
X198178Y241772D01*
X199386Y243348D01*
X200146Y245182D01*
X200405Y247150D01*
X200146Y249118D01*
X199386Y250953D01*
X198178Y252528D01*
X197738Y252865D01*
Y254135D01*
X198178Y254473D01*
X199386Y256048D01*
X200146Y257882D01*
X200405Y259850D01*
X200146Y261819D01*
X199386Y263653D01*
X198178Y265228D01*
X196603Y266436D01*
X194768Y267196D01*
X192800Y267455D01*
D02*
G37*
G36*
X167400Y273805D02*
X164400D01*
X162432Y273546D01*
X160598Y272786D01*
X159023Y271578D01*
X157814Y270003D01*
X157054Y268169D01*
X156795Y266200D01*
X157054Y264232D01*
X157814Y262398D01*
X159023Y260823D01*
X159462Y260485D01*
Y259215D01*
X159023Y258878D01*
X157814Y257303D01*
X157054Y255469D01*
X156795Y253500D01*
X157054Y251532D01*
X157814Y249698D01*
X159023Y248123D01*
X159462Y247785D01*
Y246515D01*
X159023Y246178D01*
X157814Y244603D01*
X157054Y242768D01*
X156795Y240800D01*
X157054Y238832D01*
X157814Y236998D01*
X159023Y235422D01*
X159462Y235085D01*
Y233815D01*
X159023Y233478D01*
X157814Y231903D01*
X157054Y230068D01*
X156795Y228100D01*
X157054Y226132D01*
X157814Y224298D01*
X159023Y222722D01*
X159462Y222385D01*
Y221115D01*
X159023Y220778D01*
X157814Y219203D01*
X157054Y217369D01*
X156795Y215400D01*
X157054Y213432D01*
X157814Y211598D01*
X159023Y210023D01*
X159462Y209685D01*
Y208415D01*
X159023Y208078D01*
X157814Y206503D01*
X157054Y204669D01*
X156795Y202700D01*
X157054Y200732D01*
X157814Y198898D01*
X159023Y197323D01*
X159462Y196985D01*
Y195715D01*
X159023Y195378D01*
X157814Y193803D01*
X157054Y191968D01*
X156795Y190000D01*
X157054Y188032D01*
X157814Y186198D01*
X159023Y184622D01*
X159462Y184285D01*
Y183015D01*
X159023Y182678D01*
X157814Y181103D01*
X157054Y179268D01*
X156795Y177300D01*
X157054Y175332D01*
X157814Y173498D01*
X159023Y171922D01*
X159462Y171585D01*
Y170315D01*
X159023Y169978D01*
X157814Y168403D01*
X157054Y166569D01*
X156795Y164600D01*
X157054Y162632D01*
X157814Y160798D01*
X159023Y159222D01*
X159462Y158885D01*
Y157615D01*
X159023Y157278D01*
X157814Y155703D01*
X157054Y153869D01*
X156795Y151900D01*
X157054Y149932D01*
X157814Y148098D01*
X159023Y146523D01*
X159462Y146185D01*
Y144915D01*
X159023Y144578D01*
X157814Y143003D01*
X157054Y141168D01*
X156795Y139200D01*
X157054Y137232D01*
X157814Y135398D01*
X159023Y133822D01*
X159462Y133485D01*
Y132215D01*
X159023Y131878D01*
X157814Y130303D01*
X157054Y128469D01*
X156795Y126500D01*
X157054Y124532D01*
X157814Y122698D01*
X159023Y121123D01*
X159462Y120785D01*
Y119515D01*
X159023Y119178D01*
X157814Y117603D01*
X157054Y115768D01*
X156795Y113800D01*
X157054Y111832D01*
X157814Y109998D01*
X159023Y108422D01*
X160598Y107214D01*
X162432Y106454D01*
X164400Y106195D01*
X167400D01*
X169368Y106454D01*
X171203Y107214D01*
X172778Y108422D01*
X173986Y109998D01*
X174746Y111832D01*
X175005Y113800D01*
X174746Y115768D01*
X173986Y117603D01*
X172778Y119178D01*
X172338Y119515D01*
Y120785D01*
X172778Y121123D01*
X173986Y122698D01*
X174746Y124532D01*
X175005Y126500D01*
X174746Y128469D01*
X173986Y130303D01*
X172778Y131878D01*
X172338Y132215D01*
Y133485D01*
X172778Y133822D01*
X173986Y135398D01*
X174746Y137232D01*
X175005Y139200D01*
X174746Y141168D01*
X173986Y143003D01*
X172778Y144578D01*
X172338Y144915D01*
Y146185D01*
X172778Y146523D01*
X173986Y148098D01*
X174746Y149932D01*
X175005Y151900D01*
X174746Y153869D01*
X173986Y155703D01*
X172778Y157278D01*
X172338Y157615D01*
Y158885D01*
X172778Y159222D01*
X173986Y160798D01*
X174746Y162632D01*
X175005Y164600D01*
X174746Y166569D01*
X173986Y168403D01*
X172778Y169978D01*
X172338Y170315D01*
Y171585D01*
X172778Y171922D01*
X173986Y173498D01*
X174746Y175332D01*
X175005Y177300D01*
X174746Y179268D01*
X173986Y181103D01*
X172778Y182678D01*
X172338Y183015D01*
Y184285D01*
X172778Y184622D01*
X173986Y186198D01*
X174746Y188032D01*
X175005Y190000D01*
X174746Y191968D01*
X173986Y193803D01*
X172778Y195378D01*
X172338Y195715D01*
Y196985D01*
X172778Y197323D01*
X173986Y198898D01*
X174746Y200732D01*
X175005Y202700D01*
X174746Y204669D01*
X173986Y206503D01*
X172778Y208078D01*
X172338Y208415D01*
Y209685D01*
X172778Y210023D01*
X173986Y211598D01*
X174746Y213432D01*
X175005Y215400D01*
X174746Y217369D01*
X173986Y219203D01*
X172778Y220778D01*
X172338Y221115D01*
Y222385D01*
X172778Y222722D01*
X173986Y224298D01*
X174746Y226132D01*
X175005Y228100D01*
X174746Y230068D01*
X173986Y231903D01*
X172778Y233478D01*
X172338Y233815D01*
Y235085D01*
X172778Y235422D01*
X173986Y236998D01*
X174746Y238832D01*
X175005Y240800D01*
X174746Y242768D01*
X173986Y244603D01*
X172778Y246178D01*
X172338Y246515D01*
Y247785D01*
X172778Y248123D01*
X173986Y249698D01*
X174746Y251532D01*
X175005Y253500D01*
X174746Y255469D01*
X173986Y257303D01*
X172778Y258878D01*
X172338Y259215D01*
Y260485D01*
X172778Y260823D01*
X173986Y262398D01*
X174746Y264232D01*
X175005Y266200D01*
X174746Y268169D01*
X173986Y270003D01*
X172778Y271578D01*
X171203Y272786D01*
X169368Y273546D01*
X167400Y273805D01*
D02*
G37*
G36*
X127002Y123040D02*
X124998D01*
X123145Y122273D01*
X121727Y120855D01*
X120960Y119003D01*
Y116997D01*
X121727Y115145D01*
X122872Y114000D01*
X121727Y112855D01*
X120960Y111003D01*
Y108997D01*
X121727Y107145D01*
X122872Y106000D01*
X121727Y104855D01*
X120960Y103003D01*
Y100997D01*
X121727Y99145D01*
X123145Y97727D01*
X124998Y96960D01*
X127002D01*
X128855Y97727D01*
X130273Y99145D01*
X131040Y100997D01*
Y103003D01*
X130273Y104855D01*
X129128Y106000D01*
X130273Y107145D01*
X131040Y108997D01*
Y111003D01*
X130273Y112855D01*
X129128Y114000D01*
X130273Y115145D01*
X131040Y116997D01*
Y119003D01*
X130273Y120855D01*
X128855Y122273D01*
X127002Y123040D01*
D02*
G37*
G36*
X50002D02*
X47997D01*
X46145Y122273D01*
X44727Y120855D01*
X43960Y119003D01*
Y116997D01*
X44727Y115145D01*
X45872Y114000D01*
X44727Y112855D01*
X43960Y111003D01*
Y108997D01*
X44727Y107145D01*
X45872Y106000D01*
X44727Y104855D01*
X43960Y103003D01*
Y100997D01*
X44727Y99145D01*
X46145Y97727D01*
X47997Y96960D01*
X50002D01*
X51855Y97727D01*
X53273Y99145D01*
X54040Y100997D01*
Y103003D01*
X53273Y104855D01*
X52128Y106000D01*
X53273Y107145D01*
X54040Y108997D01*
Y111003D01*
X53273Y112855D01*
X52128Y114000D01*
X53273Y115145D01*
X54040Y116997D01*
Y119003D01*
X53273Y120855D01*
X51855Y122273D01*
X50002Y123040D01*
D02*
G37*
G36*
X205974Y87490D02*
X205270D01*
Y68720D01*
X224040D01*
Y69424D01*
X223270Y73296D01*
X221759Y76943D01*
X219566Y80225D01*
X216775Y83016D01*
X213493Y85209D01*
X209846Y86720D01*
X205974Y87490D01*
D02*
G37*
G36*
X202730D02*
X202026D01*
X198155Y86720D01*
X194508Y85209D01*
X191225Y83016D01*
X188434Y80225D01*
X186241Y76943D01*
X184730Y73296D01*
X183960Y69424D01*
Y68720D01*
X202730D01*
Y87490D01*
D02*
G37*
G36*
X224040Y66180D02*
X205270D01*
Y47410D01*
X205974D01*
X209846Y48180D01*
X213493Y49691D01*
X216775Y51884D01*
X219566Y54675D01*
X221759Y57958D01*
X223270Y61605D01*
X224040Y65476D01*
Y66180D01*
D02*
G37*
G36*
X202730D02*
X183960D01*
Y65476D01*
X184730Y61605D01*
X186241Y57958D01*
X188434Y54675D01*
X191225Y51884D01*
X194508Y49691D01*
X198155Y48180D01*
X202026Y47410D01*
X202730D01*
Y66180D01*
D02*
G37*
%LPD*%
D19*
X204000Y67450D02*
D03*
Y312550D02*
D03*
D20*
X20000Y20000D02*
D03*
Y360000D02*
D03*
X220000D02*
D03*
Y20000D02*
D03*
D21*
X165900Y139200D02*
D03*
Y126500D02*
D03*
X191300Y259850D02*
D03*
Y247150D02*
D03*
Y234450D02*
D03*
Y221750D02*
D03*
Y209050D02*
D03*
Y196350D02*
D03*
Y183650D02*
D03*
Y170950D02*
D03*
Y158250D02*
D03*
Y145550D02*
D03*
Y132850D02*
D03*
Y120150D02*
D03*
X165900Y113800D02*
D03*
Y151900D02*
D03*
Y164600D02*
D03*
Y177300D02*
D03*
Y190000D02*
D03*
Y202700D02*
D03*
Y215400D02*
D03*
Y228100D02*
D03*
Y240800D02*
D03*
Y253500D02*
D03*
Y266200D02*
D03*
D22*
X246000Y366000D02*
D03*
Y326000D02*
D03*
Y286000D02*
D03*
Y246000D02*
D03*
Y206000D02*
D03*
Y166000D02*
D03*
Y126000D02*
D03*
Y86000D02*
D03*
Y46000D02*
D03*
X236000Y346000D02*
D03*
X226000Y326000D02*
D03*
X236000Y306000D02*
D03*
X226000Y286000D02*
D03*
X236000Y266000D02*
D03*
Y226000D02*
D03*
Y186000D02*
D03*
Y146000D02*
D03*
Y106000D02*
D03*
X226000Y86000D02*
D03*
X236000Y66000D02*
D03*
X226000Y46000D02*
D03*
X186000Y366000D02*
D03*
X196000Y346000D02*
D03*
X186000Y326000D02*
D03*
Y46000D02*
D03*
X196000Y26000D02*
D03*
X166000Y366000D02*
D03*
X176000Y346000D02*
D03*
X166000Y326000D02*
D03*
X176000Y306000D02*
D03*
Y66000D02*
D03*
X166000Y46000D02*
D03*
X176000Y26000D02*
D03*
X146000Y366000D02*
D03*
X156000Y346000D02*
D03*
X146000Y326000D02*
D03*
X156000Y306000D02*
D03*
Y66000D02*
D03*
X146000Y46000D02*
D03*
X156000Y26000D02*
D03*
X126000Y366000D02*
D03*
X136000Y346000D02*
D03*
X126000Y326000D02*
D03*
X136000Y306000D02*
D03*
X126000Y86000D02*
D03*
X136000Y66000D02*
D03*
X126000Y46000D02*
D03*
X136000Y26000D02*
D03*
X106000Y366000D02*
D03*
X116000Y346000D02*
D03*
X106000Y326000D02*
D03*
Y86000D02*
D03*
X116000Y66000D02*
D03*
X106000Y46000D02*
D03*
X116000Y26000D02*
D03*
X86000Y366000D02*
D03*
X96000Y346000D02*
D03*
X86000Y326000D02*
D03*
X96000Y306000D02*
D03*
Y186000D02*
D03*
X86000Y86000D02*
D03*
X96000Y66000D02*
D03*
X86000Y46000D02*
D03*
X96000Y26000D02*
D03*
X66000Y366000D02*
D03*
X76000Y346000D02*
D03*
X66000Y326000D02*
D03*
X76000Y306000D02*
D03*
X66000Y246000D02*
D03*
X76000Y186000D02*
D03*
X66000Y86000D02*
D03*
X76000Y66000D02*
D03*
X66000Y46000D02*
D03*
X76000Y26000D02*
D03*
X46000Y366000D02*
D03*
X56000Y346000D02*
D03*
X46000Y326000D02*
D03*
X56000Y266000D02*
D03*
X46000Y206000D02*
D03*
X56000Y186000D02*
D03*
Y146000D02*
D03*
X46000Y86000D02*
D03*
X56000Y66000D02*
D03*
X46000Y46000D02*
D03*
X56000Y26000D02*
D03*
X36000Y346000D02*
D03*
X26000Y326000D02*
D03*
X36000Y266000D02*
D03*
X26000Y246000D02*
D03*
Y206000D02*
D03*
X36000Y146000D02*
D03*
X26000Y126000D02*
D03*
Y86000D02*
D03*
X36000Y66000D02*
D03*
X26000Y46000D02*
D03*
X16000Y266000D02*
D03*
Y226000D02*
D03*
Y146000D02*
D03*
Y106000D02*
D03*
Y66000D02*
D03*
D23*
X126000Y110000D02*
D03*
Y118000D02*
D03*
Y102000D02*
D03*
X49000Y290000D02*
D03*
Y298000D02*
D03*
Y282000D02*
D03*
Y222000D02*
D03*
Y230000D02*
D03*
Y238000D02*
D03*
Y162000D02*
D03*
Y178000D02*
D03*
Y118000D02*
D03*
Y102000D02*
D03*
X126000Y298000D02*
D03*
Y290000D02*
D03*
Y282000D02*
D03*
X49000Y170000D02*
D03*
Y110000D02*
D03*
M02*
