M48
;Layer_Color=9474304
;FILE_FORMAT=4:4
METRIC,LZ
;TYPE=PLATED
T1F00S00C0.3000
T2F00S00C0.8000
T3F00S00C2.4000
T4F00S00C2.8000
%
T01
X00026Y00046
X00046
X00066
X00086
X00106
X00126
X00136Y00066
X00116
X00096
X00076
X00056
X00036
X00016
X00026Y00086
X00046
X00049Y00102
Y0011
Y00118
X00026Y00126
X00016Y00106
X00066Y00086
X00086
X00106
X00126
X00126Y00102
Y0011
Y00118
X00116Y00026
X00136
X00096
X00076
X00056
X00156
X00176
X00196
X00186Y00046
X00166
X00146
X00156Y00066
X00176
X00236
X00246Y00086
X00226
X00236Y00106
X00246Y00126
Y00046
X00226
X00236Y00146
X00246Y00166
X00236Y00186
X00246Y00206
X00236Y00226
X00246Y00246
X00236Y00266
X00246Y00286
X00226
X00236Y00306
X00246Y00326
X00226
X00236Y00346
X00246Y00366
X00186
X00166
X00146
X00156Y00346
X00176
X00196
X00186Y00326
X00166
X00146
X00156Y00306
X00176
X00136
X00126Y00298
Y0029
Y00282
X00126Y00326
X00106
X00086
X00066
X00046
X00026
X00036Y00346
X00056
X00076
X00096
X00116
X00136
X00126Y00366
X00106
X00086
X00066
X00046
X00049Y00298
Y0029
Y00282
X00056Y00266
X00036
X00016
X00026Y00246
X00016Y00226
X00026Y00206
X00046
X00049Y00222
Y0023
Y00238
X00066Y00246
X00076Y00306
X00096
Y00186
X00076
X00056
X00049Y00178
Y0017
Y00162
X00056Y00146
X00036
X00016
T02
X001659Y001138
Y001265
Y001392
X001913Y0013285
Y0012015
Y0014555
Y0015825
Y0017095
Y0018365
Y0019635
Y0020905
Y0022175
Y0023445
Y0024715
Y0025985
X001659Y002535
Y002408
Y002281
Y002154
Y002027
Y0019
Y001773
Y001646
Y001519
Y002662
T03
X0002Y0002
X0022
Y0036
X0002
T04
X00204Y0006745
Y0031255
M30
