G04*
G04 #@! TF.GenerationSoftware,Altium Limited,Altium Designer,25.8.1 (18)*
G04*
G04 Layer_Color=8421504*
%FSLAX44Y44*%
%MOMM*%
G71*
G04*
G04 #@! TF.SameCoordinates,45B643EA-730A-4FF9-8589-E9E9826B77D5*
G04*
G04*
G04 #@! TF.FilePolarity,Positive*
G04*
G01*
G75*
%ADD13R,1.0000X0.3000*%
%ADD14R,0.7000X0.3000*%
D13*
X86500Y92100D02*
D03*
Y127900D02*
D03*
Y212100D02*
D03*
Y247900D02*
D03*
Y152100D02*
D03*
Y187900D02*
D03*
X9500Y92100D02*
D03*
Y127900D02*
D03*
Y212100D02*
D03*
Y247900D02*
D03*
X86500Y272100D02*
D03*
Y307900D02*
D03*
X9500Y152100D02*
D03*
Y187900D02*
D03*
Y272100D02*
D03*
Y307900D02*
D03*
D14*
X113000Y100000D02*
D03*
Y105000D02*
D03*
Y110000D02*
D03*
Y115000D02*
D03*
Y120000D02*
D03*
Y220000D02*
D03*
Y225000D02*
D03*
Y230000D02*
D03*
Y235000D02*
D03*
Y240000D02*
D03*
Y160000D02*
D03*
Y165000D02*
D03*
Y170000D02*
D03*
Y175000D02*
D03*
Y180000D02*
D03*
X36000Y290000D02*
D03*
Y285000D02*
D03*
Y175000D02*
D03*
Y170000D02*
D03*
Y165000D02*
D03*
Y235000D02*
D03*
Y230000D02*
D03*
Y225000D02*
D03*
Y115000D02*
D03*
Y110000D02*
D03*
Y105000D02*
D03*
X113000Y295000D02*
D03*
Y290000D02*
D03*
Y285000D02*
D03*
X36000Y100000D02*
D03*
Y120000D02*
D03*
Y220000D02*
D03*
Y240000D02*
D03*
X113000Y280000D02*
D03*
Y300000D02*
D03*
X36000Y160000D02*
D03*
Y180000D02*
D03*
Y280000D02*
D03*
Y295000D02*
D03*
Y300000D02*
D03*
M02*
