G04*
G04 #@! TF.GenerationSoftware,Altium Limited,Altium Designer,23.0.1 (38)*
G04*
G04 Layer_Physical_Order=2*
G04 Layer_Color=16711680*
%FSLAX44Y44*%
%MOMM*%
G71*
G04*
G04 #@! TF.SameCoordinates,77598452-6EEF-467D-88AB-35516A647B29*
G04*
G04*
G04 #@! TF.FilePolarity,Positive*
G04*
G01*
G75*
%ADD20C,3.0000*%
%ADD21C,3.5000*%
%ADD22O,1.3000X1.0000*%
%ADD23C,0.3000*%
G36*
X260000Y0D02*
X0D01*
Y380000D01*
X260000D01*
Y0D01*
D02*
G37*
%LPC*%
G36*
X192800Y267455D02*
X192570D01*
Y261120D01*
X200238D01*
X200146Y261819D01*
X199386Y263653D01*
X198178Y265228D01*
X196603Y266436D01*
X194768Y267196D01*
X192800Y267455D01*
D02*
G37*
G36*
X190030D02*
X189800D01*
X187832Y267196D01*
X185998Y266436D01*
X184422Y265228D01*
X183214Y263653D01*
X182454Y261819D01*
X182362Y261120D01*
X190030D01*
Y267455D01*
D02*
G37*
G36*
X200238Y258580D02*
X191300D01*
X182362D01*
X182454Y257882D01*
X183214Y256048D01*
X184422Y254473D01*
X184862Y254135D01*
Y252865D01*
X184422Y252528D01*
X183214Y250953D01*
X182454Y249118D01*
X182362Y248420D01*
X191300D01*
X200238D01*
X200146Y249118D01*
X199386Y250953D01*
X198178Y252528D01*
X197738Y252865D01*
Y254135D01*
X198178Y254473D01*
X199386Y256048D01*
X200146Y257882D01*
X200238Y258580D01*
D02*
G37*
G36*
Y245880D02*
X191300D01*
X182362D01*
X182454Y245182D01*
X183214Y243348D01*
X184422Y241772D01*
X184862Y241435D01*
Y240165D01*
X184422Y239828D01*
X183214Y238253D01*
X182454Y236418D01*
X182362Y235720D01*
X191300D01*
X200238D01*
X200146Y236418D01*
X199386Y238253D01*
X198178Y239828D01*
X197738Y240165D01*
Y241435D01*
X198178Y241772D01*
X199386Y243348D01*
X200146Y245182D01*
X200238Y245880D01*
D02*
G37*
G36*
Y233180D02*
X191300D01*
X182362D01*
X182454Y232482D01*
X183214Y230648D01*
X184422Y229072D01*
X184862Y228735D01*
Y227465D01*
X184422Y227128D01*
X183214Y225553D01*
X182454Y223718D01*
X182362Y223020D01*
X191300D01*
X200238D01*
X200146Y223718D01*
X199386Y225553D01*
X198178Y227128D01*
X197738Y227465D01*
Y228735D01*
X198178Y229072D01*
X199386Y230648D01*
X200146Y232482D01*
X200238Y233180D01*
D02*
G37*
G36*
Y220480D02*
X191300D01*
X182362D01*
X182454Y219782D01*
X183214Y217948D01*
X184422Y216373D01*
X184862Y216035D01*
Y214765D01*
X184422Y214428D01*
X183214Y212853D01*
X182454Y211019D01*
X182362Y210320D01*
X191300D01*
X200238D01*
X200146Y211019D01*
X199386Y212853D01*
X198178Y214428D01*
X197738Y214765D01*
Y216035D01*
X198178Y216373D01*
X199386Y217948D01*
X200146Y219782D01*
X200238Y220480D01*
D02*
G37*
G36*
Y207780D02*
X191300D01*
X182362D01*
X182454Y207082D01*
X183214Y205248D01*
X184422Y203673D01*
X184862Y203335D01*
Y202065D01*
X184422Y201728D01*
X183214Y200153D01*
X182454Y198319D01*
X182362Y197620D01*
X191300D01*
X200238D01*
X200146Y198319D01*
X199386Y200153D01*
X198178Y201728D01*
X197738Y202065D01*
Y203335D01*
X198178Y203673D01*
X199386Y205248D01*
X200146Y207082D01*
X200238Y207780D01*
D02*
G37*
G36*
Y195080D02*
X191300D01*
X182362D01*
X182454Y194382D01*
X183214Y192548D01*
X184422Y190972D01*
X184862Y190635D01*
Y189365D01*
X184422Y189028D01*
X183214Y187453D01*
X182454Y185618D01*
X182362Y184920D01*
X191300D01*
X200238D01*
X200146Y185618D01*
X199386Y187453D01*
X198178Y189028D01*
X197738Y189365D01*
Y190635D01*
X198178Y190972D01*
X199386Y192548D01*
X200146Y194382D01*
X200238Y195080D01*
D02*
G37*
G36*
Y182380D02*
X191300D01*
X182362D01*
X182454Y181682D01*
X183214Y179848D01*
X184422Y178272D01*
X184862Y177935D01*
Y176665D01*
X184422Y176328D01*
X183214Y174753D01*
X182454Y172918D01*
X182362Y172220D01*
X191300D01*
X200238D01*
X200146Y172918D01*
X199386Y174753D01*
X198178Y176328D01*
X197738Y176665D01*
Y177935D01*
X198178Y178272D01*
X199386Y179848D01*
X200146Y181682D01*
X200238Y182380D01*
D02*
G37*
G36*
Y169680D02*
X191300D01*
X182362D01*
X182454Y168982D01*
X183214Y167148D01*
X184422Y165572D01*
X184862Y165235D01*
Y163965D01*
X184422Y163628D01*
X183214Y162053D01*
X182454Y160219D01*
X182362Y159520D01*
X191300D01*
X200238D01*
X200146Y160219D01*
X199386Y162053D01*
X198178Y163628D01*
X197738Y163965D01*
Y165235D01*
X198178Y165572D01*
X199386Y167148D01*
X200146Y168982D01*
X200238Y169680D01*
D02*
G37*
G36*
Y156980D02*
X191300D01*
X182362D01*
X182454Y156282D01*
X183214Y154448D01*
X184422Y152872D01*
X184862Y152535D01*
Y151265D01*
X184422Y150928D01*
X183214Y149353D01*
X182454Y147519D01*
X182362Y146820D01*
X191300D01*
X200238D01*
X200146Y147519D01*
X199386Y149353D01*
X198178Y150928D01*
X197738Y151265D01*
Y152535D01*
X198178Y152872D01*
X199386Y154448D01*
X200146Y156282D01*
X200238Y156980D01*
D02*
G37*
G36*
X167400Y273805D02*
X164400D01*
X162432Y273546D01*
X160598Y272786D01*
X159023Y271578D01*
X157814Y270003D01*
X157054Y268169D01*
X156795Y266200D01*
X157054Y264232D01*
X157814Y262398D01*
X159023Y260823D01*
X159462Y260485D01*
Y259215D01*
X159023Y258878D01*
X157814Y257303D01*
X157054Y255469D01*
X156795Y253500D01*
X157054Y251532D01*
X157814Y249698D01*
X159023Y248123D01*
X159462Y247785D01*
Y246515D01*
X159023Y246178D01*
X157814Y244603D01*
X157054Y242768D01*
X156795Y240800D01*
X157054Y238832D01*
X157814Y236998D01*
X159023Y235422D01*
X159462Y235085D01*
Y233815D01*
X159023Y233478D01*
X157814Y231903D01*
X157054Y230068D01*
X156795Y228100D01*
X157054Y226132D01*
X157814Y224298D01*
X159023Y222722D01*
X159462Y222385D01*
Y221115D01*
X159023Y220778D01*
X157814Y219203D01*
X157054Y217369D01*
X156795Y215400D01*
X157054Y213432D01*
X157814Y211598D01*
X159023Y210023D01*
X159462Y209685D01*
Y208415D01*
X159023Y208078D01*
X157814Y206503D01*
X157054Y204669D01*
X156795Y202700D01*
X157054Y200732D01*
X157814Y198898D01*
X159023Y197323D01*
X159462Y196985D01*
Y195715D01*
X159023Y195378D01*
X157814Y193803D01*
X157054Y191968D01*
X156795Y190000D01*
X157054Y188032D01*
X157814Y186198D01*
X159023Y184622D01*
X159462Y184285D01*
Y183015D01*
X159023Y182678D01*
X157814Y181103D01*
X157054Y179268D01*
X156795Y177300D01*
X157054Y175332D01*
X157814Y173498D01*
X159023Y171922D01*
X159462Y171585D01*
Y170315D01*
X159023Y169978D01*
X157814Y168403D01*
X157054Y166569D01*
X156795Y164600D01*
X157054Y162632D01*
X157814Y160798D01*
X159023Y159222D01*
X159462Y158885D01*
Y157615D01*
X159023Y157278D01*
X157814Y155703D01*
X157054Y153869D01*
X156795Y151900D01*
X157054Y149932D01*
X157814Y148098D01*
X159023Y146523D01*
X159462Y146185D01*
Y144915D01*
X159023Y144578D01*
X157814Y143003D01*
X157054Y141168D01*
X156962Y140470D01*
X165900D01*
X174838D01*
X174746Y141168D01*
X173986Y143003D01*
X172778Y144578D01*
X172338Y144915D01*
Y146185D01*
X172778Y146523D01*
X173986Y148098D01*
X174746Y149932D01*
X175005Y151900D01*
X174746Y153869D01*
X173986Y155703D01*
X172778Y157278D01*
X172338Y157615D01*
Y158885D01*
X172778Y159222D01*
X173986Y160798D01*
X174746Y162632D01*
X175005Y164600D01*
X174746Y166569D01*
X173986Y168403D01*
X172778Y169978D01*
X172338Y170315D01*
Y171585D01*
X172778Y171922D01*
X173986Y173498D01*
X174746Y175332D01*
X175005Y177300D01*
X174746Y179268D01*
X173986Y181103D01*
X172778Y182678D01*
X172338Y183015D01*
Y184285D01*
X172778Y184622D01*
X173986Y186198D01*
X174746Y188032D01*
X175005Y190000D01*
X174746Y191968D01*
X173986Y193803D01*
X172778Y195378D01*
X172338Y195715D01*
Y196985D01*
X172778Y197323D01*
X173986Y198898D01*
X174746Y200732D01*
X175005Y202700D01*
X174746Y204669D01*
X173986Y206503D01*
X172778Y208078D01*
X172338Y208415D01*
Y209685D01*
X172778Y210023D01*
X173986Y211598D01*
X174746Y213432D01*
X175005Y215400D01*
X174746Y217369D01*
X173986Y219203D01*
X172778Y220778D01*
X172338Y221115D01*
Y222385D01*
X172778Y222722D01*
X173986Y224298D01*
X174746Y226132D01*
X175005Y228100D01*
X174746Y230068D01*
X173986Y231903D01*
X172778Y233478D01*
X172338Y233815D01*
Y235085D01*
X172778Y235422D01*
X173986Y236998D01*
X174746Y238832D01*
X175005Y240800D01*
X174746Y242768D01*
X173986Y244603D01*
X172778Y246178D01*
X172338Y246515D01*
Y247785D01*
X172778Y248123D01*
X173986Y249698D01*
X174746Y251532D01*
X175005Y253500D01*
X174746Y255469D01*
X173986Y257303D01*
X172778Y258878D01*
X172338Y259215D01*
Y260485D01*
X172778Y260823D01*
X173986Y262398D01*
X174746Y264232D01*
X175005Y266200D01*
X174746Y268169D01*
X173986Y270003D01*
X172778Y271578D01*
X171203Y272786D01*
X169368Y273546D01*
X167400Y273805D01*
D02*
G37*
G36*
X200238Y144280D02*
X191300D01*
X182362D01*
X182454Y143582D01*
X183214Y141748D01*
X184422Y140173D01*
X184862Y139835D01*
Y138565D01*
X184422Y138228D01*
X183214Y136653D01*
X182454Y134818D01*
X182362Y134120D01*
X191300D01*
X200238D01*
X200146Y134818D01*
X199386Y136653D01*
X198178Y138228D01*
X197738Y138565D01*
Y139835D01*
X198178Y140173D01*
X199386Y141748D01*
X200146Y143582D01*
X200238Y144280D01*
D02*
G37*
G36*
X174838Y137930D02*
X165900D01*
X156962D01*
X157054Y137232D01*
X157814Y135398D01*
X159023Y133822D01*
X159462Y133485D01*
Y132215D01*
X159023Y131878D01*
X157814Y130303D01*
X157054Y128469D01*
X156962Y127770D01*
X165900D01*
X174838D01*
X174746Y128469D01*
X173986Y130303D01*
X172778Y131878D01*
X172338Y132215D01*
Y133485D01*
X172778Y133822D01*
X173986Y135398D01*
X174746Y137232D01*
X174838Y137930D01*
D02*
G37*
G36*
X200238Y131580D02*
X191300D01*
X182362D01*
X182454Y130882D01*
X183214Y129048D01*
X184422Y127472D01*
X184862Y127135D01*
Y125865D01*
X184422Y125528D01*
X183214Y123953D01*
X182454Y122119D01*
X182362Y121420D01*
X191300D01*
X200238D01*
X200146Y122119D01*
X199386Y123953D01*
X198178Y125528D01*
X197738Y125865D01*
Y127135D01*
X198178Y127472D01*
X199386Y129048D01*
X200146Y130882D01*
X200238Y131580D01*
D02*
G37*
G36*
Y118880D02*
X192570D01*
Y112545D01*
X192800D01*
X194768Y112804D01*
X196603Y113564D01*
X198178Y114773D01*
X199386Y116348D01*
X200146Y118182D01*
X200238Y118880D01*
D02*
G37*
G36*
X190030D02*
X182362D01*
X182454Y118182D01*
X183214Y116348D01*
X184422Y114773D01*
X185998Y113564D01*
X187832Y112804D01*
X189800Y112545D01*
X190030D01*
Y118880D01*
D02*
G37*
G36*
X174838Y125230D02*
X165900D01*
X156962D01*
X157054Y124532D01*
X157814Y122698D01*
X159023Y121123D01*
X159462Y120785D01*
Y119515D01*
X159023Y119178D01*
X157814Y117603D01*
X157054Y115768D01*
X156795Y113800D01*
X157054Y111832D01*
X157814Y109998D01*
X159023Y108422D01*
X160598Y107214D01*
X162432Y106454D01*
X164400Y106195D01*
X167400D01*
X169368Y106454D01*
X171203Y107214D01*
X172778Y108422D01*
X173986Y109998D01*
X174746Y111832D01*
X175005Y113800D01*
X174746Y115768D01*
X173986Y117603D01*
X172778Y119178D01*
X172338Y119515D01*
Y120785D01*
X172778Y121123D01*
X173986Y122698D01*
X174746Y124532D01*
X174838Y125230D01*
D02*
G37*
%LPD*%
D20*
X220000Y20000D02*
D03*
Y360000D02*
D03*
X20000D02*
D03*
Y20000D02*
D03*
D21*
X204000Y312550D02*
D03*
Y67450D02*
D03*
D22*
X191300Y120150D02*
D03*
Y132850D02*
D03*
Y145550D02*
D03*
Y158250D02*
D03*
Y170950D02*
D03*
Y183650D02*
D03*
Y196350D02*
D03*
Y209050D02*
D03*
Y221750D02*
D03*
Y234450D02*
D03*
Y247150D02*
D03*
Y259850D02*
D03*
X165900Y113800D02*
D03*
Y126500D02*
D03*
Y139200D02*
D03*
Y151900D02*
D03*
Y164600D02*
D03*
Y177300D02*
D03*
Y190000D02*
D03*
Y202700D02*
D03*
Y215400D02*
D03*
Y228100D02*
D03*
Y240800D02*
D03*
Y253500D02*
D03*
Y266200D02*
D03*
D23*
X46000Y86000D02*
D03*
X36000D02*
D03*
X246000Y366000D02*
D03*
X251000Y356000D02*
D03*
X246000Y346000D02*
D03*
X251000Y336000D02*
D03*
X246000Y326000D02*
D03*
X251000Y316000D02*
D03*
X246000Y306000D02*
D03*
X251000Y296000D02*
D03*
X246000Y286000D02*
D03*
X251000Y276000D02*
D03*
X246000Y266000D02*
D03*
X251000Y256000D02*
D03*
X246000Y246000D02*
D03*
X251000Y236000D02*
D03*
X246000Y226000D02*
D03*
X251000Y216000D02*
D03*
X246000Y206000D02*
D03*
X251000Y196000D02*
D03*
X246000Y186000D02*
D03*
X251000Y176000D02*
D03*
X246000Y166000D02*
D03*
X251000Y156000D02*
D03*
X246000Y146000D02*
D03*
X251000Y136000D02*
D03*
X246000Y126000D02*
D03*
X251000Y116000D02*
D03*
X246000Y106000D02*
D03*
X251000Y96000D02*
D03*
X246000Y86000D02*
D03*
X251000Y76000D02*
D03*
X246000Y66000D02*
D03*
X251000Y56000D02*
D03*
X246000Y46000D02*
D03*
X251000Y36000D02*
D03*
X246000Y26000D02*
D03*
X251000Y16000D02*
D03*
X246000Y6000D02*
D03*
X241000Y356000D02*
D03*
X236000Y346000D02*
D03*
X241000Y336000D02*
D03*
X236000Y326000D02*
D03*
X241000Y316000D02*
D03*
X236000Y306000D02*
D03*
X241000Y296000D02*
D03*
X236000Y286000D02*
D03*
X241000Y276000D02*
D03*
X236000Y266000D02*
D03*
X241000Y256000D02*
D03*
X236000Y246000D02*
D03*
X241000Y236000D02*
D03*
X236000Y226000D02*
D03*
X241000Y216000D02*
D03*
X236000Y206000D02*
D03*
X241000Y196000D02*
D03*
X236000Y186000D02*
D03*
X241000Y176000D02*
D03*
X236000Y166000D02*
D03*
X241000Y156000D02*
D03*
X236000Y146000D02*
D03*
X241000Y136000D02*
D03*
X236000Y126000D02*
D03*
X241000Y116000D02*
D03*
X236000Y106000D02*
D03*
X241000Y96000D02*
D03*
X236000Y86000D02*
D03*
X241000Y76000D02*
D03*
X236000Y66000D02*
D03*
X241000Y56000D02*
D03*
X236000Y46000D02*
D03*
X241000Y36000D02*
D03*
Y16000D02*
D03*
X236000Y6000D02*
D03*
X231000Y336000D02*
D03*
X226000Y326000D02*
D03*
X231000Y316000D02*
D03*
X226000Y306000D02*
D03*
X231000Y296000D02*
D03*
X226000Y286000D02*
D03*
X231000Y276000D02*
D03*
X226000Y266000D02*
D03*
X231000Y256000D02*
D03*
X226000Y246000D02*
D03*
X231000Y236000D02*
D03*
X226000Y226000D02*
D03*
X231000Y216000D02*
D03*
X226000Y206000D02*
D03*
X231000Y196000D02*
D03*
X226000Y186000D02*
D03*
X231000Y176000D02*
D03*
X226000Y166000D02*
D03*
X231000Y156000D02*
D03*
X226000Y146000D02*
D03*
X231000Y136000D02*
D03*
X226000Y126000D02*
D03*
X231000Y116000D02*
D03*
X226000Y106000D02*
D03*
X231000Y96000D02*
D03*
X226000Y86000D02*
D03*
X231000Y76000D02*
D03*
X226000Y66000D02*
D03*
X231000Y56000D02*
D03*
X226000Y46000D02*
D03*
X231000Y36000D02*
D03*
X221000Y336000D02*
D03*
Y296000D02*
D03*
X216000Y286000D02*
D03*
X221000Y276000D02*
D03*
X216000Y266000D02*
D03*
X221000Y256000D02*
D03*
X216000Y246000D02*
D03*
X221000Y236000D02*
D03*
X216000Y226000D02*
D03*
X221000Y216000D02*
D03*
X216000Y206000D02*
D03*
X221000Y196000D02*
D03*
X216000Y186000D02*
D03*
X221000Y176000D02*
D03*
X216000Y166000D02*
D03*
X221000Y156000D02*
D03*
X216000Y146000D02*
D03*
X221000Y136000D02*
D03*
X216000Y126000D02*
D03*
X221000Y116000D02*
D03*
X216000Y106000D02*
D03*
X221000Y96000D02*
D03*
X216000Y86000D02*
D03*
X221000Y56000D02*
D03*
X216000Y46000D02*
D03*
X206000Y346000D02*
D03*
X211000Y336000D02*
D03*
X206000Y286000D02*
D03*
X211000Y276000D02*
D03*
X206000Y266000D02*
D03*
X211000Y256000D02*
D03*
X206000Y246000D02*
D03*
X211000Y236000D02*
D03*
X206000Y226000D02*
D03*
X211000Y216000D02*
D03*
X206000Y206000D02*
D03*
X211000Y196000D02*
D03*
X206000Y186000D02*
D03*
X211000Y176000D02*
D03*
X206000Y166000D02*
D03*
X211000Y156000D02*
D03*
X206000Y146000D02*
D03*
X211000Y136000D02*
D03*
X206000Y126000D02*
D03*
X211000Y116000D02*
D03*
X206000Y106000D02*
D03*
X211000Y96000D02*
D03*
X206000Y46000D02*
D03*
X211000Y36000D02*
D03*
X206000Y6000D02*
D03*
X196000Y366000D02*
D03*
X201000Y356000D02*
D03*
X196000Y346000D02*
D03*
X201000Y336000D02*
D03*
X196000Y286000D02*
D03*
X201000Y276000D02*
D03*
X196000Y106000D02*
D03*
X201000Y96000D02*
D03*
X196000Y46000D02*
D03*
X201000Y36000D02*
D03*
X196000Y26000D02*
D03*
X201000Y16000D02*
D03*
X196000Y6000D02*
D03*
X186000Y366000D02*
D03*
X191000Y356000D02*
D03*
X186000Y346000D02*
D03*
X191000Y336000D02*
D03*
X186000Y326000D02*
D03*
X191000Y296000D02*
D03*
X186000Y286000D02*
D03*
X191000Y276000D02*
D03*
X186000Y106000D02*
D03*
X191000Y96000D02*
D03*
X186000Y86000D02*
D03*
Y46000D02*
D03*
X191000Y36000D02*
D03*
X186000Y26000D02*
D03*
X191000Y16000D02*
D03*
X186000Y6000D02*
D03*
X176000Y366000D02*
D03*
X181000Y356000D02*
D03*
X176000Y346000D02*
D03*
X181000Y336000D02*
D03*
X176000Y326000D02*
D03*
X181000Y316000D02*
D03*
X176000Y306000D02*
D03*
X181000Y296000D02*
D03*
X176000Y286000D02*
D03*
X181000Y276000D02*
D03*
Y96000D02*
D03*
X176000Y86000D02*
D03*
X181000Y76000D02*
D03*
X176000Y66000D02*
D03*
X181000Y56000D02*
D03*
X176000Y46000D02*
D03*
X181000Y36000D02*
D03*
X176000Y26000D02*
D03*
X181000Y16000D02*
D03*
X176000Y6000D02*
D03*
X166000Y366000D02*
D03*
X171000Y356000D02*
D03*
X166000Y346000D02*
D03*
X171000Y336000D02*
D03*
X166000Y326000D02*
D03*
X171000Y316000D02*
D03*
X166000Y306000D02*
D03*
X171000Y296000D02*
D03*
X166000Y286000D02*
D03*
X171000Y276000D02*
D03*
Y96000D02*
D03*
X166000Y86000D02*
D03*
X171000Y76000D02*
D03*
X166000Y66000D02*
D03*
X171000Y56000D02*
D03*
X166000Y46000D02*
D03*
X171000Y36000D02*
D03*
X166000Y26000D02*
D03*
X171000Y16000D02*
D03*
X166000Y6000D02*
D03*
X156000Y366000D02*
D03*
X161000Y356000D02*
D03*
X156000Y346000D02*
D03*
X161000Y336000D02*
D03*
X156000Y326000D02*
D03*
X161000Y316000D02*
D03*
X156000Y306000D02*
D03*
X161000Y296000D02*
D03*
X156000Y286000D02*
D03*
X161000Y276000D02*
D03*
X156000Y146000D02*
D03*
X161000Y96000D02*
D03*
X156000Y86000D02*
D03*
X161000Y76000D02*
D03*
X156000Y66000D02*
D03*
X161000Y56000D02*
D03*
X156000Y46000D02*
D03*
X161000Y36000D02*
D03*
X156000Y26000D02*
D03*
X161000Y16000D02*
D03*
X156000Y6000D02*
D03*
X146000Y366000D02*
D03*
X151000Y356000D02*
D03*
X146000Y346000D02*
D03*
X151000Y336000D02*
D03*
X146000Y326000D02*
D03*
X151000Y316000D02*
D03*
X146000Y306000D02*
D03*
X151000Y296000D02*
D03*
X146000Y286000D02*
D03*
X151000Y276000D02*
D03*
Y196000D02*
D03*
Y116000D02*
D03*
X146000Y106000D02*
D03*
X151000Y96000D02*
D03*
X146000Y86000D02*
D03*
X151000Y76000D02*
D03*
X146000Y66000D02*
D03*
X151000Y56000D02*
D03*
X146000Y46000D02*
D03*
X151000Y36000D02*
D03*
X146000Y26000D02*
D03*
X151000Y16000D02*
D03*
X146000Y6000D02*
D03*
X136000Y366000D02*
D03*
X141000Y356000D02*
D03*
X136000Y346000D02*
D03*
X141000Y336000D02*
D03*
X136000Y326000D02*
D03*
X141000Y316000D02*
D03*
X136000Y306000D02*
D03*
X141000Y296000D02*
D03*
X136000Y286000D02*
D03*
Y266000D02*
D03*
X141000Y196000D02*
D03*
X136000Y106000D02*
D03*
X141000Y96000D02*
D03*
X136000Y86000D02*
D03*
X141000Y76000D02*
D03*
X136000Y66000D02*
D03*
X141000Y56000D02*
D03*
X136000Y46000D02*
D03*
X141000Y36000D02*
D03*
X136000Y26000D02*
D03*
X141000Y16000D02*
D03*
X136000Y6000D02*
D03*
X126000Y366000D02*
D03*
X131000Y356000D02*
D03*
X126000Y346000D02*
D03*
X131000Y336000D02*
D03*
X126000Y326000D02*
D03*
X131000Y316000D02*
D03*
X126000Y306000D02*
D03*
X131000Y296000D02*
D03*
Y96000D02*
D03*
X126000Y86000D02*
D03*
X131000Y76000D02*
D03*
X126000Y66000D02*
D03*
X131000Y56000D02*
D03*
X126000Y46000D02*
D03*
X131000Y36000D02*
D03*
X126000Y26000D02*
D03*
X131000Y16000D02*
D03*
X126000Y6000D02*
D03*
X116000Y366000D02*
D03*
X121000Y356000D02*
D03*
X116000Y346000D02*
D03*
X121000Y336000D02*
D03*
X116000Y326000D02*
D03*
X121000Y316000D02*
D03*
X116000Y306000D02*
D03*
Y286000D02*
D03*
X121000Y276000D02*
D03*
Y256000D02*
D03*
Y236000D02*
D03*
Y216000D02*
D03*
X116000Y206000D02*
D03*
X121000Y176000D02*
D03*
Y136000D02*
D03*
Y116000D02*
D03*
X116000Y86000D02*
D03*
X121000Y76000D02*
D03*
X116000Y66000D02*
D03*
X121000Y56000D02*
D03*
X116000Y46000D02*
D03*
X121000Y36000D02*
D03*
X116000Y26000D02*
D03*
X121000Y16000D02*
D03*
X116000Y6000D02*
D03*
X106000Y366000D02*
D03*
X111000Y356000D02*
D03*
X106000Y346000D02*
D03*
X111000Y336000D02*
D03*
X106000Y326000D02*
D03*
X111000Y316000D02*
D03*
X106000Y266000D02*
D03*
Y246000D02*
D03*
X111000Y216000D02*
D03*
X106000Y206000D02*
D03*
X111000Y176000D02*
D03*
X106000Y166000D02*
D03*
X111000Y76000D02*
D03*
X106000Y66000D02*
D03*
X111000Y56000D02*
D03*
X106000Y46000D02*
D03*
X111000Y36000D02*
D03*
X106000Y26000D02*
D03*
X111000Y16000D02*
D03*
X106000Y6000D02*
D03*
X96000Y366000D02*
D03*
X101000Y356000D02*
D03*
X96000Y346000D02*
D03*
X101000Y336000D02*
D03*
X96000Y326000D02*
D03*
Y306000D02*
D03*
X101000Y296000D02*
D03*
Y276000D02*
D03*
X96000Y266000D02*
D03*
Y226000D02*
D03*
X101000Y216000D02*
D03*
X96000Y206000D02*
D03*
X101000Y176000D02*
D03*
X96000Y166000D02*
D03*
X101000Y156000D02*
D03*
Y136000D02*
D03*
Y116000D02*
D03*
Y96000D02*
D03*
X96000Y66000D02*
D03*
X101000Y56000D02*
D03*
X96000Y46000D02*
D03*
X101000Y36000D02*
D03*
X96000Y26000D02*
D03*
X101000Y16000D02*
D03*
X96000Y6000D02*
D03*
X86000Y366000D02*
D03*
X91000Y356000D02*
D03*
X86000Y346000D02*
D03*
X91000Y336000D02*
D03*
X86000Y326000D02*
D03*
Y286000D02*
D03*
X91000Y276000D02*
D03*
X86000Y266000D02*
D03*
X91000Y236000D02*
D03*
X86000Y226000D02*
D03*
X91000Y216000D02*
D03*
X86000Y206000D02*
D03*
X91000Y176000D02*
D03*
X86000Y166000D02*
D03*
X91000Y156000D02*
D03*
X86000Y146000D02*
D03*
X91000Y116000D02*
D03*
X86000Y106000D02*
D03*
X91000Y56000D02*
D03*
X86000Y46000D02*
D03*
X91000Y36000D02*
D03*
X86000Y26000D02*
D03*
X91000Y16000D02*
D03*
X86000Y6000D02*
D03*
X76000Y366000D02*
D03*
X81000Y356000D02*
D03*
X76000Y346000D02*
D03*
X81000Y336000D02*
D03*
X76000Y326000D02*
D03*
X81000Y296000D02*
D03*
X76000Y286000D02*
D03*
X81000Y276000D02*
D03*
X76000Y266000D02*
D03*
X81000Y236000D02*
D03*
X76000Y226000D02*
D03*
X81000Y216000D02*
D03*
X76000Y206000D02*
D03*
X81000Y176000D02*
D03*
X76000Y166000D02*
D03*
X81000Y156000D02*
D03*
X76000Y146000D02*
D03*
X81000Y116000D02*
D03*
X76000Y106000D02*
D03*
X81000Y96000D02*
D03*
Y76000D02*
D03*
Y56000D02*
D03*
X76000Y46000D02*
D03*
X81000Y36000D02*
D03*
X76000Y26000D02*
D03*
X81000Y16000D02*
D03*
X76000Y6000D02*
D03*
X66000Y366000D02*
D03*
X71000Y356000D02*
D03*
X66000Y346000D02*
D03*
X71000Y336000D02*
D03*
X66000Y326000D02*
D03*
X71000Y296000D02*
D03*
X66000Y286000D02*
D03*
X71000Y276000D02*
D03*
X66000Y266000D02*
D03*
X71000Y236000D02*
D03*
X66000Y226000D02*
D03*
X71000Y216000D02*
D03*
X66000Y206000D02*
D03*
X71000Y176000D02*
D03*
X66000Y166000D02*
D03*
X71000Y156000D02*
D03*
X66000Y146000D02*
D03*
X71000Y116000D02*
D03*
X66000Y106000D02*
D03*
X71000Y96000D02*
D03*
X66000Y86000D02*
D03*
X71000Y56000D02*
D03*
X66000Y46000D02*
D03*
X71000Y36000D02*
D03*
X66000Y26000D02*
D03*
X71000Y16000D02*
D03*
X66000Y6000D02*
D03*
X56000Y366000D02*
D03*
X61000Y356000D02*
D03*
X56000Y346000D02*
D03*
X61000Y336000D02*
D03*
X56000Y326000D02*
D03*
X61000Y296000D02*
D03*
X56000Y286000D02*
D03*
X61000Y276000D02*
D03*
X56000Y266000D02*
D03*
X61000Y236000D02*
D03*
X56000Y226000D02*
D03*
X61000Y216000D02*
D03*
X56000Y206000D02*
D03*
X61000Y176000D02*
D03*
X56000Y166000D02*
D03*
X61000Y156000D02*
D03*
X56000Y146000D02*
D03*
X61000Y116000D02*
D03*
X56000Y106000D02*
D03*
X61000Y96000D02*
D03*
X56000Y86000D02*
D03*
X61000Y56000D02*
D03*
X56000Y46000D02*
D03*
X61000Y36000D02*
D03*
X56000Y26000D02*
D03*
X61000Y16000D02*
D03*
X56000Y6000D02*
D03*
X46000Y366000D02*
D03*
X51000Y356000D02*
D03*
X46000Y346000D02*
D03*
X51000Y336000D02*
D03*
X46000Y326000D02*
D03*
Y286000D02*
D03*
X51000Y276000D02*
D03*
X46000Y266000D02*
D03*
X51000Y236000D02*
D03*
X46000Y226000D02*
D03*
X51000Y216000D02*
D03*
X46000Y206000D02*
D03*
Y166000D02*
D03*
X51000Y156000D02*
D03*
X46000Y146000D02*
D03*
Y106000D02*
D03*
X51000Y96000D02*
D03*
X46000Y46000D02*
D03*
X51000Y36000D02*
D03*
X46000Y26000D02*
D03*
X51000Y16000D02*
D03*
X46000Y6000D02*
D03*
X41000Y356000D02*
D03*
X36000Y346000D02*
D03*
X41000Y336000D02*
D03*
X36000Y326000D02*
D03*
Y286000D02*
D03*
X41000Y276000D02*
D03*
X36000Y266000D02*
D03*
Y226000D02*
D03*
X41000Y216000D02*
D03*
X36000Y206000D02*
D03*
Y166000D02*
D03*
X41000Y156000D02*
D03*
X36000Y146000D02*
D03*
Y106000D02*
D03*
X41000Y96000D02*
D03*
X36000Y46000D02*
D03*
X41000Y36000D02*
D03*
Y16000D02*
D03*
X36000Y6000D02*
D03*
X31000Y336000D02*
D03*
X26000Y326000D02*
D03*
X31000Y316000D02*
D03*
X26000Y306000D02*
D03*
X31000Y296000D02*
D03*
X26000Y286000D02*
D03*
X31000Y276000D02*
D03*
X26000Y266000D02*
D03*
X31000Y256000D02*
D03*
X26000Y246000D02*
D03*
X31000Y236000D02*
D03*
X26000Y226000D02*
D03*
X31000Y216000D02*
D03*
X26000Y206000D02*
D03*
X31000Y196000D02*
D03*
X26000Y186000D02*
D03*
X31000Y176000D02*
D03*
X26000Y166000D02*
D03*
X31000Y156000D02*
D03*
X26000Y146000D02*
D03*
X31000Y136000D02*
D03*
X26000Y126000D02*
D03*
X31000Y116000D02*
D03*
X26000Y106000D02*
D03*
X31000Y96000D02*
D03*
X26000Y86000D02*
D03*
X31000Y76000D02*
D03*
X26000Y66000D02*
D03*
X31000Y56000D02*
D03*
X26000Y46000D02*
D03*
X31000Y36000D02*
D03*
X21000Y336000D02*
D03*
Y316000D02*
D03*
X16000Y306000D02*
D03*
Y286000D02*
D03*
X21000Y276000D02*
D03*
Y256000D02*
D03*
X16000Y246000D02*
D03*
Y226000D02*
D03*
X21000Y216000D02*
D03*
Y196000D02*
D03*
X16000Y186000D02*
D03*
Y166000D02*
D03*
X21000Y156000D02*
D03*
Y136000D02*
D03*
X16000Y126000D02*
D03*
Y106000D02*
D03*
X21000Y96000D02*
D03*
Y76000D02*
D03*
X16000Y66000D02*
D03*
Y46000D02*
D03*
X6000Y346000D02*
D03*
X11000Y336000D02*
D03*
X6000Y326000D02*
D03*
X11000Y316000D02*
D03*
X6000Y306000D02*
D03*
Y286000D02*
D03*
X11000Y276000D02*
D03*
X6000Y266000D02*
D03*
X11000Y256000D02*
D03*
X6000Y246000D02*
D03*
Y226000D02*
D03*
X11000Y216000D02*
D03*
X6000Y206000D02*
D03*
X11000Y196000D02*
D03*
X6000Y186000D02*
D03*
Y166000D02*
D03*
X11000Y156000D02*
D03*
X6000Y146000D02*
D03*
X11000Y136000D02*
D03*
X6000Y126000D02*
D03*
Y106000D02*
D03*
X11000Y96000D02*
D03*
X6000Y86000D02*
D03*
X11000Y76000D02*
D03*
X6000Y66000D02*
D03*
Y46000D02*
D03*
X11000Y36000D02*
D03*
X6000Y6000D02*
D03*
M02*
