G04*
G04 #@! TF.GenerationSoftware,Altium Limited,Altium Designer,25.8.1 (18)*
G04*
G04 Layer_Color=16711935*
%FSLAX44Y44*%
%MOMM*%
G71*
G04*
G04 #@! TF.SameCoordinates,6DDEA277-A763-43AB-ACEE-48A348346EB4*
G04*
G04*
G04 #@! TF.FilePolarity,Negative*
G04*
G01*
G75*
%ADD15C,3.2032*%
%ADD16C,3.7032*%
%ADD17O,1.5032X1.2032*%
G36*
X260000Y-30000D02*
X0D01*
Y410000D01*
X260000D01*
Y-30000D01*
D02*
G37*
%LPC*%
G36*
X210000Y280000D02*
X150000D01*
Y100000D01*
X210000D01*
Y280000D01*
D02*
G37*
%LPD*%
D15*
X220000Y-10000D02*
D03*
Y390000D02*
D03*
X40000D02*
D03*
Y-10000D02*
D03*
D16*
X204000Y312550D02*
D03*
Y67450D02*
D03*
D17*
X165900Y139200D02*
D03*
Y126500D02*
D03*
X191300Y259850D02*
D03*
Y247150D02*
D03*
Y234450D02*
D03*
Y221750D02*
D03*
Y209050D02*
D03*
Y196350D02*
D03*
Y183650D02*
D03*
Y170950D02*
D03*
Y158250D02*
D03*
Y145550D02*
D03*
Y132850D02*
D03*
Y120150D02*
D03*
X165900Y113800D02*
D03*
Y151900D02*
D03*
Y164600D02*
D03*
Y177300D02*
D03*
Y190000D02*
D03*
Y202700D02*
D03*
Y215400D02*
D03*
Y228100D02*
D03*
Y240800D02*
D03*
Y253500D02*
D03*
Y266200D02*
D03*
M02*
