G04*
G04 #@! TF.GenerationSoftware,Altium Limited,Altium Designer,23.0.1 (38)*
G04*
G04 Layer_Physical_Order=4*
G04 Layer_Color=16711680*
%FSLAX44Y44*%
%MOMM*%
G71*
G04*
G04 #@! TF.SameCoordinates,DF40126D-40D4-41C7-8A41-B1E1652C26B1*
G04*
G04*
G04 #@! TF.FilePolarity,Positive*
G04*
G01*
G75*
%ADD18C,0.2940*%
%ADD19C,3.5000*%
%ADD20C,3.0000*%
%ADD21O,1.3000X1.0000*%
%ADD22C,0.3000*%
%ADD23C,0.5000*%
G36*
X260000Y0D02*
X0D01*
Y380000D01*
X260000D01*
Y0D01*
D02*
G37*
%LPC*%
G36*
X205974Y332590D02*
X205270D01*
Y313820D01*
X224040D01*
Y314524D01*
X223270Y318396D01*
X221759Y322043D01*
X219566Y325325D01*
X216775Y328116D01*
X213493Y330309D01*
X209846Y331820D01*
X205974Y332590D01*
D02*
G37*
G36*
X202730D02*
X202026D01*
X198155Y331820D01*
X194508Y330309D01*
X191225Y328116D01*
X188434Y325325D01*
X186241Y322043D01*
X184730Y318396D01*
X183960Y314524D01*
Y313820D01*
X202730D01*
Y332590D01*
D02*
G37*
G36*
X224040Y311280D02*
X204000D01*
X183960D01*
Y310576D01*
X184730Y306705D01*
X186241Y303057D01*
X188434Y299775D01*
X191225Y296984D01*
X194508Y294791D01*
X194525Y294784D01*
X194277Y293538D01*
X167465D01*
X160502Y300502D01*
X159354Y301269D01*
X158000Y301538D01*
X131028D01*
X130881Y301674D01*
X130686Y301747D01*
X130513Y301863D01*
X130217Y301922D01*
X129934Y302027D01*
X128941Y302187D01*
X128855Y302273D01*
X127002Y303040D01*
X124998D01*
X123145Y302273D01*
X121727Y300855D01*
X120960Y299002D01*
Y296998D01*
X121727Y295145D01*
X122872Y294000D01*
X121727Y292855D01*
X120960Y291003D01*
Y288997D01*
X121727Y287145D01*
X122872Y286000D01*
X121727Y284855D01*
X120960Y283002D01*
Y280998D01*
X121727Y279145D01*
X123145Y277727D01*
X124998Y276960D01*
X127002D01*
X128855Y277727D01*
X128941Y277813D01*
X129934Y277973D01*
X130217Y278078D01*
X130513Y278137D01*
X130686Y278253D01*
X130881Y278326D01*
X131028Y278462D01*
X150534D01*
X155498Y273498D01*
X156646Y272731D01*
X157236Y272614D01*
X158015Y271333D01*
X158017Y271192D01*
X157912Y270925D01*
X155750Y270083D01*
X155726Y270068D01*
X155699Y270063D01*
X155301Y269797D01*
X155209Y269738D01*
X102265D01*
X71502Y300502D01*
X70354Y301269D01*
X69000Y301538D01*
X54028D01*
X53881Y301674D01*
X53686Y301747D01*
X53513Y301863D01*
X53217Y301922D01*
X52934Y302027D01*
X51941Y302187D01*
X51855Y302273D01*
X50002Y303040D01*
X47997D01*
X46145Y302273D01*
X44727Y300855D01*
X43960Y299002D01*
Y296998D01*
X44727Y295145D01*
X45872Y294000D01*
X44727Y292855D01*
X43960Y291003D01*
Y288997D01*
X44727Y287145D01*
X45872Y286000D01*
X44727Y284855D01*
X43960Y283002D01*
Y280998D01*
X44727Y279145D01*
X46145Y277727D01*
X47997Y276960D01*
X50002D01*
X51855Y277727D01*
X51941Y277813D01*
X52934Y277973D01*
X53217Y278078D01*
X53513Y278137D01*
X53686Y278253D01*
X53881Y278326D01*
X54028Y278462D01*
X64535D01*
X104698Y238298D01*
X105846Y237532D01*
X107200Y237262D01*
X155209D01*
X155301Y237203D01*
X155699Y236938D01*
X155726Y236932D01*
X155750Y236917D01*
X158782Y235736D01*
X159023Y235422D01*
X159462Y235085D01*
Y233815D01*
X159023Y233478D01*
X158782Y233164D01*
X155750Y231983D01*
X155726Y231968D01*
X155699Y231963D01*
X155301Y231697D01*
X155209Y231638D01*
X73365D01*
X64502Y240502D01*
X63354Y241269D01*
X62000Y241538D01*
X54028D01*
X53881Y241674D01*
X53686Y241747D01*
X53513Y241863D01*
X53217Y241922D01*
X52934Y242027D01*
X51941Y242187D01*
X51855Y242273D01*
X50002Y243040D01*
X47997D01*
X46145Y242273D01*
X44727Y240855D01*
X43960Y239002D01*
Y236998D01*
X44727Y235145D01*
X45872Y234000D01*
X44727Y232855D01*
X43960Y231003D01*
Y228997D01*
X44727Y227145D01*
X45872Y226000D01*
X44727Y224855D01*
X43960Y223002D01*
Y220998D01*
X44727Y219145D01*
X46145Y217727D01*
X47997Y216960D01*
X50002D01*
X51855Y217727D01*
X51941Y217813D01*
X52934Y217973D01*
X53217Y218078D01*
X53513Y218137D01*
X53686Y218253D01*
X53881Y218326D01*
X54028Y218462D01*
X57534D01*
X75798Y200198D01*
X76946Y199431D01*
X78300Y199162D01*
X155209D01*
X155301Y199103D01*
X155699Y198838D01*
X155726Y198832D01*
X155750Y198817D01*
X158782Y197636D01*
X159023Y197323D01*
X159462Y196985D01*
Y195715D01*
X159023Y195378D01*
X158782Y195064D01*
X155750Y193883D01*
X155726Y193868D01*
X155699Y193863D01*
X155301Y193597D01*
X155209Y193538D01*
X115000D01*
X113646Y193269D01*
X112498Y192502D01*
X101535Y181538D01*
X54028D01*
X53881Y181674D01*
X53686Y181747D01*
X53513Y181863D01*
X53217Y181922D01*
X52934Y182027D01*
X51941Y182187D01*
X51855Y182273D01*
X50002Y183040D01*
X47997D01*
X46145Y182273D01*
X44727Y180855D01*
X43960Y179002D01*
Y176998D01*
X44727Y175145D01*
X45872Y174000D01*
X44727Y172855D01*
X43960Y171003D01*
Y168997D01*
X44727Y167145D01*
X45872Y166000D01*
X44727Y164855D01*
X43960Y163002D01*
Y160998D01*
X44727Y159145D01*
X46145Y157727D01*
X47997Y156960D01*
X50002D01*
X51855Y157727D01*
X51941Y157813D01*
X52934Y157973D01*
X53217Y158078D01*
X53513Y158137D01*
X53686Y158253D01*
X53881Y158326D01*
X54028Y158462D01*
X117000D01*
X118354Y158731D01*
X119502Y159498D01*
X121066Y161062D01*
X155209D01*
X155301Y161003D01*
X155699Y160737D01*
X155726Y160732D01*
X155750Y160717D01*
X158782Y159536D01*
X159023Y159222D01*
X159462Y158885D01*
Y157615D01*
X159023Y157278D01*
X158782Y156964D01*
X155750Y155783D01*
X155726Y155768D01*
X155699Y155763D01*
X155301Y155497D01*
X155209Y155438D01*
X82900D01*
X81546Y155169D01*
X80398Y154402D01*
X50054Y124057D01*
X49853Y124050D01*
X49664Y123963D01*
X49460Y123923D01*
X49209Y123755D01*
X48935Y123629D01*
X48119Y123040D01*
X47997D01*
X46145Y122273D01*
X44727Y120855D01*
X43960Y119003D01*
Y116997D01*
X44727Y115145D01*
X45872Y114000D01*
X44727Y112855D01*
X43960Y111003D01*
Y108997D01*
X44727Y107145D01*
X45872Y106000D01*
X44727Y104855D01*
X43960Y103003D01*
Y100997D01*
X44727Y99145D01*
X46145Y97727D01*
X47997Y96960D01*
X50002D01*
X51855Y97727D01*
X51941Y97813D01*
X52934Y97973D01*
X53217Y98078D01*
X53513Y98137D01*
X53686Y98253D01*
X53881Y98326D01*
X54028Y98462D01*
X61000D01*
X62354Y98731D01*
X63502Y99498D01*
X86966Y122962D01*
X122038D01*
X122565Y121692D01*
X121727Y120855D01*
X120960Y119003D01*
Y116997D01*
X121727Y115145D01*
X122872Y114000D01*
X121727Y112855D01*
X120960Y111003D01*
Y108997D01*
X121727Y107145D01*
X122872Y106000D01*
X121727Y104855D01*
X120960Y103003D01*
Y100997D01*
X121727Y99145D01*
X123145Y97727D01*
X124998Y96960D01*
X125119D01*
X125935Y96371D01*
X126209Y96245D01*
X126460Y96077D01*
X126664Y96037D01*
X126853Y95950D01*
X127054Y95943D01*
X136498Y86498D01*
X137646Y85731D01*
X139000Y85462D01*
X192600D01*
X192985Y84192D01*
X191225Y83016D01*
X188434Y80225D01*
X186241Y76943D01*
X184730Y73296D01*
X183960Y69424D01*
Y68720D01*
X204000D01*
X224040D01*
Y69424D01*
X223270Y73296D01*
X221759Y76943D01*
X219566Y80225D01*
X216775Y83016D01*
X213493Y85209D01*
X212974Y85424D01*
X212853Y86849D01*
X225502Y99498D01*
X226269Y100646D01*
X226538Y102000D01*
Y178000D01*
X226269Y179354D01*
X225502Y180502D01*
X219852Y186152D01*
X218704Y186919D01*
X217350Y187188D01*
X201991D01*
X201899Y187247D01*
X201501Y187513D01*
X201474Y187518D01*
X201450Y187533D01*
X198418Y188714D01*
X198178Y189028D01*
X197738Y189365D01*
Y190635D01*
X198178Y190972D01*
X198418Y191286D01*
X201450Y192467D01*
X201474Y192482D01*
X201501Y192488D01*
X201899Y192753D01*
X201991Y192812D01*
X216350D01*
X217704Y193081D01*
X218852Y193848D01*
X225502Y200498D01*
X226269Y201646D01*
X226538Y203000D01*
Y277000D01*
X226269Y278354D01*
X225502Y279502D01*
X212502Y292502D01*
X212036Y292813D01*
X212177Y294246D01*
X213493Y294791D01*
X216775Y296984D01*
X219566Y299775D01*
X221759Y303057D01*
X223270Y306705D01*
X224040Y310576D01*
Y311280D01*
D02*
G37*
G36*
Y66180D02*
X205270D01*
Y47410D01*
X205974D01*
X209846Y48180D01*
X213493Y49691D01*
X216775Y51884D01*
X219566Y54675D01*
X221759Y57958D01*
X223270Y61605D01*
X224040Y65476D01*
Y66180D01*
D02*
G37*
G36*
X202730D02*
X183960D01*
Y65476D01*
X184730Y61605D01*
X186241Y57958D01*
X188434Y54675D01*
X191225Y51884D01*
X194508Y49691D01*
X198155Y48180D01*
X202026Y47410D01*
X202730D01*
Y66180D01*
D02*
G37*
%LPD*%
G36*
X129522Y299470D02*
Y296530D01*
X127785Y296250D01*
Y299750D01*
X129522Y299470D01*
D02*
G37*
G36*
X52522D02*
Y296530D01*
X50785Y296250D01*
Y299750D01*
X52522Y299470D01*
D02*
G37*
G36*
X129522Y291470D02*
Y288530D01*
X127785Y288250D01*
Y291750D01*
X129522Y291470D01*
D02*
G37*
G36*
X52522D02*
Y288530D01*
X50785Y288250D01*
Y291750D01*
X52522Y291470D01*
D02*
G37*
G36*
X129522Y283470D02*
Y280530D01*
X127785Y280250D01*
Y283750D01*
X129522Y283470D01*
D02*
G37*
G36*
X52522D02*
Y280530D01*
X50785Y280250D01*
Y283750D01*
X52522Y283470D01*
D02*
G37*
G36*
X160416Y263279D02*
X156690Y264730D01*
Y267670D01*
X160416Y269122D01*
Y263279D01*
D02*
G37*
G36*
Y250579D02*
X156690Y252030D01*
Y254970D01*
X160416Y256422D01*
Y250579D01*
D02*
G37*
G36*
Y237879D02*
X156690Y239330D01*
Y242270D01*
X160416Y243722D01*
Y237879D01*
D02*
G37*
G36*
X52522Y239470D02*
Y236530D01*
X50785Y236250D01*
Y239750D01*
X52522Y239470D01*
D02*
G37*
G36*
X160416Y225179D02*
X156690Y226630D01*
Y229570D01*
X160416Y231022D01*
Y225179D01*
D02*
G37*
G36*
X52522Y223470D02*
Y220530D01*
X50785Y220250D01*
Y223750D01*
X52522Y223470D01*
D02*
G37*
G36*
X200510Y223220D02*
Y220280D01*
X196784Y218829D01*
Y224672D01*
X200510Y223220D01*
D02*
G37*
G36*
X160416Y212479D02*
X156690Y213930D01*
Y216870D01*
X160416Y218322D01*
Y212479D01*
D02*
G37*
G36*
X200510Y210520D02*
Y207580D01*
X196784Y206129D01*
Y211972D01*
X200510Y210520D01*
D02*
G37*
G36*
X160416Y199779D02*
X156690Y201230D01*
Y204170D01*
X160416Y205622D01*
Y199779D01*
D02*
G37*
G36*
X200510Y197820D02*
Y194880D01*
X196784Y193429D01*
Y199272D01*
X200510Y197820D01*
D02*
G37*
G36*
X160416Y187079D02*
X156690Y188530D01*
Y191470D01*
X160416Y192922D01*
Y187079D01*
D02*
G37*
G36*
X200510Y185120D02*
Y182180D01*
X196784Y180729D01*
Y186572D01*
X200510Y185120D01*
D02*
G37*
G36*
X52522Y179470D02*
Y176530D01*
X50785Y176250D01*
Y179750D01*
X52522Y179470D01*
D02*
G37*
G36*
X160416Y174379D02*
X156690Y175830D01*
Y178770D01*
X160416Y180222D01*
Y174379D01*
D02*
G37*
G36*
X52522Y171470D02*
Y168530D01*
X50785Y168250D01*
Y171750D01*
X52522Y171470D01*
D02*
G37*
G36*
X200510Y172420D02*
Y169480D01*
X196784Y168029D01*
Y173872D01*
X200510Y172420D01*
D02*
G37*
G36*
X160416Y161679D02*
X156690Y163130D01*
Y166070D01*
X160416Y167522D01*
Y161679D01*
D02*
G37*
G36*
X52522Y163470D02*
Y160530D01*
X50785Y160250D01*
Y163750D01*
X52522Y163470D01*
D02*
G37*
G36*
X200510Y159720D02*
Y156780D01*
X196784Y155329D01*
Y161172D01*
X200510Y159720D01*
D02*
G37*
G36*
X160416Y148979D02*
X156690Y150430D01*
Y153370D01*
X160416Y154822D01*
Y148979D01*
D02*
G37*
G36*
Y136279D02*
X156690Y137730D01*
Y140670D01*
X160416Y142122D01*
Y136279D01*
D02*
G37*
G36*
Y123579D02*
X156690Y125030D01*
Y127970D01*
X160416Y129422D01*
Y123579D01*
D02*
G37*
G36*
X52530Y119451D02*
X51500Y118025D01*
X49025Y120500D01*
X50451Y121530D01*
X52530Y119451D01*
D02*
G37*
G36*
X129522Y119470D02*
Y116530D01*
X127785Y116250D01*
Y119750D01*
X129522Y119470D01*
D02*
G37*
G36*
Y111470D02*
Y108530D01*
X127785Y108250D01*
Y111750D01*
X129522Y111470D01*
D02*
G37*
G36*
X52522D02*
Y108530D01*
X50785Y108250D01*
Y111750D01*
X52522Y111470D01*
D02*
G37*
G36*
Y103470D02*
Y100530D01*
X50785Y100250D01*
Y103750D01*
X52522Y103470D01*
D02*
G37*
G36*
X129530Y100549D02*
X127451Y98470D01*
X126025Y99500D01*
X128500Y101975D01*
X129530Y100549D01*
D02*
G37*
D18*
X158000Y298000D02*
X166000Y290000D01*
X126000Y298000D02*
X158000D01*
X154000Y290000D02*
X161000Y283000D01*
X126000Y290000D02*
X154000D01*
X126000Y282000D02*
X152000D01*
X158000Y276000D01*
X69000Y298000D02*
X100800Y266200D01*
X49000Y298000D02*
X69000D01*
X49000Y290000D02*
X67000D01*
X103500Y253500D01*
X49000Y282000D02*
X66000D01*
X107200Y240800D01*
X62000Y238000D02*
X71900Y228100D01*
X49000Y238000D02*
X62000D01*
X49000Y222000D02*
X59000D01*
X78300Y202700D01*
X49051Y230243D02*
X49283Y230012D01*
X139000Y89000D02*
X210000D01*
X126000Y102000D02*
X139000Y89000D01*
X49000Y102000D02*
X61000D01*
X119600Y164600D02*
X165900D01*
X117000Y162000D02*
X119600Y164600D01*
X49000Y162000D02*
X117000D01*
X118300Y177300D02*
X165900D01*
X49000Y170000D02*
X111000D01*
X118300Y177300D01*
X103000Y178000D02*
X115000Y190000D01*
X165900D01*
X49000Y178000D02*
X103000D01*
X56000Y110000D02*
X85200Y139200D01*
X49000Y110000D02*
X56000D01*
X85200Y139200D02*
X165900D01*
X82900Y151900D02*
X165900D01*
X49000Y118000D02*
X82900Y151900D01*
X126000Y118000D02*
X142000D01*
X157000Y103000D01*
X147000Y96000D02*
X206000D01*
X133000Y110000D02*
X147000Y96000D01*
X126000Y110000D02*
X133000D01*
X49283Y230012D02*
X60989D01*
X61000Y102000D02*
X85500Y126500D01*
X206000Y96000D02*
X215000Y105000D01*
X210000Y89000D02*
X223000Y102000D01*
X78300Y202700D02*
X165900D01*
X60989Y230012D02*
X75600Y215400D01*
X165900D01*
X71900Y228100D02*
X165900D01*
X223000Y102000D02*
Y178000D01*
X215000Y105000D02*
Y167000D01*
X210000Y290000D02*
X223000Y277000D01*
Y203000D02*
Y277000D01*
X166000Y290000D02*
X210000D01*
X158000Y276000D02*
X199000D01*
X205000Y270000D01*
X161000Y283000D02*
X207000D01*
X214000Y276000D01*
X157000Y103000D02*
X201331D01*
X205000Y225000D02*
Y270000D01*
X214000Y215000D02*
Y276000D01*
X208050Y209050D02*
X214000Y215000D01*
X191300Y221750D02*
X201750D01*
X205000Y225000D01*
X191300Y209050D02*
X208050D01*
X191300Y196350D02*
X216350D01*
X223000Y203000D01*
X202750Y158250D02*
X206000Y155000D01*
X191300Y158250D02*
X202750D01*
X206000Y107669D02*
Y155000D01*
X191300Y170950D02*
X211050D01*
X215000Y167000D01*
X191300Y183650D02*
X217350D01*
X223000Y178000D01*
X201331Y103000D02*
X206000Y107669D01*
X100800Y266200D02*
X165900D01*
X107200Y240800D02*
X165900D01*
X103500Y253500D02*
X165900D01*
X85500Y126500D02*
X165900D01*
D19*
X204000Y67450D02*
D03*
Y312550D02*
D03*
D20*
X20000Y20000D02*
D03*
Y360000D02*
D03*
X220000D02*
D03*
Y20000D02*
D03*
D21*
X165900Y139200D02*
D03*
Y126500D02*
D03*
X191300Y259850D02*
D03*
Y247150D02*
D03*
Y234450D02*
D03*
Y221750D02*
D03*
Y209050D02*
D03*
Y196350D02*
D03*
Y183650D02*
D03*
Y170950D02*
D03*
Y158250D02*
D03*
Y145550D02*
D03*
Y132850D02*
D03*
Y120150D02*
D03*
X165900Y113800D02*
D03*
Y151900D02*
D03*
Y164600D02*
D03*
Y177300D02*
D03*
Y190000D02*
D03*
Y202700D02*
D03*
Y215400D02*
D03*
Y228100D02*
D03*
Y240800D02*
D03*
Y253500D02*
D03*
Y266200D02*
D03*
D22*
X246000Y366000D02*
D03*
Y326000D02*
D03*
Y286000D02*
D03*
Y246000D02*
D03*
Y206000D02*
D03*
Y166000D02*
D03*
Y126000D02*
D03*
Y86000D02*
D03*
Y46000D02*
D03*
X236000Y346000D02*
D03*
X226000Y326000D02*
D03*
X236000Y306000D02*
D03*
X226000Y286000D02*
D03*
X236000Y266000D02*
D03*
Y226000D02*
D03*
Y186000D02*
D03*
Y146000D02*
D03*
Y106000D02*
D03*
X226000Y86000D02*
D03*
X236000Y66000D02*
D03*
X226000Y46000D02*
D03*
X186000Y366000D02*
D03*
X196000Y346000D02*
D03*
X186000Y326000D02*
D03*
Y46000D02*
D03*
X196000Y26000D02*
D03*
X166000Y366000D02*
D03*
X176000Y346000D02*
D03*
X166000Y326000D02*
D03*
X176000Y306000D02*
D03*
Y66000D02*
D03*
X166000Y46000D02*
D03*
X176000Y26000D02*
D03*
X146000Y366000D02*
D03*
X156000Y346000D02*
D03*
X146000Y326000D02*
D03*
X156000Y306000D02*
D03*
Y66000D02*
D03*
X146000Y46000D02*
D03*
X156000Y26000D02*
D03*
X126000Y366000D02*
D03*
X136000Y346000D02*
D03*
X126000Y326000D02*
D03*
X136000Y306000D02*
D03*
X126000Y86000D02*
D03*
X136000Y66000D02*
D03*
X126000Y46000D02*
D03*
X136000Y26000D02*
D03*
X106000Y366000D02*
D03*
X116000Y346000D02*
D03*
X106000Y326000D02*
D03*
Y86000D02*
D03*
X116000Y66000D02*
D03*
X106000Y46000D02*
D03*
X116000Y26000D02*
D03*
X86000Y366000D02*
D03*
X96000Y346000D02*
D03*
X86000Y326000D02*
D03*
X96000Y306000D02*
D03*
Y186000D02*
D03*
X86000Y86000D02*
D03*
X96000Y66000D02*
D03*
X86000Y46000D02*
D03*
X96000Y26000D02*
D03*
X66000Y366000D02*
D03*
X76000Y346000D02*
D03*
X66000Y326000D02*
D03*
X76000Y306000D02*
D03*
X66000Y246000D02*
D03*
X76000Y186000D02*
D03*
X66000Y86000D02*
D03*
X76000Y66000D02*
D03*
X66000Y46000D02*
D03*
X76000Y26000D02*
D03*
X46000Y366000D02*
D03*
X56000Y346000D02*
D03*
X46000Y326000D02*
D03*
X56000Y266000D02*
D03*
X46000Y206000D02*
D03*
X56000Y186000D02*
D03*
Y146000D02*
D03*
X46000Y86000D02*
D03*
X56000Y66000D02*
D03*
X46000Y46000D02*
D03*
X56000Y26000D02*
D03*
X36000Y346000D02*
D03*
X26000Y326000D02*
D03*
X36000Y266000D02*
D03*
X26000Y246000D02*
D03*
Y206000D02*
D03*
X36000Y146000D02*
D03*
X26000Y126000D02*
D03*
Y86000D02*
D03*
X36000Y66000D02*
D03*
X26000Y46000D02*
D03*
X16000Y266000D02*
D03*
Y226000D02*
D03*
Y146000D02*
D03*
Y106000D02*
D03*
Y66000D02*
D03*
D23*
X126000Y110000D02*
D03*
Y118000D02*
D03*
Y102000D02*
D03*
X49000Y290000D02*
D03*
Y298000D02*
D03*
Y282000D02*
D03*
Y222000D02*
D03*
Y230000D02*
D03*
Y238000D02*
D03*
Y162000D02*
D03*
Y178000D02*
D03*
Y118000D02*
D03*
Y102000D02*
D03*
X126000Y298000D02*
D03*
Y290000D02*
D03*
Y282000D02*
D03*
X49000Y170000D02*
D03*
Y110000D02*
D03*
M02*
