G04*
G04 #@! TF.GenerationSoftware,Altium Limited,Altium Designer,25.8.1 (18)*
G04*
G04 Layer_Physical_Order=3*
G04 Layer_Color=16440176*
%FSLAX44Y44*%
%MOMM*%
G71*
G04*
G04 #@! TF.SameCoordinates,6DDEA277-A763-43AB-ACEE-48A348346EB4*
G04*
G04*
G04 #@! TF.FilePolarity,Positive*
G04*
G01*
G75*
%ADD18C,0.2319*%
%ADD19C,3.0000*%
%ADD20C,3.5000*%
%ADD21O,1.3000X1.0000*%
%ADD22C,0.3000*%
%ADD23C,0.7000*%
G36*
X260000Y-30000D02*
X0D01*
Y410000D01*
X260000D01*
Y-30000D01*
D02*
G37*
%LPC*%
G36*
X205974Y332590D02*
X205270D01*
Y313820D01*
X224040D01*
Y314524D01*
X223270Y318396D01*
X221759Y322043D01*
X219566Y325325D01*
X216775Y328116D01*
X213493Y330309D01*
X209846Y331820D01*
X205974Y332590D01*
D02*
G37*
G36*
X202730D02*
X202026D01*
X198155Y331820D01*
X194508Y330309D01*
X191225Y328116D01*
X188434Y325325D01*
X186241Y322043D01*
X184730Y318396D01*
X183960Y314524D01*
Y313820D01*
X202730D01*
Y332590D01*
D02*
G37*
G36*
X224040Y311280D02*
X204000D01*
X183960D01*
Y310576D01*
X184730Y306705D01*
X186241Y303057D01*
X188434Y299775D01*
X191225Y296984D01*
X194508Y294791D01*
X195231Y294491D01*
X194978Y293221D01*
X167334D01*
X158278Y302278D01*
X157233Y302976D01*
X156000Y303221D01*
X156000Y303221D01*
X131784D01*
X129574Y304204D01*
X129115Y304663D01*
X127094Y305500D01*
X124906D01*
X122885Y304663D01*
X121337Y303116D01*
X120500Y301094D01*
Y298906D01*
X121337Y296884D01*
X122392Y295830D01*
X122742Y295000D01*
X122392Y294170D01*
X121337Y293116D01*
X120500Y291094D01*
Y288906D01*
X121337Y286884D01*
X122392Y285830D01*
X122742Y285000D01*
X122392Y284170D01*
X121337Y283116D01*
X120500Y281094D01*
Y278906D01*
X121337Y276884D01*
X122885Y275337D01*
X124906Y274500D01*
X127094D01*
X129115Y275337D01*
X129574Y275796D01*
X131784Y276779D01*
X152666D01*
X155722Y273722D01*
X155722Y273722D01*
X156767Y273024D01*
X158000Y272779D01*
X159388D01*
X159819Y271509D01*
X159408Y271193D01*
X158601Y270142D01*
X156884Y269422D01*
X102134D01*
X69278Y302278D01*
X68233Y302976D01*
X67000Y303221D01*
X67000Y303221D01*
X54784D01*
X52574Y304204D01*
X52116Y304663D01*
X50094Y305500D01*
X47906D01*
X45884Y304663D01*
X44337Y303116D01*
X43500Y301094D01*
Y298906D01*
X44337Y296884D01*
X45392Y295830D01*
X45742Y295000D01*
X45392Y294170D01*
X44337Y293116D01*
X43500Y291094D01*
Y288906D01*
X44337Y286884D01*
X45392Y285830D01*
X45742Y285000D01*
X45392Y284170D01*
X44337Y283116D01*
X43500Y281094D01*
Y278906D01*
X44337Y276884D01*
X45884Y275337D01*
X47906Y274500D01*
X50094D01*
X52116Y275337D01*
X52574Y275796D01*
X54784Y276779D01*
X66666D01*
X94722Y248722D01*
X94722Y248722D01*
X95767Y248024D01*
X97000Y247779D01*
X97000Y247779D01*
X134666D01*
X143922Y238522D01*
X143922Y238522D01*
X144967Y237824D01*
X146200Y237579D01*
X146200Y237579D01*
X156884D01*
X158601Y236858D01*
X159408Y235808D01*
X160152Y235237D01*
Y233663D01*
X159408Y233093D01*
X158601Y232042D01*
X156884Y231322D01*
X151100D01*
X151100Y231322D01*
X149867Y231076D01*
X148822Y230378D01*
X148822Y230378D01*
X132666Y214221D01*
X129659D01*
X129394Y214765D01*
X129270Y215491D01*
X130663Y216884D01*
X131500Y218906D01*
Y221094D01*
X130663Y223116D01*
X129608Y224170D01*
X129258Y225000D01*
X129608Y225830D01*
X130663Y226884D01*
X131500Y228906D01*
Y231094D01*
X130663Y233116D01*
X129608Y234170D01*
X129258Y235000D01*
X129608Y235830D01*
X130663Y236884D01*
X131500Y238906D01*
Y241094D01*
X130663Y243116D01*
X129115Y244663D01*
X127094Y245500D01*
X124906D01*
X122885Y244663D01*
X121337Y243116D01*
X120500Y241094D01*
Y238906D01*
X121337Y236884D01*
X122392Y235830D01*
X122742Y235000D01*
X122392Y234170D01*
X121337Y233116D01*
X120500Y231094D01*
Y228906D01*
X121337Y226884D01*
X122392Y225830D01*
X122742Y225000D01*
X122392Y224170D01*
X121337Y223116D01*
X120500Y221094D01*
Y218906D01*
X121337Y216884D01*
X122731Y215491D01*
X122606Y214765D01*
X122341Y214221D01*
X90334D01*
X62278Y242278D01*
X61233Y242976D01*
X60000Y243221D01*
X60000Y243221D01*
X54784D01*
X52574Y244204D01*
X52116Y244663D01*
X50094Y245500D01*
X47906D01*
X45884Y244663D01*
X44337Y243116D01*
X43500Y241094D01*
Y238906D01*
X44337Y236884D01*
X45392Y235830D01*
X45742Y235000D01*
X45392Y234170D01*
X44337Y233116D01*
X43500Y231094D01*
Y228906D01*
X44337Y226884D01*
X45392Y225830D01*
X45742Y225000D01*
X45392Y224170D01*
X44337Y223116D01*
X43500Y221094D01*
Y218906D01*
X44337Y216884D01*
X45884Y215337D01*
X47906Y214500D01*
X50094D01*
X52116Y215337D01*
X52574Y215796D01*
X54784Y216779D01*
X59666D01*
X79341Y197103D01*
X79353Y197073D01*
X79276Y195808D01*
X79160Y195570D01*
X78722Y195278D01*
X78722Y195278D01*
X66666Y183221D01*
X54784D01*
X52574Y184204D01*
X52116Y184663D01*
X50094Y185500D01*
X47906D01*
X45884Y184663D01*
X44337Y183116D01*
X43500Y181094D01*
Y178906D01*
X44337Y176884D01*
X45392Y175830D01*
X45742Y175000D01*
X45392Y174170D01*
X44337Y173116D01*
X43500Y171094D01*
Y168906D01*
X44337Y166884D01*
X45392Y165830D01*
X45742Y165000D01*
X45392Y164170D01*
X44337Y163116D01*
X43500Y161094D01*
Y158906D01*
X44337Y156884D01*
X45884Y155337D01*
X47906Y154500D01*
X50094D01*
X52116Y155337D01*
X52574Y155796D01*
X54784Y156779D01*
X93666D01*
X102722Y147722D01*
X102722Y147722D01*
X103068Y147491D01*
X102830Y146461D01*
X102682Y146221D01*
X72000D01*
X70767Y145976D01*
X69722Y145278D01*
X69722Y145278D01*
X50812Y126368D01*
X48555Y125500D01*
X47906D01*
X45884Y124663D01*
X44337Y123116D01*
X43500Y121094D01*
Y118906D01*
X44337Y116884D01*
X45392Y115830D01*
X45742Y115000D01*
X45392Y114170D01*
X44337Y113116D01*
X43500Y111094D01*
Y108906D01*
X44337Y106884D01*
X45392Y105830D01*
X45742Y105000D01*
X45392Y104170D01*
X44337Y103116D01*
X43500Y101094D01*
Y98906D01*
X44337Y96884D01*
X45884Y95337D01*
X47906Y94500D01*
X50094D01*
X52116Y95337D01*
X52574Y95796D01*
X54784Y96779D01*
X59000D01*
X59000Y96779D01*
X60233Y97024D01*
X61278Y97722D01*
X89334Y125779D01*
X122341D01*
X122606Y125235D01*
X122731Y124509D01*
X121337Y123116D01*
X120500Y121094D01*
Y118906D01*
X121337Y116884D01*
X122392Y115830D01*
X122742Y115000D01*
X122392Y114170D01*
X121337Y113116D01*
X120500Y111094D01*
Y108906D01*
X121337Y106884D01*
X122392Y105830D01*
X122742Y105000D01*
X122392Y104170D01*
X121337Y103116D01*
X120500Y101094D01*
Y98906D01*
X121337Y96884D01*
X122885Y95337D01*
X124906Y94500D01*
X125555D01*
X127812Y93632D01*
X134722Y86722D01*
X134722Y86722D01*
X135767Y86024D01*
X137000Y85779D01*
X137000Y85779D01*
X193074D01*
X193459Y84509D01*
X191225Y83016D01*
X188434Y80225D01*
X186241Y76943D01*
X184730Y73296D01*
X183960Y69424D01*
Y68720D01*
X204000D01*
X224040D01*
Y69424D01*
X223270Y73296D01*
X221759Y76943D01*
X219566Y80225D01*
X216775Y83016D01*
X213493Y85209D01*
X212592Y85582D01*
X212536Y86980D01*
X225278Y99722D01*
X225278Y99722D01*
X225976Y100767D01*
X226221Y102000D01*
X226221Y102000D01*
Y178000D01*
X226221Y178000D01*
X225976Y179233D01*
X225278Y180278D01*
X225278Y180278D01*
X219628Y185928D01*
X218583Y186626D01*
X217350Y186871D01*
X217350Y186871D01*
X200317D01*
X198599Y187592D01*
X197792Y188643D01*
X197049Y189213D01*
Y190787D01*
X197792Y191358D01*
X198599Y192408D01*
X200317Y193129D01*
X216350D01*
X216350Y193129D01*
X217583Y193374D01*
X218628Y194072D01*
X225278Y200722D01*
X225976Y201767D01*
X226221Y203000D01*
X226221Y203000D01*
Y277000D01*
X225976Y278233D01*
X225278Y279278D01*
X225278Y279278D01*
X212278Y292278D01*
X211691Y292670D01*
X211751Y294069D01*
X213493Y294791D01*
X216775Y296984D01*
X219566Y299775D01*
X221759Y303057D01*
X223270Y306705D01*
X224040Y310576D01*
Y311280D01*
D02*
G37*
G36*
Y66180D02*
X205270D01*
Y47410D01*
X205974D01*
X209846Y48180D01*
X213493Y49691D01*
X216775Y51884D01*
X219566Y54675D01*
X221759Y57958D01*
X223270Y61605D01*
X224040Y65476D01*
Y66180D01*
D02*
G37*
G36*
X202730D02*
X183960D01*
Y65476D01*
X184730Y61605D01*
X186241Y57958D01*
X188434Y54675D01*
X191225Y51884D01*
X194508Y49691D01*
X198155Y48180D01*
X202026Y47410D01*
X202730D01*
Y66180D01*
D02*
G37*
%LPD*%
G36*
X131402Y301159D02*
Y298841D01*
X128499Y297550D01*
Y302450D01*
X131402Y301159D01*
D02*
G37*
G36*
X54402D02*
Y298841D01*
X51500Y297550D01*
Y302450D01*
X54402Y301159D01*
D02*
G37*
G36*
X131402Y291159D02*
Y288841D01*
X128499Y287550D01*
Y292450D01*
X131402Y291159D01*
D02*
G37*
G36*
X54402D02*
Y288841D01*
X51500Y287550D01*
Y292450D01*
X54402Y291159D01*
D02*
G37*
G36*
X131402Y281159D02*
Y278841D01*
X128499Y277550D01*
Y282450D01*
X131402Y281159D01*
D02*
G37*
G36*
X54402D02*
Y278841D01*
X51500Y277550D01*
Y282450D01*
X54402Y281159D01*
D02*
G37*
G36*
X160005Y263881D02*
X157240Y265041D01*
Y267360D01*
X160005Y268519D01*
Y263881D01*
D02*
G37*
G36*
Y251181D02*
X157240Y252341D01*
Y254660D01*
X160005Y255819D01*
Y251181D01*
D02*
G37*
G36*
Y238481D02*
X157240Y239641D01*
Y241960D01*
X160005Y243119D01*
Y238481D01*
D02*
G37*
G36*
X54402Y241159D02*
Y238841D01*
X51500Y237550D01*
Y242450D01*
X54402Y241159D01*
D02*
G37*
G36*
X54398Y231171D02*
X54406Y228852D01*
X51508Y227558D01*
X51491Y232458D01*
X54398Y231171D01*
D02*
G37*
G36*
X160005Y225781D02*
X157240Y226941D01*
Y229260D01*
X160005Y230419D01*
Y225781D01*
D02*
G37*
G36*
X199960Y222910D02*
Y220591D01*
X197195Y219431D01*
Y224069D01*
X199960Y222910D01*
D02*
G37*
G36*
X54402Y221159D02*
Y218841D01*
X51500Y217550D01*
Y222450D01*
X54402Y221159D01*
D02*
G37*
G36*
X160005Y213081D02*
X157240Y214241D01*
Y216560D01*
X160005Y217719D01*
Y213081D01*
D02*
G37*
G36*
X199960Y210210D02*
Y207891D01*
X197195Y206731D01*
Y211369D01*
X199960Y210210D01*
D02*
G37*
G36*
X160005Y200381D02*
X157240Y201541D01*
Y203860D01*
X160005Y205019D01*
Y200381D01*
D02*
G37*
G36*
X199960Y197510D02*
Y195191D01*
X197195Y194031D01*
Y198669D01*
X199960Y197510D01*
D02*
G37*
G36*
X160005Y187681D02*
X157240Y188841D01*
Y191160D01*
X160005Y192319D01*
Y187681D01*
D02*
G37*
G36*
X199960Y184810D02*
Y182491D01*
X197195Y181331D01*
Y185969D01*
X199960Y184810D01*
D02*
G37*
G36*
X54402Y181159D02*
Y178841D01*
X51500Y177550D01*
Y182450D01*
X54402Y181159D01*
D02*
G37*
G36*
X160005Y174981D02*
X157240Y176141D01*
Y178460D01*
X160005Y179619D01*
Y174981D01*
D02*
G37*
G36*
X199960Y172110D02*
Y169791D01*
X197195Y168631D01*
Y173269D01*
X199960Y172110D01*
D02*
G37*
G36*
X54402Y171159D02*
Y168841D01*
X51500Y167550D01*
Y172450D01*
X54402Y171159D01*
D02*
G37*
G36*
X160005Y162281D02*
X157240Y163441D01*
Y165760D01*
X160005Y166919D01*
Y162281D01*
D02*
G37*
G36*
X54402Y161159D02*
Y158841D01*
X51500Y157550D01*
Y162450D01*
X54402Y161159D01*
D02*
G37*
G36*
X199960Y159410D02*
Y157091D01*
X197195Y155931D01*
Y160569D01*
X199960Y159410D01*
D02*
G37*
G36*
X144422Y175022D02*
X144422Y175022D01*
X145467Y174324D01*
X146700Y174079D01*
X146700Y174079D01*
X156884D01*
X158601Y173358D01*
X159408Y172308D01*
X160152Y171737D01*
Y170163D01*
X159408Y169593D01*
X158601Y168542D01*
X156884Y167822D01*
X145848D01*
X144615Y167576D01*
X143570Y166878D01*
X143570Y166878D01*
X129913Y153221D01*
X106334D01*
X97278Y162278D01*
X96233Y162976D01*
X95000Y163221D01*
X95000Y163221D01*
X54784D01*
X52621Y164183D01*
X52263Y165000D01*
X52621Y165817D01*
X54784Y166779D01*
X67000D01*
X67000Y166779D01*
X68233Y167024D01*
X69278Y167722D01*
X85334Y183779D01*
X120341D01*
X121086Y182509D01*
X120500Y181094D01*
Y178906D01*
X121337Y176884D01*
X122392Y175830D01*
X122742Y175000D01*
X122392Y174170D01*
X121337Y173116D01*
X120500Y171094D01*
Y168906D01*
X121337Y166884D01*
X122392Y165830D01*
X122742Y165000D01*
X122392Y164170D01*
X121337Y163116D01*
X120500Y161094D01*
Y158906D01*
X121337Y156884D01*
X122885Y155337D01*
X124906Y154500D01*
X127094D01*
X129115Y155337D01*
X130663Y156884D01*
X131500Y158906D01*
Y161094D01*
X130663Y163116D01*
X129608Y164170D01*
X129258Y165000D01*
X129608Y165830D01*
X130663Y166884D01*
X131500Y168906D01*
Y171094D01*
X130663Y173116D01*
X129608Y174170D01*
X129258Y175000D01*
X129608Y175830D01*
X130663Y176884D01*
X131500Y178906D01*
Y181094D01*
X130914Y182509D01*
X131659Y183779D01*
X135666D01*
X144422Y175022D01*
D02*
G37*
G36*
X160005Y149581D02*
X157240Y150741D01*
Y153060D01*
X160005Y154219D01*
Y149581D01*
D02*
G37*
G36*
Y136881D02*
X157240Y138041D01*
Y140360D01*
X160005Y141519D01*
Y136881D01*
D02*
G37*
G36*
Y124181D02*
X157240Y125341D01*
Y127660D01*
X160005Y128819D01*
Y124181D01*
D02*
G37*
G36*
X53640Y123000D02*
X52500Y120035D01*
X49035Y123500D01*
X52000Y124640D01*
X53640Y123000D01*
D02*
G37*
G36*
X130640Y117000D02*
X129000Y115360D01*
X126035Y116500D01*
X129500Y119965D01*
X130640Y117000D01*
D02*
G37*
G36*
X54402Y111159D02*
Y108841D01*
X51500Y107550D01*
Y112450D01*
X54402Y111159D01*
D02*
G37*
G36*
X130640Y107000D02*
X129000Y105360D01*
X126035Y106500D01*
X129500Y109965D01*
X130640Y107000D01*
D02*
G37*
G36*
X54402Y101159D02*
Y98841D01*
X51500Y97550D01*
Y102450D01*
X54402Y101159D01*
D02*
G37*
G36*
X130640Y97000D02*
X129000Y95360D01*
X126035Y96500D01*
X129500Y99965D01*
X130640Y97000D01*
D02*
G37*
D18*
X95000Y160000D02*
X105000Y150000D01*
X131248D02*
X145848Y164600D01*
X105000Y150000D02*
X131248D01*
X72000Y143000D02*
X139000D01*
X49000Y120000D02*
X72000Y143000D01*
X139000D02*
X147900Y151900D01*
X88000Y129000D02*
X134000D01*
X136500Y126500D02*
X165900D01*
X134000Y129000D02*
X136500Y126500D01*
X59000Y100000D02*
X88000Y129000D01*
X49000Y180000D02*
X68000D01*
X81000Y193000D01*
X146000D01*
X89000Y211000D02*
X134000D01*
X151100Y228100D01*
X60000Y240000D02*
X89000Y211000D01*
X86000Y205000D02*
X139000D01*
X149400Y215400D02*
X165900D01*
X139000Y205000D02*
X149400Y215400D01*
X60989Y230012D02*
X86000Y205000D01*
X61000Y220000D02*
X82000Y199000D01*
X142000D02*
X145700Y202700D01*
X82000Y199000D02*
X142000D01*
X146000Y193000D02*
X149000Y190000D01*
X137000Y187000D02*
X146700Y177300D01*
X67000Y170000D02*
X84000Y187000D01*
X137000D01*
X145700Y202700D02*
X165900D01*
X146700Y177300D02*
X165900D01*
X149000Y190000D02*
X165900D01*
X126000Y300000D02*
X156000D01*
X166000Y290000D01*
X154000Y280000D02*
X158000Y276000D01*
X126000Y280000D02*
X154000D01*
X126000Y120000D02*
X143000Y103000D01*
X201331D01*
X126000Y110000D02*
X140000Y96000D01*
X206000D01*
X126000Y100000D02*
X137000Y89000D01*
X210000D01*
X49000Y100000D02*
X59000D01*
X49752Y160000D02*
X95000D01*
X145848Y164600D02*
X165900D01*
X49000Y220000D02*
X61000D01*
X49000Y240000D02*
X60000D01*
X67000Y300000D02*
X100800Y266200D01*
X49000Y300000D02*
X67000D01*
X97000Y251000D02*
X136000D01*
X68000Y280000D02*
X97000Y251000D01*
X49000Y280000D02*
X68000D01*
X136000Y251000D02*
X146200Y240800D01*
X146500Y253500D02*
X165900D01*
X140000Y260000D02*
X146500Y253500D01*
X97000Y260000D02*
X140000D01*
X67000Y290000D02*
X97000Y260000D01*
X146200Y240800D02*
X165900D01*
X151100Y228100D02*
X165900D01*
X201750Y221750D02*
X205000Y225000D01*
X208050Y209050D02*
X214000Y215000D01*
X191300Y209050D02*
X208050D01*
X216350Y196350D02*
X223000Y203000D01*
X191300Y196350D02*
X216350D01*
X191300Y183650D02*
X217350D01*
X223000Y178000D01*
X191300Y170950D02*
X211050D01*
X215000Y167000D01*
X158000Y276000D02*
X199000D01*
X191300Y221750D02*
X201750D01*
X206000Y96000D02*
X215000Y105000D01*
X210000Y89000D02*
X223000Y102000D01*
X100800Y266200D02*
X165900D01*
X49283Y230012D02*
X60989D01*
X49000Y110000D02*
X56000D01*
X49051Y230243D02*
X49283Y230012D01*
X126000Y290000D02*
X154000D01*
X166000D02*
X210000D01*
X154000D02*
X161000Y283000D01*
X210000Y290000D02*
X223000Y277000D01*
X161000Y283000D02*
X207000D01*
X49000Y290000D02*
X67000D01*
X215000Y105000D02*
Y167000D01*
X223000Y102000D02*
Y178000D01*
X191300Y158250D02*
X202750D01*
X147900Y151900D02*
X165900D01*
X202750Y158250D02*
X206000Y155000D01*
Y107669D02*
Y155000D01*
X201331Y103000D02*
X206000Y107669D01*
X56000Y110000D02*
X82000Y136000D01*
X152200Y139200D02*
X165900D01*
X82000Y136000D02*
X149000D01*
X152200Y139200D01*
X49000Y170000D02*
X67000D01*
X207000Y283000D02*
X214000Y276000D01*
X199000Y276000D02*
X205000Y270000D01*
Y225000D02*
Y270000D01*
X214000Y215000D02*
Y276000D01*
X223000Y203000D02*
Y277000D01*
D19*
X220000Y-10000D02*
D03*
Y390000D02*
D03*
X40000D02*
D03*
Y-10000D02*
D03*
D20*
X204000Y312550D02*
D03*
Y67450D02*
D03*
D21*
X165900Y139200D02*
D03*
Y126500D02*
D03*
X191300Y259850D02*
D03*
Y247150D02*
D03*
Y234450D02*
D03*
Y221750D02*
D03*
Y209050D02*
D03*
Y196350D02*
D03*
Y183650D02*
D03*
Y170950D02*
D03*
Y158250D02*
D03*
Y145550D02*
D03*
Y132850D02*
D03*
Y120150D02*
D03*
X165900Y113800D02*
D03*
Y151900D02*
D03*
Y164600D02*
D03*
Y177300D02*
D03*
Y190000D02*
D03*
Y202700D02*
D03*
Y215400D02*
D03*
Y228100D02*
D03*
Y240800D02*
D03*
Y253500D02*
D03*
Y266200D02*
D03*
D22*
X226000Y285000D02*
D03*
Y86000D02*
D03*
X246000Y386000D02*
D03*
X256000Y366000D02*
D03*
X246000Y346000D02*
D03*
X256000Y326000D02*
D03*
X246000Y306000D02*
D03*
X256000Y286000D02*
D03*
X246000Y266000D02*
D03*
X256000Y246000D02*
D03*
X246000Y226000D02*
D03*
X256000Y206000D02*
D03*
X246000Y186000D02*
D03*
X256000Y166000D02*
D03*
X246000Y146000D02*
D03*
X256000Y126000D02*
D03*
X246000Y106000D02*
D03*
X256000Y86000D02*
D03*
X246000Y66000D02*
D03*
X256000Y46000D02*
D03*
X246000Y26000D02*
D03*
X256000Y6000D02*
D03*
X246000Y-14000D02*
D03*
X236000Y366000D02*
D03*
X226000Y346000D02*
D03*
X236000Y326000D02*
D03*
Y286000D02*
D03*
Y246000D02*
D03*
Y206000D02*
D03*
Y166000D02*
D03*
Y126000D02*
D03*
Y86000D02*
D03*
Y46000D02*
D03*
X226000Y26000D02*
D03*
X236000Y6000D02*
D03*
X216000Y366000D02*
D03*
X206000Y346000D02*
D03*
Y26000D02*
D03*
X186000Y386000D02*
D03*
X196000Y366000D02*
D03*
X186000Y346000D02*
D03*
Y26000D02*
D03*
X196000Y6000D02*
D03*
X186000Y-14000D02*
D03*
X166000Y386000D02*
D03*
X176000Y366000D02*
D03*
X166000Y346000D02*
D03*
X176000Y326000D02*
D03*
X166000Y306000D02*
D03*
Y66000D02*
D03*
X176000Y46000D02*
D03*
X166000Y26000D02*
D03*
X176000Y6000D02*
D03*
X166000Y-14000D02*
D03*
X146000Y386000D02*
D03*
X156000Y366000D02*
D03*
X146000Y346000D02*
D03*
X156000Y326000D02*
D03*
X146000Y66000D02*
D03*
X156000Y46000D02*
D03*
X146000Y26000D02*
D03*
X156000Y6000D02*
D03*
X146000Y-14000D02*
D03*
X126000Y386000D02*
D03*
X136000Y366000D02*
D03*
X126000Y346000D02*
D03*
X136000Y326000D02*
D03*
X126000Y66000D02*
D03*
X136000Y46000D02*
D03*
X126000Y26000D02*
D03*
X136000Y6000D02*
D03*
X126000Y-14000D02*
D03*
X106000Y386000D02*
D03*
X116000Y366000D02*
D03*
X106000Y346000D02*
D03*
X116000Y326000D02*
D03*
X106000Y66000D02*
D03*
X116000Y46000D02*
D03*
X106000Y26000D02*
D03*
X116000Y6000D02*
D03*
X106000Y-14000D02*
D03*
X86000Y386000D02*
D03*
X96000Y366000D02*
D03*
X86000Y346000D02*
D03*
X96000Y326000D02*
D03*
Y246000D02*
D03*
X86000Y106000D02*
D03*
X96000Y86000D02*
D03*
X86000Y66000D02*
D03*
X96000Y46000D02*
D03*
X86000Y26000D02*
D03*
X96000Y6000D02*
D03*
X86000Y-14000D02*
D03*
X66000Y386000D02*
D03*
X76000Y366000D02*
D03*
X66000Y346000D02*
D03*
X76000Y326000D02*
D03*
X66000Y186000D02*
D03*
X76000Y86000D02*
D03*
X66000Y66000D02*
D03*
X76000Y46000D02*
D03*
X66000Y26000D02*
D03*
X76000Y6000D02*
D03*
X66000Y-14000D02*
D03*
X56000Y366000D02*
D03*
X46000Y346000D02*
D03*
X56000Y326000D02*
D03*
Y86000D02*
D03*
X46000Y66000D02*
D03*
X56000Y46000D02*
D03*
X46000Y26000D02*
D03*
X56000Y6000D02*
D03*
X36000Y366000D02*
D03*
X26000Y346000D02*
D03*
X36000Y326000D02*
D03*
X26000Y66000D02*
D03*
X36000Y46000D02*
D03*
X26000Y26000D02*
D03*
X6000Y386000D02*
D03*
X16000Y366000D02*
D03*
X6000Y346000D02*
D03*
X16000Y326000D02*
D03*
Y286000D02*
D03*
X6000Y266000D02*
D03*
Y226000D02*
D03*
X16000Y206000D02*
D03*
Y166000D02*
D03*
X6000Y146000D02*
D03*
Y106000D02*
D03*
X16000Y86000D02*
D03*
X6000Y66000D02*
D03*
X16000Y46000D02*
D03*
X6000Y26000D02*
D03*
X16000Y6000D02*
D03*
X6000Y-14000D02*
D03*
X50000Y92000D02*
D03*
X55000Y95000D02*
D03*
X65000D02*
D03*
X70000Y100000D02*
D03*
X75000Y105000D02*
D03*
X100000D02*
D03*
Y100000D02*
D03*
Y95000D02*
D03*
Y90000D02*
D03*
X105000D02*
D03*
X110000D02*
D03*
X115000D02*
D03*
X120000D02*
D03*
X130000Y80000D02*
D03*
X135000D02*
D03*
X140000D02*
D03*
X145000D02*
D03*
X150000D02*
D03*
X155000D02*
D03*
X160000D02*
D03*
X165000D02*
D03*
X170000D02*
D03*
D03*
X175000D02*
D03*
X180000D02*
D03*
Y75000D02*
D03*
Y70000D02*
D03*
Y65000D02*
D03*
X214000Y45000D02*
D03*
X219000Y48000D02*
D03*
X223000Y52000D02*
D03*
X228000Y63000D02*
D03*
X227000Y75000D02*
D03*
X226000Y81000D02*
D03*
X228000Y90000D02*
D03*
X230000Y95000D02*
D03*
Y100000D02*
D03*
Y105000D02*
D03*
Y110000D02*
D03*
Y115000D02*
D03*
Y120000D02*
D03*
Y125000D02*
D03*
Y130000D02*
D03*
Y135000D02*
D03*
Y140000D02*
D03*
Y145000D02*
D03*
Y150000D02*
D03*
D03*
Y155000D02*
D03*
Y160000D02*
D03*
Y165000D02*
D03*
Y170000D02*
D03*
Y175000D02*
D03*
Y180000D02*
D03*
Y185000D02*
D03*
Y190000D02*
D03*
Y195000D02*
D03*
Y200000D02*
D03*
Y205000D02*
D03*
Y210000D02*
D03*
Y215000D02*
D03*
Y220000D02*
D03*
Y225000D02*
D03*
Y230000D02*
D03*
Y235000D02*
D03*
Y240000D02*
D03*
Y245000D02*
D03*
Y250000D02*
D03*
Y255000D02*
D03*
Y260000D02*
D03*
Y265000D02*
D03*
Y270000D02*
D03*
Y275000D02*
D03*
Y280000D02*
D03*
X222000Y290000D02*
D03*
Y295000D02*
D03*
X195000Y336000D02*
D03*
X190000Y333000D02*
D03*
X186000Y329000D02*
D03*
X180000Y310000D02*
D03*
X185000Y300000D02*
D03*
X180000Y297000D02*
D03*
X174000D02*
D03*
X168000Y298000D02*
D03*
X164000Y301000D02*
D03*
X160000Y305000D02*
D03*
X155000D02*
D03*
X150000D02*
D03*
X145000D02*
D03*
X140000D02*
D03*
X135000D02*
D03*
X130000Y310000D02*
D03*
X125000D02*
D03*
X120000D02*
D03*
X115000D02*
D03*
X110000D02*
D03*
X105000D02*
D03*
X70000Y307000D02*
D03*
X64000D02*
D03*
X55000Y309000D02*
D03*
X50000Y310000D02*
D03*
X45000D02*
D03*
X40000D02*
D03*
X30000D02*
D03*
X25000D02*
D03*
Y305000D02*
D03*
Y300000D02*
D03*
Y295000D02*
D03*
Y290000D02*
D03*
Y285000D02*
D03*
Y280000D02*
D03*
Y275000D02*
D03*
Y270000D02*
D03*
Y265000D02*
D03*
Y260000D02*
D03*
Y255000D02*
D03*
Y250000D02*
D03*
Y245000D02*
D03*
Y240000D02*
D03*
Y235000D02*
D03*
Y230000D02*
D03*
Y225000D02*
D03*
Y220000D02*
D03*
Y215000D02*
D03*
Y210000D02*
D03*
Y205000D02*
D03*
Y200000D02*
D03*
Y195000D02*
D03*
Y190000D02*
D03*
Y185000D02*
D03*
Y175000D02*
D03*
Y170000D02*
D03*
Y165000D02*
D03*
Y160000D02*
D03*
Y155000D02*
D03*
Y150000D02*
D03*
Y180000D02*
D03*
Y145000D02*
D03*
Y140000D02*
D03*
Y135000D02*
D03*
Y130000D02*
D03*
Y125000D02*
D03*
Y120000D02*
D03*
Y115000D02*
D03*
Y110000D02*
D03*
Y105000D02*
D03*
Y100000D02*
D03*
Y95000D02*
D03*
Y90000D02*
D03*
X30000D02*
D03*
X35000D02*
D03*
X40000D02*
D03*
X45000D02*
D03*
X100000Y310000D02*
D03*
Y305000D02*
D03*
Y300000D02*
D03*
Y295000D02*
D03*
Y290000D02*
D03*
Y285000D02*
D03*
Y280000D02*
D03*
X95000Y285000D02*
D03*
X90000Y290000D02*
D03*
X85000Y295000D02*
D03*
X80000Y300000D02*
D03*
X75000Y305000D02*
D03*
X220000Y-25000D02*
D03*
Y375000D02*
D03*
Y405000D02*
D03*
X205000Y390000D02*
D03*
X40000Y375000D02*
D03*
X25000Y390000D02*
D03*
X30000Y130000D02*
D03*
X40000D02*
D03*
X45000D02*
D03*
X50000D02*
D03*
X55000Y135000D02*
D03*
X60000Y140000D02*
D03*
X65000Y145000D02*
D03*
Y150000D02*
D03*
X60000D02*
D03*
X55000D02*
D03*
X50000D02*
D03*
X45000D02*
D03*
X40000D02*
D03*
X35000D02*
D03*
X30000D02*
D03*
Y213000D02*
D03*
X35000Y212000D02*
D03*
X40000Y210000D02*
D03*
X45000D02*
D03*
X50000D02*
D03*
X55000Y205000D02*
D03*
Y210000D02*
D03*
X60000Y205000D02*
D03*
X65000Y200000D02*
D03*
X60000Y195000D02*
D03*
X55000Y190000D02*
D03*
X50000D02*
D03*
X40000D02*
D03*
X45000D02*
D03*
X35000D02*
D03*
X30000D02*
D03*
X95000Y225000D02*
D03*
Y230000D02*
D03*
Y235000D02*
D03*
Y240000D02*
D03*
X90000Y225000D02*
D03*
X85000D02*
D03*
X80000Y230000D02*
D03*
X75000Y235000D02*
D03*
X70000Y240000D02*
D03*
X65000Y245000D02*
D03*
X60000D02*
D03*
X55000Y247000D02*
D03*
X50000Y250000D02*
D03*
X45000D02*
D03*
X40000D02*
D03*
X35000D02*
D03*
X30000D02*
D03*
Y270000D02*
D03*
X35000D02*
D03*
X40000D02*
D03*
X45000D02*
D03*
X50000D02*
D03*
X56000Y271000D02*
D03*
X61000D02*
D03*
X66000Y269000D02*
D03*
X70000Y265000D02*
D03*
X75000Y260000D02*
D03*
X60000Y165000D02*
D03*
X65000D02*
D03*
X70000D02*
D03*
X75000D02*
D03*
X80000D02*
D03*
X85000D02*
D03*
D03*
X90000D02*
D03*
X95000D02*
D03*
X75000Y170000D02*
D03*
X80000Y175000D02*
D03*
X85000Y180000D02*
D03*
X90000D02*
D03*
X95000D02*
D03*
X100000D02*
D03*
Y175000D02*
D03*
Y170000D02*
D03*
Y165000D02*
D03*
X75000Y255000D02*
D03*
Y250000D02*
D03*
Y245000D02*
D03*
Y240000D02*
D03*
X80000D02*
D03*
X85000D02*
D03*
X90000D02*
D03*
X34000Y376000D02*
D03*
X46000D02*
D03*
X26000Y384000D02*
D03*
X29000Y379000D02*
D03*
X26000Y396000D02*
D03*
X29000Y401000D02*
D03*
X214000Y376000D02*
D03*
X226000D02*
D03*
X231000Y380000D02*
D03*
X209000D02*
D03*
X206000Y385000D02*
D03*
X234000D02*
D03*
Y396000D02*
D03*
X235000Y391000D02*
D03*
X206000Y395000D02*
D03*
X214000Y404000D02*
D03*
X209000Y400000D02*
D03*
X226000Y404000D02*
D03*
X231000Y401000D02*
D03*
X182000Y305000D02*
D03*
X181000Y320000D02*
D03*
X180000Y315000D02*
D03*
X183000Y325000D02*
D03*
X213000Y336000D02*
D03*
X201000Y337000D02*
D03*
X219000Y333000D02*
D03*
X223000Y329000D02*
D03*
X228000Y318000D02*
D03*
X226000Y323000D02*
D03*
X228000Y312000D02*
D03*
X227000Y306000D02*
D03*
X224000Y300000D02*
D03*
X25000Y-10000D02*
D03*
X40000Y-25000D02*
D03*
X29000Y-21000D02*
D03*
X34000Y-24000D02*
D03*
X26000Y-16000D02*
D03*
Y-4000D02*
D03*
X54000D02*
D03*
X46000Y-24000D02*
D03*
X51000Y-20000D02*
D03*
X54000Y-15000D02*
D03*
X55000Y-9000D02*
D03*
X51000Y1000D02*
D03*
X29000D02*
D03*
X40000Y5000D02*
D03*
X46000Y4000D02*
D03*
X34000D02*
D03*
X209000Y43000D02*
D03*
X203000D02*
D03*
X183000Y55000D02*
D03*
X181000Y60000D02*
D03*
X186000Y50000D02*
D03*
X191000Y46000D02*
D03*
X197000Y44000D02*
D03*
X226000Y57000D02*
D03*
X228000Y69000D02*
D03*
X209000Y-21000D02*
D03*
X206000Y-16000D02*
D03*
X205000Y-11000D02*
D03*
X214000Y-24000D02*
D03*
X226000D02*
D03*
X231000Y-21000D02*
D03*
X234000Y-16000D02*
D03*
X206000Y-5000D02*
D03*
X35000Y130000D02*
D03*
Y310000D02*
D03*
X100000Y110000D02*
D03*
X85000Y115000D02*
D03*
X80000Y110000D02*
D03*
X100000Y115000D02*
D03*
Y120000D02*
D03*
X95000D02*
D03*
X90000D02*
D03*
X59000Y307000D02*
D03*
D03*
X207000Y337000D02*
D03*
D03*
X220000Y5000D02*
D03*
X214000Y4000D02*
D03*
X209000Y-0D02*
D03*
X226000Y4000D02*
D03*
X231000Y1000D02*
D03*
X235000Y-10000D02*
D03*
X234000Y-4000D02*
D03*
X51000Y379000D02*
D03*
X54000Y384000D02*
D03*
X55000Y390000D02*
D03*
X54000Y396000D02*
D03*
X46000Y404000D02*
D03*
X51000Y401000D02*
D03*
X40000Y405000D02*
D03*
X34000Y404000D02*
D03*
D23*
X126000Y180000D02*
D03*
Y160000D02*
D03*
Y170000D02*
D03*
Y220000D02*
D03*
Y240000D02*
D03*
Y230000D02*
D03*
Y110000D02*
D03*
Y120000D02*
D03*
Y100000D02*
D03*
X49000Y290000D02*
D03*
Y300000D02*
D03*
Y280000D02*
D03*
Y220000D02*
D03*
Y230000D02*
D03*
Y240000D02*
D03*
Y160000D02*
D03*
Y180000D02*
D03*
Y120000D02*
D03*
Y100000D02*
D03*
X126000Y300000D02*
D03*
Y290000D02*
D03*
Y280000D02*
D03*
X49000Y170000D02*
D03*
Y110000D02*
D03*
M02*
