G04*
G04 #@! TF.GenerationSoftware,Altium Limited,Altium Designer,23.0.1 (38)*
G04*
G04 Layer_Physical_Order=1*
G04 Layer_Color=255*
%FSLAX44Y44*%
%MOMM*%
G71*
G04*
G04 #@! TF.SameCoordinates,DF40126D-40D4-41C7-8A41-B1E1652C26B1*
G04*
G04*
G04 #@! TF.FilePolarity,Positive*
G04*
G01*
G75*
%ADD13R,1.0000X0.3000*%
%ADD14R,0.7000X0.3000*%
%ADD18C,0.2940*%
%ADD19C,3.5000*%
%ADD20C,3.0000*%
%ADD21O,1.3000X1.0000*%
%ADD22C,0.3000*%
%ADD23C,0.5000*%
G36*
X260000Y0D02*
X0D01*
Y1000D01*
Y380000D01*
X260000D01*
Y0D01*
D02*
G37*
%LPC*%
G36*
X205974Y332590D02*
X205270D01*
Y313820D01*
X224040D01*
Y314524D01*
X223270Y318396D01*
X221759Y322043D01*
X219566Y325325D01*
X216775Y328116D01*
X213493Y330309D01*
X209846Y331820D01*
X205974Y332590D01*
D02*
G37*
G36*
X202730D02*
X202026D01*
X198155Y331820D01*
X194508Y330309D01*
X191225Y328116D01*
X188434Y325325D01*
X186241Y322043D01*
X184730Y318396D01*
X183960Y314524D01*
Y313820D01*
X202730D01*
Y332590D01*
D02*
G37*
G36*
X94040Y311940D02*
X78960D01*
Y303860D01*
X94040D01*
Y311940D01*
D02*
G37*
G36*
X17040D02*
X1960D01*
Y303860D01*
X17040D01*
Y311940D01*
D02*
G37*
G36*
X119040Y304040D02*
X114270D01*
Y301270D01*
X119040D01*
Y304040D01*
D02*
G37*
G36*
X42040D02*
X37270D01*
Y301270D01*
X42040D01*
Y304040D01*
D02*
G37*
G36*
X111730D02*
X106960D01*
Y301270D01*
X111730D01*
Y304040D01*
D02*
G37*
G36*
X34730D02*
X29960D01*
Y301270D01*
X34730D01*
Y304040D01*
D02*
G37*
G36*
X127002Y303040D02*
X124998D01*
X123145Y302273D01*
X121727Y300855D01*
X121236Y299667D01*
X120461Y298746D01*
X120393Y298622D01*
X120310Y298540D01*
X119040Y298545D01*
Y299041D01*
X113000D01*
X106960D01*
Y295960D01*
Y285960D01*
Y280959D01*
X113000D01*
X119040D01*
Y281455D01*
X120310Y281460D01*
X120393Y281378D01*
X120461Y281254D01*
X121236Y280333D01*
X121727Y279145D01*
X123145Y277727D01*
X124998Y276960D01*
X127002D01*
X128855Y277727D01*
X130273Y279145D01*
X131040Y280998D01*
Y283002D01*
X130273Y284855D01*
X129128Y286000D01*
X130273Y287145D01*
X131040Y288997D01*
Y291003D01*
X130273Y292855D01*
X129128Y294000D01*
X130273Y295145D01*
X131040Y296998D01*
Y299002D01*
X130273Y300855D01*
X128855Y302273D01*
X127002Y303040D01*
D02*
G37*
G36*
X50002D02*
X47997D01*
X46145Y302273D01*
X44727Y300855D01*
X44236Y299667D01*
X43461Y298746D01*
X43393Y298622D01*
X43310Y298540D01*
X42040Y298545D01*
Y299041D01*
X36000D01*
X29960D01*
Y295960D01*
Y285960D01*
Y280959D01*
X36000D01*
X42040D01*
Y281455D01*
X43310Y281460D01*
X43393Y281378D01*
X43461Y281254D01*
X44236Y280333D01*
X44727Y279145D01*
X46145Y277727D01*
X47997Y276960D01*
X50002D01*
X51855Y277727D01*
X53273Y279145D01*
X54040Y280998D01*
Y283002D01*
X53273Y284855D01*
X52128Y286000D01*
X53273Y287145D01*
X54040Y288997D01*
Y291003D01*
X53273Y292855D01*
X52128Y294000D01*
X53273Y295145D01*
X54040Y296998D01*
Y299002D01*
X53273Y300855D01*
X51855Y302273D01*
X50002Y303040D01*
D02*
G37*
G36*
X119040Y278730D02*
X114270D01*
Y275960D01*
X119040D01*
Y278730D01*
D02*
G37*
G36*
X111730D02*
X106960D01*
Y275960D01*
X111730D01*
Y278730D01*
D02*
G37*
G36*
X42040D02*
X37270D01*
Y275960D01*
X42040D01*
Y278730D01*
D02*
G37*
G36*
X34730D02*
X29960D01*
Y275960D01*
X34730D01*
Y278730D01*
D02*
G37*
G36*
X94040Y276140D02*
X78960D01*
Y268060D01*
X94040D01*
Y276140D01*
D02*
G37*
G36*
X17040D02*
X1960D01*
Y268060D01*
X17040D01*
Y276140D01*
D02*
G37*
G36*
X94040Y251940D02*
X78960D01*
Y243860D01*
X94040D01*
Y251940D01*
D02*
G37*
G36*
X17040D02*
X1960D01*
Y243860D01*
X17040D01*
Y251940D01*
D02*
G37*
G36*
X119040Y244040D02*
X114270D01*
Y241270D01*
X119040D01*
Y244040D01*
D02*
G37*
G36*
X42040D02*
X37270D01*
Y241270D01*
X42040D01*
Y244040D01*
D02*
G37*
G36*
X34730D02*
X29960D01*
Y241270D01*
X34730D01*
Y244040D01*
D02*
G37*
G36*
X111730D02*
X106960D01*
Y241270D01*
X111730D01*
Y244040D01*
D02*
G37*
G36*
X50002Y243040D02*
X47997D01*
X46145Y242273D01*
X44727Y240855D01*
X44236Y239667D01*
X43461Y238746D01*
X43393Y238622D01*
X43310Y238540D01*
X42040Y238545D01*
Y239041D01*
X36000D01*
X29960D01*
Y235960D01*
Y225960D01*
Y220959D01*
X36000D01*
X42040D01*
Y221455D01*
X43310Y221460D01*
X43393Y221378D01*
X43461Y221254D01*
X44236Y220333D01*
X44727Y219145D01*
X46145Y217727D01*
X47997Y216960D01*
X50002D01*
X51855Y217727D01*
X53273Y219145D01*
X54040Y220998D01*
Y223002D01*
X53273Y224855D01*
X52128Y226000D01*
X53273Y227145D01*
X54040Y228997D01*
Y231003D01*
X53273Y232855D01*
X52128Y234000D01*
X53273Y235145D01*
X54040Y236998D01*
Y239002D01*
X53273Y240855D01*
X51855Y242273D01*
X50002Y243040D01*
D02*
G37*
G36*
X119040Y218730D02*
X114270D01*
Y215960D01*
X119040D01*
Y218730D01*
D02*
G37*
G36*
X111730D02*
X106960D01*
Y215960D01*
X111730D01*
Y218730D01*
D02*
G37*
G36*
X42040D02*
X37270D01*
Y215960D01*
X42040D01*
Y218730D01*
D02*
G37*
G36*
X34730D02*
X29960D01*
Y215960D01*
X34730D01*
Y218730D01*
D02*
G37*
G36*
X94040Y216140D02*
X78960D01*
Y208060D01*
X94040D01*
Y216140D01*
D02*
G37*
G36*
X17040D02*
X1960D01*
Y208060D01*
X17040D01*
Y216140D01*
D02*
G37*
G36*
X94040Y191940D02*
X78960D01*
Y183860D01*
X94040D01*
Y191940D01*
D02*
G37*
G36*
X17040D02*
X1960D01*
Y183860D01*
X17040D01*
Y191940D01*
D02*
G37*
G36*
X119040Y184040D02*
X114270D01*
Y181270D01*
X119040D01*
Y184040D01*
D02*
G37*
G36*
X42040D02*
X37270D01*
Y181270D01*
X42040D01*
Y184040D01*
D02*
G37*
G36*
X111730D02*
X106960D01*
Y181270D01*
X111730D01*
Y184040D01*
D02*
G37*
G36*
X34730D02*
X29960D01*
Y181270D01*
X34730D01*
Y184040D01*
D02*
G37*
G36*
X50002Y183040D02*
X47997D01*
X46145Y182273D01*
X44727Y180855D01*
X44236Y179667D01*
X43461Y178746D01*
X43393Y178622D01*
X43310Y178540D01*
X42040Y178545D01*
Y179041D01*
X36000D01*
X29960D01*
Y175960D01*
Y165960D01*
Y160959D01*
X36000D01*
X42040D01*
Y161455D01*
X43310Y161460D01*
X43393Y161378D01*
X43461Y161254D01*
X44236Y160333D01*
X44727Y159145D01*
X46145Y157727D01*
X47997Y156960D01*
X50002D01*
X51855Y157727D01*
X53273Y159145D01*
X54040Y160998D01*
Y163002D01*
X53273Y164855D01*
X52128Y166000D01*
X53273Y167145D01*
X54040Y168997D01*
Y171003D01*
X53273Y172855D01*
X52128Y174000D01*
X53273Y175145D01*
X54040Y176998D01*
Y179002D01*
X53273Y180855D01*
X51855Y182273D01*
X50002Y183040D01*
D02*
G37*
G36*
X119040Y158730D02*
X114270D01*
Y155960D01*
X119040D01*
Y158730D01*
D02*
G37*
G36*
X111730D02*
X106960D01*
Y155960D01*
X111730D01*
Y158730D01*
D02*
G37*
G36*
X42040D02*
X37270D01*
Y155960D01*
X42040D01*
Y158730D01*
D02*
G37*
G36*
X34730D02*
X29960D01*
Y155960D01*
X34730D01*
Y158730D01*
D02*
G37*
G36*
X94040Y156140D02*
X78960D01*
Y148060D01*
X94040D01*
Y156140D01*
D02*
G37*
G36*
X17040D02*
X1960D01*
Y148060D01*
X17040D01*
Y156140D01*
D02*
G37*
G36*
X94040Y131940D02*
X78960D01*
Y123860D01*
X94040D01*
Y131940D01*
D02*
G37*
G36*
X17040D02*
X1960D01*
Y123860D01*
X17040D01*
Y131940D01*
D02*
G37*
G36*
X119040Y124040D02*
X114270D01*
Y121270D01*
X119040D01*
Y124040D01*
D02*
G37*
G36*
X42040D02*
X37270D01*
Y121270D01*
X42040D01*
Y124040D01*
D02*
G37*
G36*
X111730D02*
X106960D01*
Y121270D01*
X111730D01*
Y124040D01*
D02*
G37*
G36*
X34730D02*
X29960D01*
Y121270D01*
X34730D01*
Y124040D01*
D02*
G37*
G36*
X127002Y123040D02*
X124998D01*
X123145Y122273D01*
X121727Y120855D01*
X121236Y119668D01*
X120461Y118746D01*
X120393Y118622D01*
X120310Y118540D01*
X119040Y118545D01*
Y119040D01*
X113000D01*
X106960D01*
Y115960D01*
Y105960D01*
Y100960D01*
X113000D01*
X119040D01*
Y101455D01*
X120310Y101460D01*
X120393Y101378D01*
X120461Y101254D01*
X121236Y100332D01*
X121727Y99145D01*
X123145Y97727D01*
X124998Y96960D01*
X127002D01*
X128855Y97727D01*
X130273Y99145D01*
X131040Y100997D01*
Y103003D01*
X130273Y104855D01*
X129128Y106000D01*
X130273Y107145D01*
X131040Y108997D01*
Y111003D01*
X130273Y112855D01*
X129128Y114000D01*
X130273Y115145D01*
X131040Y116997D01*
Y119003D01*
X130273Y120855D01*
X128855Y122273D01*
X127002Y123040D01*
D02*
G37*
G36*
X50002D02*
X47997D01*
X46145Y122273D01*
X44727Y120855D01*
X44167Y119503D01*
X43429Y118593D01*
X43400Y118538D01*
X42040D01*
Y119040D01*
X36000D01*
X29960D01*
Y115960D01*
Y105960D01*
Y100960D01*
X36000D01*
X42040D01*
Y101455D01*
X43310Y101460D01*
X43393Y101378D01*
X43461Y101254D01*
X44236Y100332D01*
X44727Y99145D01*
X46145Y97727D01*
X47997Y96960D01*
X50002D01*
X51855Y97727D01*
X53273Y99145D01*
X54040Y100997D01*
Y103003D01*
X53273Y104855D01*
X52128Y106000D01*
X53273Y107145D01*
X54040Y108997D01*
Y111003D01*
X53273Y112855D01*
X52128Y114000D01*
X53273Y115145D01*
X54040Y116997D01*
Y119003D01*
X53273Y120855D01*
X51855Y122273D01*
X50002Y123040D01*
D02*
G37*
G36*
X224040Y311280D02*
X204000D01*
X183960D01*
Y310576D01*
X184730Y306705D01*
X186241Y303057D01*
X188434Y299775D01*
X191225Y296984D01*
X194508Y294791D01*
X194525Y294784D01*
X194277Y293538D01*
X149000D01*
X147646Y293269D01*
X146498Y292502D01*
X135498Y281502D01*
X134731Y280354D01*
X134462Y279000D01*
Y246465D01*
X126535Y238538D01*
X125016D01*
X125016Y238538D01*
X119040D01*
Y239041D01*
X113000D01*
X106960D01*
Y235960D01*
Y225960D01*
Y220959D01*
X113000D01*
X119040D01*
Y221462D01*
X135000D01*
X136354Y221731D01*
X137502Y222498D01*
X152502Y237498D01*
X153269Y238646D01*
X153538Y240000D01*
Y271535D01*
X154466Y272462D01*
X158208D01*
X158727Y271192D01*
X157814Y270003D01*
X157054Y268169D01*
X156795Y266200D01*
X157054Y264232D01*
X157814Y262398D01*
X159023Y260823D01*
X159462Y260485D01*
Y259215D01*
X159023Y258878D01*
X157814Y257303D01*
X157054Y255469D01*
X156795Y253500D01*
X157054Y251532D01*
X157814Y249698D01*
X159023Y248123D01*
X159462Y247785D01*
Y246515D01*
X159023Y246178D01*
X157814Y244603D01*
X157054Y242768D01*
X156795Y240800D01*
X157054Y238832D01*
X157814Y236998D01*
X159023Y235422D01*
X159462Y235085D01*
Y233815D01*
X159023Y233478D01*
X157814Y231903D01*
X157054Y230068D01*
X156795Y228100D01*
X157054Y226132D01*
X157814Y224298D01*
X159023Y222722D01*
X159462Y222385D01*
Y221115D01*
X159023Y220778D01*
X157814Y219203D01*
X157054Y217369D01*
X156795Y215400D01*
X157054Y213432D01*
X157814Y211598D01*
X159023Y210023D01*
X159462Y209685D01*
Y208415D01*
X159023Y208078D01*
X157814Y206503D01*
X157054Y204669D01*
X156795Y202700D01*
X157054Y200732D01*
X157814Y198898D01*
X159023Y197323D01*
X159462Y196985D01*
Y195715D01*
X159023Y195378D01*
X157814Y193803D01*
X157054Y191968D01*
X156795Y190000D01*
X157054Y188032D01*
X157814Y186198D01*
X159023Y184622D01*
X159462Y184285D01*
Y183015D01*
X159023Y182678D01*
X157814Y181103D01*
X157054Y179268D01*
X156795Y177300D01*
X157054Y175332D01*
X157814Y173498D01*
X159023Y171922D01*
X159462Y171585D01*
Y170315D01*
X159023Y169978D01*
X157814Y168403D01*
X157054Y166569D01*
X156795Y164600D01*
X157054Y162632D01*
X157814Y160798D01*
X159023Y159222D01*
X159462Y158885D01*
Y157615D01*
X159023Y157278D01*
X157814Y155703D01*
X157054Y153869D01*
X156795Y151900D01*
X157054Y149932D01*
X157814Y148098D01*
X159023Y146523D01*
X159462Y146185D01*
Y144915D01*
X159023Y144578D01*
X157814Y143003D01*
X157054Y141168D01*
X156795Y139200D01*
X157054Y137232D01*
X157814Y135398D01*
X159023Y133822D01*
X159462Y133485D01*
Y132215D01*
X159023Y131878D01*
X157814Y130303D01*
X157054Y128469D01*
X156795Y126500D01*
X157054Y124532D01*
X157814Y122698D01*
X159023Y121123D01*
X159462Y120785D01*
Y119515D01*
X159023Y119178D01*
X157814Y117603D01*
X157054Y115768D01*
X156795Y113800D01*
X157054Y111832D01*
X157814Y109998D01*
X159023Y108422D01*
X159265Y108236D01*
X158914Y106905D01*
X158199Y106804D01*
X154538Y110465D01*
Y170000D01*
X154269Y171354D01*
X153502Y172502D01*
X148502Y177502D01*
X147354Y178269D01*
X146000Y178538D01*
X125000D01*
X125000Y178538D01*
X119040D01*
Y179041D01*
X113000D01*
X106960D01*
Y175960D01*
Y165960D01*
Y160959D01*
X113000D01*
X119040D01*
Y161462D01*
X132535D01*
X133462Y160535D01*
Y101000D01*
X133731Y99646D01*
X134498Y98498D01*
X146498Y86498D01*
X147646Y85731D01*
X149000Y85462D01*
X192600D01*
X192985Y84192D01*
X191225Y83016D01*
X188434Y80225D01*
X186241Y76943D01*
X184730Y73296D01*
X183960Y69424D01*
Y68720D01*
X204000D01*
X224040D01*
Y69424D01*
X223270Y73296D01*
X221759Y76943D01*
X219566Y80225D01*
X216775Y83016D01*
X213493Y85209D01*
X212974Y85424D01*
X212853Y86849D01*
X225502Y99498D01*
X226269Y100646D01*
X226538Y102000D01*
Y138000D01*
X226269Y139354D01*
X225502Y140502D01*
X217952Y148052D01*
X216804Y148819D01*
X215450Y149088D01*
X201991D01*
X201899Y149147D01*
X201501Y149413D01*
X201474Y149418D01*
X201450Y149433D01*
X198418Y150614D01*
X198178Y150928D01*
X197738Y151265D01*
Y152535D01*
X198178Y152872D01*
X199386Y154448D01*
X200146Y156282D01*
X200405Y158250D01*
X200146Y160219D01*
X199386Y162053D01*
X198178Y163628D01*
X197738Y163965D01*
Y165235D01*
X198178Y165572D01*
X199386Y167148D01*
X200146Y168982D01*
X200405Y170950D01*
X200146Y172918D01*
X199386Y174753D01*
X198178Y176328D01*
X197738Y176665D01*
Y177935D01*
X198178Y178272D01*
X199386Y179848D01*
X200146Y181682D01*
X200405Y183650D01*
X200146Y185618D01*
X199386Y187453D01*
X198178Y189028D01*
X197738Y189365D01*
Y190635D01*
X198178Y190972D01*
X199386Y192548D01*
X200146Y194382D01*
X200405Y196350D01*
X200146Y198319D01*
X199386Y200153D01*
X198178Y201728D01*
X197738Y202065D01*
Y203335D01*
X198178Y203673D01*
X199386Y205248D01*
X200146Y207082D01*
X200405Y209050D01*
X200146Y211019D01*
X199386Y212853D01*
X198178Y214428D01*
X197738Y214765D01*
Y216035D01*
X198178Y216373D01*
X199386Y217948D01*
X200146Y219782D01*
X200405Y221750D01*
X200146Y223718D01*
X199386Y225553D01*
X198178Y227128D01*
X197738Y227465D01*
Y228735D01*
X198178Y229072D01*
X198418Y229386D01*
X201450Y230567D01*
X201474Y230582D01*
X201501Y230588D01*
X201899Y230853D01*
X201991Y230912D01*
X214450D01*
X215804Y231182D01*
X216952Y231948D01*
X225502Y240498D01*
X226269Y241646D01*
X226538Y243000D01*
Y277000D01*
X226269Y278354D01*
X225502Y279502D01*
X212502Y292502D01*
X212036Y292813D01*
X212177Y294246D01*
X213493Y294791D01*
X216775Y296984D01*
X219566Y299775D01*
X221759Y303057D01*
X223270Y306705D01*
X224040Y310576D01*
Y311280D01*
D02*
G37*
G36*
X119040Y98730D02*
X114270D01*
Y95960D01*
X119040D01*
Y98730D01*
D02*
G37*
G36*
X111730D02*
X106960D01*
Y95960D01*
X111730D01*
Y98730D01*
D02*
G37*
G36*
X42040D02*
X37270D01*
Y95960D01*
X42040D01*
Y98730D01*
D02*
G37*
G36*
X34730D02*
X29960D01*
Y95960D01*
X34730D01*
Y98730D01*
D02*
G37*
G36*
X94040Y96140D02*
X78960D01*
Y88060D01*
X94040D01*
Y96140D01*
D02*
G37*
G36*
X17040D02*
X1960D01*
Y88060D01*
X17040D01*
Y96140D01*
D02*
G37*
G36*
X224040Y66180D02*
X205270D01*
Y47410D01*
X205974D01*
X209846Y48180D01*
X213493Y49691D01*
X216775Y51884D01*
X219566Y54675D01*
X221759Y57958D01*
X223270Y61605D01*
X224040Y65476D01*
Y66180D01*
D02*
G37*
G36*
X202730D02*
X183960D01*
Y65476D01*
X184730Y61605D01*
X186241Y57958D01*
X188434Y54675D01*
X191225Y51884D01*
X194508Y49691D01*
X198155Y48180D01*
X202026Y47410D01*
X202730D01*
Y66180D01*
D02*
G37*
%LPD*%
G36*
X125581Y295535D02*
X124104Y294583D01*
X122443Y297080D01*
X123527Y298369D01*
X125581Y295535D01*
D02*
G37*
G36*
X124215Y288250D02*
X122478Y288530D01*
Y291470D01*
X124215Y291750D01*
Y288250D01*
D02*
G37*
G36*
X125581Y284465D02*
X123527Y281631D01*
X122443Y282920D01*
X124104Y285417D01*
X125581Y284465D01*
D02*
G37*
G36*
X48581Y295535D02*
X47104Y294583D01*
X45443Y297080D01*
X46528Y298369D01*
X48581Y295535D01*
D02*
G37*
G36*
X47215Y288250D02*
X45478Y288530D01*
Y291470D01*
X47215Y291750D01*
Y288250D01*
D02*
G37*
G36*
X48581Y284465D02*
X46528Y281631D01*
X45443Y282920D01*
X47104Y285417D01*
X48581Y284465D01*
D02*
G37*
G36*
Y235535D02*
X47104Y234583D01*
X45443Y237080D01*
X46528Y238369D01*
X48581Y235535D01*
D02*
G37*
G36*
X47215Y228250D02*
X45478Y228530D01*
Y231470D01*
X47215Y231750D01*
Y228250D01*
D02*
G37*
G36*
X48581Y224465D02*
X46528Y221630D01*
X45443Y222920D01*
X47104Y225417D01*
X48581Y224465D01*
D02*
G37*
G36*
Y175535D02*
X47104Y174583D01*
X45443Y177080D01*
X46528Y178369D01*
X48581Y175535D01*
D02*
G37*
G36*
X47215Y168250D02*
X45478Y168530D01*
Y171470D01*
X47215Y171750D01*
Y168250D01*
D02*
G37*
G36*
X48581Y164465D02*
X46528Y161631D01*
X45443Y162920D01*
X47104Y165417D01*
X48581Y164465D01*
D02*
G37*
G36*
X125581Y115535D02*
X124104Y114583D01*
X122443Y117080D01*
X123527Y118369D01*
X125581Y115535D01*
D02*
G37*
G36*
X124215Y108250D02*
X122478Y108530D01*
Y111470D01*
X124215Y111750D01*
Y108250D01*
D02*
G37*
G36*
X125581Y104465D02*
X123527Y101631D01*
X122443Y102920D01*
X124104Y105417D01*
X125581Y104465D01*
D02*
G37*
G36*
X48662Y115523D02*
X47190Y114554D01*
X45440Y116961D01*
X46517Y118288D01*
X48662Y115523D01*
D02*
G37*
G36*
X47215Y108250D02*
X45478Y108530D01*
Y111470D01*
X47215Y111750D01*
Y108250D01*
D02*
G37*
G36*
X48581Y104465D02*
X46528Y101631D01*
X45443Y102920D01*
X47104Y105417D01*
X48581Y104465D01*
D02*
G37*
G36*
X200510Y261320D02*
Y258380D01*
X196784Y256929D01*
Y262772D01*
X200510Y261320D01*
D02*
G37*
G36*
Y248620D02*
Y245680D01*
X196784Y244229D01*
Y250072D01*
X200510Y248620D01*
D02*
G37*
G36*
Y235920D02*
Y232980D01*
X196784Y231529D01*
Y237372D01*
X200510Y235920D01*
D02*
G37*
G36*
Y147020D02*
Y144080D01*
X196784Y142629D01*
Y148472D01*
X200510Y147020D01*
D02*
G37*
G36*
Y134320D02*
Y131380D01*
X196784Y129929D01*
Y135772D01*
X200510Y134320D01*
D02*
G37*
G36*
Y121620D02*
Y118680D01*
X196784Y117229D01*
Y123072D01*
X200510Y121620D01*
D02*
G37*
D13*
X86500Y92100D02*
D03*
Y127900D02*
D03*
Y212100D02*
D03*
Y247900D02*
D03*
Y152100D02*
D03*
Y187900D02*
D03*
X9500Y92100D02*
D03*
Y127900D02*
D03*
Y212100D02*
D03*
Y247900D02*
D03*
X86500Y272100D02*
D03*
Y307900D02*
D03*
X9500Y152100D02*
D03*
Y187900D02*
D03*
Y272100D02*
D03*
Y307900D02*
D03*
D14*
X113000Y100000D02*
D03*
Y105000D02*
D03*
Y110000D02*
D03*
Y115000D02*
D03*
Y120000D02*
D03*
Y220000D02*
D03*
Y225000D02*
D03*
Y230000D02*
D03*
Y235000D02*
D03*
Y240000D02*
D03*
Y160000D02*
D03*
Y165000D02*
D03*
Y170000D02*
D03*
Y175000D02*
D03*
Y180000D02*
D03*
X36000Y290000D02*
D03*
Y285000D02*
D03*
Y175000D02*
D03*
Y170000D02*
D03*
Y165000D02*
D03*
Y235000D02*
D03*
Y230000D02*
D03*
Y225000D02*
D03*
Y115000D02*
D03*
Y110000D02*
D03*
Y105000D02*
D03*
X113000Y295000D02*
D03*
Y290000D02*
D03*
Y285000D02*
D03*
X36000Y100000D02*
D03*
Y120000D02*
D03*
Y220000D02*
D03*
Y240000D02*
D03*
X113000Y280000D02*
D03*
Y300000D02*
D03*
X36000Y160000D02*
D03*
Y180000D02*
D03*
Y280000D02*
D03*
Y295000D02*
D03*
Y300000D02*
D03*
D18*
X122443Y105000D02*
X125443Y102000D01*
X113000Y105000D02*
X122443D01*
X125443Y102000D02*
X126000D01*
X122443Y285000D02*
X125443Y282000D01*
X113000Y285000D02*
X122443D01*
X125443Y282000D02*
X126000D01*
X113000Y295000D02*
X122443D01*
X125443Y298000D01*
X126000D01*
X113000Y290000D02*
X126000D01*
X45443Y285000D02*
X48443Y282000D01*
X49000D01*
X36000Y285000D02*
X45443D01*
X36000Y290000D02*
X49000D01*
X45443Y295000D02*
X48443Y298000D01*
X49000D01*
X36000Y295000D02*
X45443D01*
X45443Y235000D02*
X48443Y238000D01*
X36000Y235000D02*
X45443D01*
X48443Y238000D02*
X49000D01*
X36000Y225000D02*
X45443D01*
X48443Y222000D01*
X49000D01*
X48808Y230000D02*
X49051Y230243D01*
X48808Y230000D02*
X49000D01*
X36000D02*
X48808D01*
X45443Y175000D02*
X48443Y178000D01*
X36000Y175000D02*
X45443D01*
X48443Y178000D02*
X49000D01*
X36000Y105000D02*
X45443D01*
X48443Y102000D01*
X49000D01*
X36000Y115000D02*
X45557D01*
X48327Y117327D02*
Y117327D01*
X48106Y117549D02*
X48327Y117327D01*
X45557Y115000D02*
X48106Y117549D01*
X48443Y162000D02*
X49000D01*
X45443Y165000D02*
X48443Y162000D01*
X113000Y115000D02*
X122443D01*
X125443Y118000D01*
X126000D01*
X113000Y110000D02*
X126000D01*
X137000Y101000D02*
X149000Y89000D01*
X137000Y101000D02*
Y162000D01*
X149000Y89000D02*
X210000D01*
X36000Y165000D02*
X45443D01*
X144000Y105000D02*
X153000Y96000D01*
X206000D01*
X144000Y105000D02*
Y166000D01*
X206000Y96000D02*
X215000Y105000D01*
X210000Y89000D02*
X223000Y102000D01*
X215000Y105000D02*
Y127128D01*
X223000Y102000D02*
Y138000D01*
X210000Y290000D02*
X223000Y277000D01*
Y243000D02*
Y277000D01*
X149000Y290000D02*
X210000D01*
X150000Y273000D02*
X153000Y276000D01*
X150000Y240000D02*
Y273000D01*
X153000Y276000D02*
X203000D01*
X205000Y274000D01*
Y261572D02*
Y274000D01*
X125016Y235000D02*
X125016Y235000D01*
X113000Y235000D02*
X125016D01*
X125000Y175000D02*
X125000Y175000D01*
X113000Y175000D02*
X125000D01*
X113000Y170000D02*
X118671D01*
X118671Y170000D01*
X118671Y170000D01*
X140000D01*
X113000Y165000D02*
X134000D01*
X146000Y175000D02*
X151000Y170000D01*
X125000Y175000D02*
X146000D01*
X140000Y170000D02*
X144000Y166000D01*
X134000Y165000D02*
X137000Y162000D01*
X151000Y109000D02*
Y170000D01*
X125016Y235000D02*
X128000D01*
X138000Y245000D01*
X113000Y230000D02*
X131000D01*
X113000Y225000D02*
X135000D01*
X131000Y230000D02*
X144000Y243000D01*
X135000Y225000D02*
X150000Y240000D01*
X144000Y277000D02*
X150000Y283000D01*
X144000Y243000D02*
Y277000D01*
X36000Y170000D02*
X48000D01*
X207000Y283000D02*
X214000Y276000D01*
X211150Y247150D02*
X214000Y250000D01*
Y276000D01*
X191300Y259850D02*
X203278D01*
X205000Y261572D01*
X150000Y283000D02*
X207000D01*
X191300Y247150D02*
X211150D01*
X191300Y234450D02*
X214450D01*
X223000Y243000D01*
X138000Y279000D02*
X149000Y290000D01*
X209278Y132850D02*
X215000Y127128D01*
X215450Y145550D02*
X223000Y138000D01*
X157000Y103000D02*
X201331D01*
X151000Y109000D02*
X157000Y103000D01*
X201331D02*
X206000Y107669D01*
Y116000D01*
X201850Y120150D02*
X206000Y116000D01*
X191300Y120150D02*
X201850D01*
X191300Y132850D02*
X209278D01*
X191300Y145550D02*
X215450D01*
X36000Y110000D02*
X48000D01*
X138000Y245000D02*
Y279000D01*
D19*
X204000Y67450D02*
D03*
Y312550D02*
D03*
D20*
X20000Y20000D02*
D03*
Y360000D02*
D03*
X220000D02*
D03*
Y20000D02*
D03*
D21*
X165900Y139200D02*
D03*
Y126500D02*
D03*
X191300Y259850D02*
D03*
Y247150D02*
D03*
Y234450D02*
D03*
Y221750D02*
D03*
Y209050D02*
D03*
Y196350D02*
D03*
Y183650D02*
D03*
Y170950D02*
D03*
Y158250D02*
D03*
Y145550D02*
D03*
Y132850D02*
D03*
Y120150D02*
D03*
X165900Y113800D02*
D03*
Y151900D02*
D03*
Y164600D02*
D03*
Y177300D02*
D03*
Y190000D02*
D03*
Y202700D02*
D03*
Y215400D02*
D03*
Y228100D02*
D03*
Y240800D02*
D03*
Y253500D02*
D03*
Y266200D02*
D03*
D22*
X246000Y366000D02*
D03*
Y326000D02*
D03*
Y286000D02*
D03*
Y246000D02*
D03*
Y206000D02*
D03*
Y166000D02*
D03*
Y126000D02*
D03*
Y86000D02*
D03*
Y46000D02*
D03*
X236000Y346000D02*
D03*
X226000Y326000D02*
D03*
X236000Y306000D02*
D03*
X226000Y286000D02*
D03*
X236000Y266000D02*
D03*
Y226000D02*
D03*
Y186000D02*
D03*
Y146000D02*
D03*
Y106000D02*
D03*
X226000Y86000D02*
D03*
X236000Y66000D02*
D03*
X226000Y46000D02*
D03*
X186000Y366000D02*
D03*
X196000Y346000D02*
D03*
X186000Y326000D02*
D03*
Y46000D02*
D03*
X196000Y26000D02*
D03*
X166000Y366000D02*
D03*
X176000Y346000D02*
D03*
X166000Y326000D02*
D03*
X176000Y306000D02*
D03*
Y66000D02*
D03*
X166000Y46000D02*
D03*
X176000Y26000D02*
D03*
X146000Y366000D02*
D03*
X156000Y346000D02*
D03*
X146000Y326000D02*
D03*
X156000Y306000D02*
D03*
Y66000D02*
D03*
X146000Y46000D02*
D03*
X156000Y26000D02*
D03*
X126000Y366000D02*
D03*
X136000Y346000D02*
D03*
X126000Y326000D02*
D03*
X136000Y306000D02*
D03*
X126000Y86000D02*
D03*
X136000Y66000D02*
D03*
X126000Y46000D02*
D03*
X136000Y26000D02*
D03*
X106000Y366000D02*
D03*
X116000Y346000D02*
D03*
X106000Y326000D02*
D03*
Y86000D02*
D03*
X116000Y66000D02*
D03*
X106000Y46000D02*
D03*
X116000Y26000D02*
D03*
X86000Y366000D02*
D03*
X96000Y346000D02*
D03*
X86000Y326000D02*
D03*
X96000Y306000D02*
D03*
Y186000D02*
D03*
X86000Y86000D02*
D03*
X96000Y66000D02*
D03*
X86000Y46000D02*
D03*
X96000Y26000D02*
D03*
X66000Y366000D02*
D03*
X76000Y346000D02*
D03*
X66000Y326000D02*
D03*
X76000Y306000D02*
D03*
X66000Y246000D02*
D03*
X76000Y186000D02*
D03*
X66000Y86000D02*
D03*
X76000Y66000D02*
D03*
X66000Y46000D02*
D03*
X76000Y26000D02*
D03*
X46000Y366000D02*
D03*
X56000Y346000D02*
D03*
X46000Y326000D02*
D03*
X56000Y266000D02*
D03*
X46000Y206000D02*
D03*
X56000Y186000D02*
D03*
Y146000D02*
D03*
X46000Y86000D02*
D03*
X56000Y66000D02*
D03*
X46000Y46000D02*
D03*
X56000Y26000D02*
D03*
X36000Y346000D02*
D03*
X26000Y326000D02*
D03*
X36000Y266000D02*
D03*
X26000Y246000D02*
D03*
Y206000D02*
D03*
X36000Y146000D02*
D03*
X26000Y126000D02*
D03*
Y86000D02*
D03*
X36000Y66000D02*
D03*
X26000Y46000D02*
D03*
X16000Y266000D02*
D03*
Y226000D02*
D03*
Y146000D02*
D03*
Y106000D02*
D03*
Y66000D02*
D03*
D23*
X126000Y110000D02*
D03*
Y118000D02*
D03*
Y102000D02*
D03*
X49000Y290000D02*
D03*
Y298000D02*
D03*
Y282000D02*
D03*
Y222000D02*
D03*
Y230000D02*
D03*
Y238000D02*
D03*
Y162000D02*
D03*
Y178000D02*
D03*
Y118000D02*
D03*
Y102000D02*
D03*
X126000Y298000D02*
D03*
Y290000D02*
D03*
Y282000D02*
D03*
X49000Y170000D02*
D03*
Y110000D02*
D03*
M02*
