G04*
G04 #@! TF.GenerationSoftware,Altium Limited,Altium Designer,23.0.1 (38)*
G04*
G04 Layer_Color=65535*
%FSLAX44Y44*%
%MOMM*%
G71*
G04*
G04 #@! TF.SameCoordinates,6267CAE7-E216-4707-86BA-F79FFB9924B0*
G04*
G04*
G04 #@! TF.FilePolarity,Positive*
G04*
G01*
G75*
%ADD10C,0.2500*%
%ADD11C,0.2000*%
%ADD12C,0.2540*%
D10*
X57750Y140750D02*
G03*
X57750Y140750I-1250J0D01*
G01*
Y260750D02*
G03*
X57750Y260750I-1250J0D01*
G01*
Y80750D02*
G03*
X57750Y80750I-1250J0D01*
G01*
Y200750D02*
G03*
X57750Y200750I-1250J0D01*
G01*
Y320750D02*
G03*
X57750Y320750I-1250J0D01*
G01*
D11*
X25250Y152000D02*
X51000D01*
X9000Y117350D02*
Y142650D01*
X25250Y108000D02*
X51000D01*
Y152000D01*
X25250Y272000D02*
X51000D01*
X9000Y237350D02*
Y262650D01*
X25250Y228000D02*
X51000D01*
Y272000D01*
X25250Y92000D02*
X51000D01*
X9000Y57350D02*
Y82650D01*
X25250Y48000D02*
X51000D01*
Y92000D01*
X25250Y212000D02*
X51000D01*
X9000Y177350D02*
Y202650D01*
X25250Y168000D02*
X51000D01*
Y212000D01*
X25250Y332000D02*
X51000D01*
X9000Y297350D02*
Y322650D01*
X25250Y288000D02*
X51000D01*
Y332000D01*
D12*
X226568Y383540D02*
Y398775D01*
X231646Y393697D01*
X236725Y398775D01*
Y383540D01*
X249421D02*
Y398775D01*
X241803Y391157D01*
X251960D01*
X6604Y383540D02*
Y398775D01*
X11682Y393697D01*
X16761Y398775D01*
Y383540D01*
X21839Y396236D02*
X24378Y398775D01*
X29457D01*
X31996Y396236D01*
Y393697D01*
X29457Y391157D01*
X26917D01*
X29457D01*
X31996Y388618D01*
Y386079D01*
X29457Y383540D01*
X24378D01*
X21839Y386079D01*
X226568Y43688D02*
Y58923D01*
X231646Y53845D01*
X236725Y58923D01*
Y43688D01*
X251960D02*
X241803D01*
X251960Y53845D01*
Y56384D01*
X249421Y58923D01*
X244342D01*
X241803Y56384D01*
X6604Y43688D02*
Y58923D01*
X11682Y53845D01*
X16761Y58923D01*
Y43688D01*
X21839D02*
X26917D01*
X24378D01*
Y58923D01*
X21839Y56384D01*
X19809Y176779D02*
X14730D01*
X17270D01*
Y164083D01*
X14730Y161544D01*
X12191D01*
X9652Y164083D01*
X35044Y176779D02*
X29965Y174240D01*
X24887Y169161D01*
Y164083D01*
X27426Y161544D01*
X32505D01*
X35044Y164083D01*
Y166622D01*
X32505Y169161D01*
X24887D01*
X19809Y296921D02*
X14730D01*
X17270D01*
Y284225D01*
X14730Y281686D01*
X12191D01*
X9652Y284225D01*
X35044Y296921D02*
X24887D01*
Y289303D01*
X29965Y291843D01*
X32505D01*
X35044Y289303D01*
Y284225D01*
X32505Y281686D01*
X27426D01*
X24887Y284225D01*
X19809Y116835D02*
X14730D01*
X17270D01*
Y104139D01*
X14730Y101600D01*
X12191D01*
X9652Y104139D01*
X32505Y101600D02*
Y116835D01*
X24887Y109218D01*
X35044D01*
X19809Y236977D02*
X14730D01*
X17270D01*
Y224281D01*
X14730Y221742D01*
X12191D01*
X9652Y224281D01*
X24887Y234438D02*
X27426Y236977D01*
X32505D01*
X35044Y234438D01*
Y231899D01*
X32505Y229359D01*
X29965D01*
X32505D01*
X35044Y226820D01*
Y224281D01*
X32505Y221742D01*
X27426D01*
X24887Y224281D01*
X19809Y356865D02*
X14730D01*
X17270D01*
Y344169D01*
X14730Y341630D01*
X12191D01*
X9652Y344169D01*
X35044Y341630D02*
X24887D01*
X35044Y351787D01*
Y354326D01*
X32505Y356865D01*
X27426D01*
X24887Y354326D01*
X169415Y363215D02*
X164336D01*
X166875D01*
Y350519D01*
X164336Y347980D01*
X161797D01*
X159258Y350519D01*
X174493Y347980D02*
X179571D01*
X177032D01*
Y363215D01*
X174493Y360676D01*
M02*
