G04*
G04 #@! TF.GenerationSoftware,Altium Limited,Altium Designer,23.0.1 (38)*
G04*
G04 Layer_Color=8388736*
%FSLAX44Y44*%
%MOMM*%
G71*
G04*
G04 #@! TF.SameCoordinates,6267CAE7-E216-4707-86BA-F79FFB9924B0*
G04*
G04*
G04 #@! TF.FilePolarity,Negative*
G04*
G01*
G75*
%ADD13R,1.0000X0.3000*%
%ADD14R,0.7000X0.3000*%
%ADD15C,3.2032*%
%ADD16C,3.7032*%
%ADD17O,1.5032X1.2032*%
G36*
X260000Y0D02*
X0D01*
Y47000D01*
X52000D01*
Y93000D01*
X0D01*
Y107000D01*
X52000D01*
Y153000D01*
X0D01*
Y167000D01*
X52000D01*
Y213000D01*
X0D01*
Y227000D01*
X52000D01*
Y273000D01*
X0D01*
Y287000D01*
X52000D01*
Y333000D01*
X0D01*
Y380000D01*
X260000D01*
Y0D01*
D02*
G37*
%LPC*%
G36*
X210000Y280000D02*
X150000D01*
Y100000D01*
X210000D01*
Y280000D01*
D02*
G37*
%LPD*%
D13*
X16500Y112100D02*
D03*
Y147900D02*
D03*
Y232100D02*
D03*
Y267900D02*
D03*
Y52100D02*
D03*
Y87900D02*
D03*
Y172100D02*
D03*
Y207900D02*
D03*
Y292100D02*
D03*
Y327900D02*
D03*
D14*
X43000Y120000D02*
D03*
Y125000D02*
D03*
Y130000D02*
D03*
Y135000D02*
D03*
Y140000D02*
D03*
Y240000D02*
D03*
Y245000D02*
D03*
Y250000D02*
D03*
Y255000D02*
D03*
Y260000D02*
D03*
Y60000D02*
D03*
Y65000D02*
D03*
Y70000D02*
D03*
Y75000D02*
D03*
Y80000D02*
D03*
Y180000D02*
D03*
Y185000D02*
D03*
Y190000D02*
D03*
Y195000D02*
D03*
Y200000D02*
D03*
Y300000D02*
D03*
Y305000D02*
D03*
Y310000D02*
D03*
Y315000D02*
D03*
Y320000D02*
D03*
D15*
X240000Y360000D02*
D03*
X20000D02*
D03*
X240000Y20000D02*
D03*
X20000D02*
D03*
D16*
X204000Y312550D02*
D03*
Y67450D02*
D03*
D17*
X191300Y120150D02*
D03*
Y132850D02*
D03*
Y145550D02*
D03*
Y158250D02*
D03*
Y170950D02*
D03*
Y183650D02*
D03*
Y196350D02*
D03*
Y209050D02*
D03*
Y221750D02*
D03*
Y234450D02*
D03*
Y247150D02*
D03*
Y259850D02*
D03*
X165900Y113800D02*
D03*
Y126500D02*
D03*
Y139200D02*
D03*
Y151900D02*
D03*
Y164600D02*
D03*
Y177300D02*
D03*
Y190000D02*
D03*
Y202700D02*
D03*
Y215400D02*
D03*
Y228100D02*
D03*
Y240800D02*
D03*
Y253500D02*
D03*
Y266200D02*
D03*
M02*
