G04*
G04 #@! TF.GenerationSoftware,Altium Limited,Altium Designer,23.0.1 (38)*
G04*
G04 Layer_Physical_Order=1*
G04 Layer_Color=255*
%FSLAX44Y44*%
%MOMM*%
G71*
G04*
G04 #@! TF.SameCoordinates,45DACFF5-F95A-45AA-9CB1-F03AC42D8FD2*
G04*
G04*
G04 #@! TF.FilePolarity,Positive*
G04*
G01*
G75*
%ADD13R,1.0000X0.3000*%
%ADD14R,0.7000X0.3000*%
%ADD18C,0.2940*%
%ADD19C,0.2939*%
%ADD20C,3.0000*%
%ADD21C,3.5000*%
%ADD22O,1.3000X1.0000*%
%ADD23C,0.3000*%
G36*
X260000Y0D02*
X0D01*
Y380000D01*
X260000D01*
Y0D01*
D02*
G37*
%LPC*%
G36*
X24040Y331940D02*
X8960D01*
Y323860D01*
X24040D01*
Y331940D01*
D02*
G37*
G36*
X49040Y324040D02*
X44270D01*
Y321270D01*
X49040D01*
Y324040D01*
D02*
G37*
G36*
X41730D02*
X36960D01*
Y321270D01*
X41730D01*
Y324040D01*
D02*
G37*
G36*
X49040Y298730D02*
X44270D01*
Y295960D01*
X49040D01*
Y298730D01*
D02*
G37*
G36*
X41730D02*
X36960D01*
Y295960D01*
X41730D01*
Y298730D01*
D02*
G37*
G36*
X24040Y296140D02*
X8960D01*
Y288060D01*
X24040D01*
Y296140D01*
D02*
G37*
G36*
Y271940D02*
X8960D01*
Y263860D01*
X24040D01*
Y271940D01*
D02*
G37*
G36*
X49040Y264040D02*
X44270D01*
Y261270D01*
X49040D01*
Y264040D01*
D02*
G37*
G36*
X41730D02*
X36960D01*
Y261270D01*
X41730D01*
Y264040D01*
D02*
G37*
G36*
X192800Y267455D02*
X192570D01*
Y261120D01*
X200238D01*
X200146Y261819D01*
X199386Y263653D01*
X198178Y265228D01*
X196603Y266436D01*
X194768Y267196D01*
X192800Y267455D01*
D02*
G37*
G36*
X190030D02*
X189800D01*
X187832Y267196D01*
X185998Y266436D01*
X184422Y265228D01*
X183214Y263653D01*
X182454Y261819D01*
X182362Y261120D01*
X190030D01*
Y267455D01*
D02*
G37*
G36*
X49040Y319041D02*
X43000D01*
X36960D01*
Y315960D01*
Y310959D01*
X43000D01*
X49040D01*
Y311462D01*
X80007D01*
X80010Y311462D01*
X95055D01*
X142818Y263698D01*
X143966Y262931D01*
X145320Y262662D01*
X151780D01*
X151783Y262663D01*
X155210D01*
X155302Y262604D01*
X155700Y262338D01*
X155727Y262332D01*
X155751Y262318D01*
X158781Y261137D01*
X159023Y260823D01*
X159462Y260485D01*
Y259215D01*
X159023Y258878D01*
X158781Y258563D01*
X155751Y257383D01*
X155727Y257368D01*
X155700Y257362D01*
X155302Y257097D01*
X155210Y257038D01*
X132776D01*
X82312Y307502D01*
X81164Y308269D01*
X79810Y308538D01*
X55880D01*
X55877Y308538D01*
X49040D01*
Y309041D01*
X43000D01*
X36960D01*
Y305960D01*
Y300959D01*
X43000D01*
X49040D01*
Y301462D01*
X55877D01*
X55880Y301462D01*
X78344D01*
X128808Y250998D01*
X129956Y250231D01*
X131310Y249962D01*
X131312Y249963D01*
X155210D01*
X155302Y249904D01*
X155700Y249638D01*
X155727Y249632D01*
X155751Y249618D01*
X158781Y248437D01*
X159023Y248123D01*
X159462Y247785D01*
Y246515D01*
X159023Y246178D01*
X158781Y245863D01*
X155751Y244683D01*
X155727Y244668D01*
X155700Y244662D01*
X155302Y244397D01*
X155210Y244338D01*
X128466D01*
X115302Y257502D01*
X114154Y258269D01*
X112800Y258538D01*
X51980D01*
X51977Y258538D01*
X49040D01*
Y259041D01*
X43000D01*
X36960D01*
Y255960D01*
Y250959D01*
X43000D01*
X49040D01*
Y251462D01*
X51977D01*
X51980Y251462D01*
X111335D01*
X124498Y238298D01*
X125646Y237532D01*
X127000Y237262D01*
X127003Y237263D01*
X155210D01*
X155302Y237204D01*
X155700Y236938D01*
X155727Y236933D01*
X155751Y236917D01*
X158781Y235737D01*
X159023Y235422D01*
X159462Y235085D01*
Y233815D01*
X159023Y233478D01*
X158781Y233163D01*
X155751Y231983D01*
X155727Y231968D01*
X155700Y231962D01*
X155302Y231697D01*
X155210Y231638D01*
X120480D01*
X120477Y231638D01*
X112455D01*
X96592Y247502D01*
X95444Y248269D01*
X94090Y248538D01*
X49245D01*
X49213Y248730D01*
X49040D01*
Y249041D01*
X43000D01*
X36960D01*
Y245960D01*
Y240959D01*
X43000D01*
X49040D01*
Y241270D01*
X49213D01*
X49245Y241462D01*
X92625D01*
X108488Y225598D01*
X109636Y224832D01*
X110990Y224562D01*
X120477D01*
X120480Y224563D01*
X155210D01*
X155302Y224504D01*
X155700Y224238D01*
X155727Y224233D01*
X155751Y224217D01*
X158781Y223037D01*
X159023Y222722D01*
X159462Y222385D01*
Y221115D01*
X159023Y220778D01*
X158781Y220463D01*
X155751Y219283D01*
X155727Y219268D01*
X155700Y219262D01*
X155302Y218997D01*
X155210Y218938D01*
X135393D01*
X135390Y218938D01*
X134036Y218669D01*
X132888Y217902D01*
X113525Y198538D01*
X49040D01*
Y199041D01*
X43000D01*
X36960D01*
Y195960D01*
Y190959D01*
X43000D01*
X49040D01*
Y191462D01*
X114990D01*
X116344Y191731D01*
X117492Y192498D01*
X136856Y211863D01*
X155210D01*
X155302Y211804D01*
X155700Y211538D01*
X155727Y211532D01*
X155751Y211518D01*
X158781Y210337D01*
X159023Y210023D01*
X159462Y209685D01*
Y208415D01*
X159023Y208078D01*
X158782Y207764D01*
X155750Y206583D01*
X155726Y206568D01*
X155699Y206563D01*
X155301Y206297D01*
X155209Y206238D01*
X139200D01*
X137846Y205969D01*
X136698Y205202D01*
X136697Y205200D01*
X120035Y188538D01*
X91023D01*
X91020Y188538D01*
X49040D01*
Y189041D01*
X43000D01*
X36960D01*
Y185960D01*
Y180959D01*
X43000D01*
X49040D01*
Y181462D01*
X91020D01*
X91023Y181463D01*
X121500D01*
X122854Y181732D01*
X124001Y182499D01*
X140665Y199162D01*
X155209D01*
X155301Y199103D01*
X155699Y198838D01*
X155726Y198832D01*
X155750Y198817D01*
X158782Y197636D01*
X159023Y197323D01*
X159462Y196985D01*
Y195715D01*
X159023Y195378D01*
X158781Y195063D01*
X155751Y193883D01*
X155727Y193868D01*
X155700Y193862D01*
X155302Y193597D01*
X155210Y193538D01*
X145553D01*
X145550Y193538D01*
X144196Y193269D01*
X143048Y192502D01*
X89085Y138538D01*
X58420D01*
X58417Y138537D01*
X49040D01*
Y139040D01*
X43000D01*
X36960D01*
Y135960D01*
Y130960D01*
X43000D01*
X49040D01*
Y131462D01*
X58417D01*
X58420Y131462D01*
X90550D01*
X91904Y131731D01*
X93052Y132498D01*
X147016Y186463D01*
X155210D01*
X155302Y186404D01*
X155700Y186138D01*
X155727Y186133D01*
X155751Y186117D01*
X158781Y184937D01*
X159023Y184622D01*
X159462Y184285D01*
Y183015D01*
X159023Y182678D01*
X158781Y182363D01*
X155751Y181183D01*
X155727Y181168D01*
X155700Y181162D01*
X155302Y180897D01*
X155210Y180838D01*
X146823D01*
X146820Y180838D01*
X145466Y180569D01*
X144318Y179802D01*
X119418Y154902D01*
X118651Y153754D01*
X118382Y152400D01*
Y147515D01*
X99404Y128538D01*
X49040D01*
Y129040D01*
X43000D01*
X36960D01*
Y125960D01*
Y120960D01*
X43000D01*
X49040D01*
Y121462D01*
X100870D01*
X102224Y121731D01*
X103372Y122498D01*
X124422Y143548D01*
X125189Y144696D01*
X125458Y146050D01*
Y150934D01*
X148286Y173763D01*
X155210D01*
X155302Y173704D01*
X155700Y173438D01*
X155727Y173433D01*
X155751Y173417D01*
X158781Y172237D01*
X159023Y171922D01*
X159462Y171585D01*
Y170315D01*
X159023Y169978D01*
X158781Y169663D01*
X155751Y168483D01*
X155727Y168468D01*
X155700Y168462D01*
X155302Y168197D01*
X155210Y168138D01*
X151133D01*
X151130Y168138D01*
X149776Y167869D01*
X148628Y167102D01*
X130848Y149322D01*
X130081Y148174D01*
X129812Y146820D01*
Y138886D01*
X69464Y78538D01*
X53885D01*
X53882Y78538D01*
X49040D01*
Y79040D01*
X43000D01*
X36960D01*
Y75960D01*
Y70960D01*
X43000D01*
X49040D01*
Y71462D01*
X53882D01*
X53885Y71462D01*
X70930D01*
X72284Y71731D01*
X73432Y72498D01*
X135852Y134918D01*
X136619Y136066D01*
X136888Y137420D01*
Y145355D01*
X152596Y161063D01*
X155210D01*
X155302Y161004D01*
X155700Y160738D01*
X155727Y160732D01*
X155751Y160718D01*
X158781Y159537D01*
X159023Y159222D01*
X159462Y158885D01*
Y157615D01*
X159023Y157278D01*
X158781Y156963D01*
X155751Y155783D01*
X155727Y155768D01*
X155700Y155762D01*
X155302Y155497D01*
X155210Y155438D01*
X153170D01*
X151816Y155168D01*
X150669Y154402D01*
X143549Y147281D01*
X142782Y146134D01*
X142513Y144780D01*
Y131006D01*
X80044Y68538D01*
X74930D01*
X74927Y68538D01*
X49040D01*
Y69040D01*
X43000D01*
X36960D01*
Y65960D01*
Y60960D01*
X43000D01*
X49040D01*
Y61463D01*
X74927D01*
X74930Y61462D01*
X81510D01*
X82864Y61731D01*
X84012Y62498D01*
X148552Y127038D01*
X149319Y128186D01*
X149588Y129540D01*
X149587Y129543D01*
Y143315D01*
X154635Y148363D01*
X155210D01*
X155302Y148304D01*
X155700Y148038D01*
X155727Y148033D01*
X155751Y148018D01*
X158781Y146837D01*
X159023Y146523D01*
X159462Y146185D01*
Y144915D01*
X159023Y144578D01*
X157814Y143003D01*
X157054Y141168D01*
X156962Y140470D01*
X165900D01*
X174838D01*
X174746Y141168D01*
X173986Y143003D01*
X172778Y144578D01*
X172338Y144915D01*
Y146185D01*
X172778Y146523D01*
X173986Y148098D01*
X174746Y149932D01*
X175005Y151900D01*
X174746Y153869D01*
X173986Y155703D01*
X172778Y157278D01*
X172338Y157615D01*
Y158885D01*
X172778Y159222D01*
X173986Y160798D01*
X174746Y162632D01*
X175005Y164600D01*
X174746Y166569D01*
X173986Y168403D01*
X172778Y169978D01*
X172338Y170315D01*
Y171585D01*
X172778Y171922D01*
X173986Y173498D01*
X174746Y175332D01*
X175005Y177300D01*
X174746Y179268D01*
X173986Y181103D01*
X172778Y182678D01*
X172338Y183015D01*
Y184285D01*
X172778Y184622D01*
X173986Y186198D01*
X174746Y188032D01*
X175005Y190000D01*
X174746Y191968D01*
X173986Y193803D01*
X172778Y195378D01*
X172338Y195715D01*
Y196985D01*
X172778Y197323D01*
X173986Y198898D01*
X174746Y200732D01*
X175005Y202700D01*
X174746Y204669D01*
X173986Y206503D01*
X172778Y208078D01*
X172338Y208415D01*
Y209685D01*
X172778Y210023D01*
X173986Y211598D01*
X174746Y213432D01*
X175005Y215400D01*
X174746Y217369D01*
X173986Y219203D01*
X172778Y220778D01*
X172338Y221115D01*
Y222385D01*
X172778Y222722D01*
X173986Y224298D01*
X174746Y226132D01*
X175005Y228100D01*
X174746Y230068D01*
X173986Y231903D01*
X172778Y233478D01*
X172338Y233815D01*
Y235085D01*
X172778Y235422D01*
X173986Y236998D01*
X174746Y238832D01*
X175005Y240800D01*
X174746Y242768D01*
X173986Y244603D01*
X172778Y246178D01*
X172338Y246515D01*
Y247785D01*
X172778Y248123D01*
X173986Y249698D01*
X174746Y251532D01*
X175005Y253500D01*
X174746Y255469D01*
X173986Y257303D01*
X172778Y258878D01*
X172338Y259215D01*
Y260485D01*
X172778Y260823D01*
X173986Y262398D01*
X174746Y264232D01*
X175005Y266200D01*
X174746Y268169D01*
X173986Y270003D01*
X172778Y271578D01*
X171203Y272786D01*
X169368Y273546D01*
X167400Y273805D01*
X164400D01*
X162432Y273546D01*
X160598Y272786D01*
X159023Y271578D01*
X158781Y271263D01*
X155751Y270083D01*
X155727Y270068D01*
X155700Y270062D01*
X155302Y269797D01*
X155210Y269738D01*
X151783D01*
X151780Y269738D01*
X146785D01*
X99022Y317502D01*
X97874Y318269D01*
X96520Y318538D01*
X80010D01*
X80007Y318537D01*
X49040D01*
Y319041D01*
D02*
G37*
G36*
X200238Y258580D02*
X191300D01*
X182362D01*
X182454Y257882D01*
X183214Y256048D01*
X184422Y254473D01*
X184862Y254135D01*
Y252865D01*
X184422Y252528D01*
X183214Y250953D01*
X182454Y249118D01*
X182362Y248420D01*
X191300D01*
X200238D01*
X200146Y249118D01*
X199386Y250953D01*
X198178Y252528D01*
X197738Y252865D01*
Y254135D01*
X198178Y254473D01*
X199386Y256048D01*
X200146Y257882D01*
X200238Y258580D01*
D02*
G37*
G36*
X49040Y238730D02*
X44270D01*
Y235960D01*
X49040D01*
Y238730D01*
D02*
G37*
G36*
X41730D02*
X36960D01*
Y235960D01*
X41730D01*
Y238730D01*
D02*
G37*
G36*
X200238Y245880D02*
X191300D01*
X182362D01*
X182454Y245182D01*
X183214Y243348D01*
X184422Y241772D01*
X184862Y241435D01*
Y240165D01*
X184422Y239828D01*
X183214Y238253D01*
X182454Y236418D01*
X182362Y235720D01*
X191300D01*
X200238D01*
X200146Y236418D01*
X199386Y238253D01*
X198178Y239828D01*
X197738Y240165D01*
Y241435D01*
X198178Y241772D01*
X199386Y243348D01*
X200146Y245182D01*
X200238Y245880D01*
D02*
G37*
G36*
X24040Y236140D02*
X8960D01*
Y228060D01*
X24040D01*
Y236140D01*
D02*
G37*
G36*
X200238Y233180D02*
X191300D01*
X182362D01*
X182454Y232482D01*
X183214Y230648D01*
X184422Y229072D01*
X184862Y228735D01*
Y227465D01*
X184422Y227128D01*
X183214Y225553D01*
X182454Y223718D01*
X182362Y223020D01*
X191300D01*
X200238D01*
X200146Y223718D01*
X199386Y225553D01*
X198178Y227128D01*
X197738Y227465D01*
Y228735D01*
X198178Y229072D01*
X199386Y230648D01*
X200146Y232482D01*
X200238Y233180D01*
D02*
G37*
G36*
Y220480D02*
X191300D01*
X182362D01*
X182454Y219782D01*
X183214Y217948D01*
X184422Y216373D01*
X184862Y216035D01*
Y214765D01*
X184422Y214428D01*
X183214Y212853D01*
X182454Y211019D01*
X182362Y210320D01*
X191300D01*
X200238D01*
X200146Y211019D01*
X199386Y212853D01*
X198178Y214428D01*
X197738Y214765D01*
Y216035D01*
X198178Y216373D01*
X199386Y217948D01*
X200146Y219782D01*
X200238Y220480D01*
D02*
G37*
G36*
X24040Y211940D02*
X8960D01*
Y203860D01*
X24040D01*
Y211940D01*
D02*
G37*
G36*
X49040Y204040D02*
X44270D01*
Y201270D01*
X49040D01*
Y204040D01*
D02*
G37*
G36*
X41730D02*
X36960D01*
Y201270D01*
X41730D01*
Y204040D01*
D02*
G37*
G36*
X200238Y207780D02*
X191300D01*
X182362D01*
X182454Y207082D01*
X183214Y205248D01*
X184422Y203673D01*
X184862Y203335D01*
Y202065D01*
X184422Y201728D01*
X183214Y200153D01*
X182454Y198319D01*
X182362Y197620D01*
X191300D01*
X200238D01*
X200146Y198319D01*
X199386Y200153D01*
X198178Y201728D01*
X197738Y202065D01*
Y203335D01*
X198178Y203673D01*
X199386Y205248D01*
X200146Y207082D01*
X200238Y207780D01*
D02*
G37*
G36*
Y195080D02*
X191300D01*
X182362D01*
X182454Y194382D01*
X183214Y192548D01*
X184422Y190972D01*
X184862Y190635D01*
Y189365D01*
X184422Y189028D01*
X183214Y187453D01*
X182454Y185618D01*
X182362Y184920D01*
X191300D01*
X200238D01*
X200146Y185618D01*
X199386Y187453D01*
X198178Y189028D01*
X197738Y189365D01*
Y190635D01*
X198178Y190972D01*
X199386Y192548D01*
X200146Y194382D01*
X200238Y195080D01*
D02*
G37*
G36*
X49040Y178730D02*
X44270D01*
Y175960D01*
X49040D01*
Y178730D01*
D02*
G37*
G36*
X41730D02*
X36960D01*
Y175960D01*
X41730D01*
Y178730D01*
D02*
G37*
G36*
X200238Y182380D02*
X191300D01*
X182362D01*
X182454Y181682D01*
X183214Y179848D01*
X184422Y178272D01*
X184862Y177935D01*
Y176665D01*
X184422Y176328D01*
X183214Y174753D01*
X182454Y172918D01*
X182362Y172220D01*
X191300D01*
X200238D01*
X200146Y172918D01*
X199386Y174753D01*
X198178Y176328D01*
X197738Y176665D01*
Y177935D01*
X198178Y178272D01*
X199386Y179848D01*
X200146Y181682D01*
X200238Y182380D01*
D02*
G37*
G36*
X24040Y176140D02*
X8960D01*
Y168060D01*
X24040D01*
Y176140D01*
D02*
G37*
G36*
X200238Y169680D02*
X191300D01*
X182362D01*
X182454Y168982D01*
X183214Y167148D01*
X184422Y165572D01*
X184862Y165235D01*
Y163965D01*
X184422Y163628D01*
X183214Y162053D01*
X182454Y160219D01*
X182362Y159520D01*
X191300D01*
X200238D01*
X200146Y160219D01*
X199386Y162053D01*
X198178Y163628D01*
X197738Y163965D01*
Y165235D01*
X198178Y165572D01*
X199386Y167148D01*
X200146Y168982D01*
X200238Y169680D01*
D02*
G37*
G36*
Y156980D02*
X191300D01*
X182362D01*
X182454Y156282D01*
X183214Y154448D01*
X184422Y152872D01*
X184862Y152535D01*
Y151265D01*
X184422Y150928D01*
X183214Y149353D01*
X182454Y147519D01*
X182362Y146820D01*
X191300D01*
X200238D01*
X200146Y147519D01*
X199386Y149353D01*
X198178Y150928D01*
X197738Y151265D01*
Y152535D01*
X198178Y152872D01*
X199386Y154448D01*
X200146Y156282D01*
X200238Y156980D01*
D02*
G37*
G36*
X24040Y151940D02*
X8960D01*
Y143860D01*
X24040D01*
Y151940D01*
D02*
G37*
G36*
X49040Y144040D02*
X44270D01*
Y141270D01*
X49040D01*
Y144040D01*
D02*
G37*
G36*
X41730D02*
X36960D01*
Y141270D01*
X41730D01*
Y144040D01*
D02*
G37*
G36*
X200238Y144280D02*
X191300D01*
X182362D01*
X182454Y143582D01*
X183214Y141748D01*
X184422Y140173D01*
X184862Y139835D01*
Y138565D01*
X184422Y138228D01*
X183214Y136653D01*
X182454Y134818D01*
X182362Y134120D01*
X191300D01*
X200238D01*
X200146Y134818D01*
X199386Y136653D01*
X198178Y138228D01*
X197738Y138565D01*
Y139835D01*
X198178Y140173D01*
X199386Y141748D01*
X200146Y143582D01*
X200238Y144280D01*
D02*
G37*
G36*
X174838Y137930D02*
X165900D01*
X156962D01*
X157054Y137232D01*
X157814Y135398D01*
X159023Y133822D01*
X159462Y133485D01*
Y132215D01*
X159023Y131878D01*
X157814Y130303D01*
X157054Y128469D01*
X156962Y127770D01*
X165900D01*
X174838D01*
X174746Y128469D01*
X173986Y130303D01*
X172778Y131878D01*
X172338Y132215D01*
Y133485D01*
X172778Y133822D01*
X173986Y135398D01*
X174746Y137232D01*
X174838Y137930D01*
D02*
G37*
G36*
X200238Y131580D02*
X191300D01*
X182362D01*
X182454Y130882D01*
X183214Y129048D01*
X184422Y127472D01*
X184862Y127135D01*
Y125865D01*
X184422Y125528D01*
X183214Y123953D01*
X182454Y122119D01*
X182362Y121420D01*
X191300D01*
X200238D01*
X200146Y122119D01*
X199386Y123953D01*
X198178Y125528D01*
X197738Y125865D01*
Y127135D01*
X198178Y127472D01*
X199386Y129048D01*
X200146Y130882D01*
X200238Y131580D01*
D02*
G37*
G36*
X49040Y118730D02*
X44270D01*
Y115960D01*
X49040D01*
Y118730D01*
D02*
G37*
G36*
X41730D02*
X36960D01*
Y115960D01*
X41730D01*
Y118730D01*
D02*
G37*
G36*
X200238Y118880D02*
X192570D01*
Y112545D01*
X192800D01*
X194768Y112804D01*
X196603Y113564D01*
X198178Y114773D01*
X199386Y116348D01*
X200146Y118182D01*
X200238Y118880D01*
D02*
G37*
G36*
X190030D02*
X182362D01*
X182454Y118182D01*
X183214Y116348D01*
X184422Y114773D01*
X185998Y113564D01*
X187832Y112804D01*
X189800Y112545D01*
X190030D01*
Y118880D01*
D02*
G37*
G36*
X24040Y116140D02*
X8960D01*
Y108060D01*
X24040D01*
Y116140D01*
D02*
G37*
G36*
X174838Y125230D02*
X165900D01*
X156962D01*
X157054Y124532D01*
X157814Y122698D01*
X159023Y121123D01*
X159462Y120785D01*
Y119515D01*
X159023Y119178D01*
X157814Y117603D01*
X157054Y115768D01*
X156795Y113800D01*
X157054Y111832D01*
X157814Y109998D01*
X159023Y108422D01*
X160598Y107214D01*
X162432Y106454D01*
X164400Y106195D01*
X167400D01*
X169368Y106454D01*
X171203Y107214D01*
X172778Y108422D01*
X173986Y109998D01*
X174746Y111832D01*
X175005Y113800D01*
X174746Y115768D01*
X173986Y117603D01*
X172778Y119178D01*
X172338Y119515D01*
Y120785D01*
X172778Y121123D01*
X173986Y122698D01*
X174746Y124532D01*
X174838Y125230D01*
D02*
G37*
G36*
X24040Y91940D02*
X8960D01*
Y83860D01*
X24040D01*
Y91940D01*
D02*
G37*
G36*
X49040Y84040D02*
X44270D01*
Y81270D01*
X49040D01*
Y84040D01*
D02*
G37*
G36*
X41730D02*
X36960D01*
Y81270D01*
X41730D01*
Y84040D01*
D02*
G37*
G36*
X49040Y58730D02*
X44270D01*
Y55960D01*
X49040D01*
Y58730D01*
D02*
G37*
G36*
X41730D02*
X36960D01*
Y55960D01*
X41730D01*
Y58730D01*
D02*
G37*
G36*
X24040Y56140D02*
X8960D01*
Y48060D01*
X24040D01*
Y56140D01*
D02*
G37*
%LPD*%
G36*
X160415Y263280D02*
X156691Y264731D01*
Y267670D01*
X160415Y269121D01*
Y263280D01*
D02*
G37*
G36*
Y250580D02*
X156691Y252031D01*
Y254970D01*
X160415Y256421D01*
Y250580D01*
D02*
G37*
G36*
Y237880D02*
X156691Y239331D01*
Y242270D01*
X160415Y243721D01*
Y237880D01*
D02*
G37*
G36*
Y225180D02*
X156691Y226631D01*
Y229570D01*
X160415Y231021D01*
Y225180D01*
D02*
G37*
G36*
Y212480D02*
X156691Y213931D01*
Y216870D01*
X160415Y218321D01*
Y212480D01*
D02*
G37*
G36*
X160416Y199779D02*
X156690Y201230D01*
Y204170D01*
X160416Y205622D01*
Y199779D01*
D02*
G37*
G36*
X160415Y187080D02*
X156691Y188531D01*
Y191470D01*
X160415Y192921D01*
Y187080D01*
D02*
G37*
G36*
Y174380D02*
X156691Y175831D01*
Y178770D01*
X160415Y180221D01*
Y174380D01*
D02*
G37*
G36*
Y161680D02*
X156691Y163131D01*
Y166070D01*
X160415Y167521D01*
Y161680D01*
D02*
G37*
G36*
Y148980D02*
X156691Y150431D01*
Y153370D01*
X160415Y154821D01*
Y148980D01*
D02*
G37*
D13*
X16500Y112100D02*
D03*
Y147900D02*
D03*
Y232100D02*
D03*
Y267900D02*
D03*
Y52100D02*
D03*
Y87900D02*
D03*
Y172100D02*
D03*
Y207900D02*
D03*
Y292100D02*
D03*
Y327900D02*
D03*
D14*
X43000Y120000D02*
D03*
Y125000D02*
D03*
Y130000D02*
D03*
Y135000D02*
D03*
Y140000D02*
D03*
Y240000D02*
D03*
Y245000D02*
D03*
Y250000D02*
D03*
Y255000D02*
D03*
Y260000D02*
D03*
Y60000D02*
D03*
Y65000D02*
D03*
Y70000D02*
D03*
Y75000D02*
D03*
Y80000D02*
D03*
Y180000D02*
D03*
Y185000D02*
D03*
Y190000D02*
D03*
Y195000D02*
D03*
Y200000D02*
D03*
Y300000D02*
D03*
Y305000D02*
D03*
Y310000D02*
D03*
Y315000D02*
D03*
Y320000D02*
D03*
D18*
X55880Y305000D02*
X79810D01*
X131310Y253500D01*
X110990Y228100D02*
X120477D01*
X49245Y245000D02*
X94090D01*
X110990Y228100D01*
X51980Y255000D02*
X112800D01*
X127000Y240800D01*
X114990Y195000D02*
X135390Y215400D01*
X43000Y195000D02*
X114990D01*
X139200Y202700D02*
X165900D01*
X90550Y135000D02*
X145550Y190000D01*
X121920Y152400D02*
X146820Y177300D01*
X121920Y146050D02*
Y152400D01*
X46900Y185000D02*
X91020D01*
X43000Y125000D02*
X100870D01*
X121920Y146050D01*
X81510Y65000D02*
X146050Y129540D01*
X74930Y65000D02*
X81510D01*
X133350Y146820D02*
X151130Y164600D01*
X133350Y137420D02*
Y146820D01*
X70930Y75000D02*
X133350Y137420D01*
X53885Y75000D02*
X70930D01*
X80010Y315000D02*
X96520D01*
X145320Y266200D01*
X151780D01*
X58420Y135000D02*
X90550D01*
D19*
X131310Y253500D02*
X165900D01*
X135390Y215400D02*
X165900D01*
X91020Y185000D02*
X121500D01*
X139200Y202700D01*
X145550Y190000D02*
X165900D01*
X146820Y177300D02*
X165900D01*
X43000Y185000D02*
X46900D01*
X151130Y164600D02*
X165900D01*
X146050Y129540D02*
Y144780D01*
X153170Y151900D01*
X43000Y65000D02*
X74930D01*
X43000Y75000D02*
X53885D01*
X43000Y315000D02*
X80010D01*
X151780Y266200D02*
X165900D01*
X127000Y240800D02*
X165900D01*
X43000Y255000D02*
X51980D01*
X43000Y245000D02*
X49245D01*
X43000Y135000D02*
X58420D01*
X120477Y228100D02*
X165900D01*
X43000Y305000D02*
X55880D01*
X153170Y151900D02*
X165900D01*
D20*
X240000Y360000D02*
D03*
X20000D02*
D03*
X240000Y20000D02*
D03*
X20000D02*
D03*
D21*
X204000Y312550D02*
D03*
Y67450D02*
D03*
D22*
X191300Y120150D02*
D03*
Y132850D02*
D03*
Y145550D02*
D03*
Y158250D02*
D03*
Y170950D02*
D03*
Y183650D02*
D03*
Y196350D02*
D03*
Y209050D02*
D03*
Y221750D02*
D03*
Y234450D02*
D03*
Y247150D02*
D03*
Y259850D02*
D03*
X165900Y113800D02*
D03*
Y126500D02*
D03*
Y139200D02*
D03*
Y151900D02*
D03*
Y164600D02*
D03*
Y177300D02*
D03*
Y190000D02*
D03*
Y202700D02*
D03*
Y215400D02*
D03*
Y228100D02*
D03*
Y240800D02*
D03*
Y253500D02*
D03*
Y266200D02*
D03*
D23*
X251000Y336000D02*
D03*
X246000Y326000D02*
D03*
X251000Y316000D02*
D03*
X246000Y306000D02*
D03*
X251000Y296000D02*
D03*
X246000Y286000D02*
D03*
X251000Y276000D02*
D03*
X246000Y266000D02*
D03*
X251000Y256000D02*
D03*
X246000Y246000D02*
D03*
X251000Y236000D02*
D03*
X246000Y226000D02*
D03*
X251000Y216000D02*
D03*
X246000Y206000D02*
D03*
X251000Y196000D02*
D03*
X246000Y186000D02*
D03*
X251000Y176000D02*
D03*
X246000Y166000D02*
D03*
X251000Y156000D02*
D03*
X246000Y146000D02*
D03*
X251000Y136000D02*
D03*
X246000Y126000D02*
D03*
X251000Y116000D02*
D03*
X246000Y106000D02*
D03*
X251000Y96000D02*
D03*
X246000Y86000D02*
D03*
X251000Y76000D02*
D03*
X246000Y66000D02*
D03*
X251000Y56000D02*
D03*
X246000Y46000D02*
D03*
X241000Y336000D02*
D03*
X236000Y326000D02*
D03*
X241000Y316000D02*
D03*
X236000Y306000D02*
D03*
X241000Y296000D02*
D03*
X236000Y286000D02*
D03*
X241000Y276000D02*
D03*
X236000Y266000D02*
D03*
X241000Y256000D02*
D03*
X236000Y246000D02*
D03*
X241000Y236000D02*
D03*
X236000Y226000D02*
D03*
X241000Y216000D02*
D03*
X236000Y206000D02*
D03*
X241000Y196000D02*
D03*
X236000Y186000D02*
D03*
X241000Y176000D02*
D03*
X236000Y166000D02*
D03*
X241000Y156000D02*
D03*
X236000Y146000D02*
D03*
X241000Y136000D02*
D03*
X236000Y126000D02*
D03*
X241000Y116000D02*
D03*
X236000Y106000D02*
D03*
X241000Y96000D02*
D03*
X236000Y86000D02*
D03*
X241000Y76000D02*
D03*
X236000Y66000D02*
D03*
X241000Y56000D02*
D03*
X236000Y46000D02*
D03*
X226000Y346000D02*
D03*
X231000Y336000D02*
D03*
X226000Y326000D02*
D03*
X231000Y316000D02*
D03*
Y296000D02*
D03*
X226000Y286000D02*
D03*
X231000Y276000D02*
D03*
X226000Y266000D02*
D03*
X231000Y256000D02*
D03*
X226000Y246000D02*
D03*
X231000Y236000D02*
D03*
X226000Y226000D02*
D03*
X231000Y216000D02*
D03*
X226000Y206000D02*
D03*
X231000Y196000D02*
D03*
X226000Y186000D02*
D03*
X231000Y176000D02*
D03*
X226000Y166000D02*
D03*
X231000Y156000D02*
D03*
X226000Y146000D02*
D03*
X231000Y136000D02*
D03*
X226000Y126000D02*
D03*
X231000Y116000D02*
D03*
X226000Y106000D02*
D03*
X231000Y96000D02*
D03*
X226000Y86000D02*
D03*
X231000Y76000D02*
D03*
Y56000D02*
D03*
X226000Y46000D02*
D03*
Y6000D02*
D03*
X216000Y366000D02*
D03*
X221000Y356000D02*
D03*
X216000Y346000D02*
D03*
X221000Y336000D02*
D03*
X216000Y286000D02*
D03*
X221000Y276000D02*
D03*
X216000Y266000D02*
D03*
X221000Y256000D02*
D03*
X216000Y246000D02*
D03*
X221000Y236000D02*
D03*
X216000Y226000D02*
D03*
X221000Y216000D02*
D03*
X216000Y206000D02*
D03*
X221000Y196000D02*
D03*
X216000Y186000D02*
D03*
X221000Y176000D02*
D03*
X216000Y166000D02*
D03*
X221000Y156000D02*
D03*
X216000Y146000D02*
D03*
X221000Y136000D02*
D03*
X216000Y126000D02*
D03*
X221000Y116000D02*
D03*
X216000Y106000D02*
D03*
X221000Y96000D02*
D03*
Y36000D02*
D03*
X216000Y26000D02*
D03*
X221000Y16000D02*
D03*
X216000Y6000D02*
D03*
X206000Y366000D02*
D03*
X211000Y356000D02*
D03*
X206000Y346000D02*
D03*
Y286000D02*
D03*
X211000Y276000D02*
D03*
X206000Y266000D02*
D03*
X211000Y256000D02*
D03*
X206000Y246000D02*
D03*
X211000Y236000D02*
D03*
X206000Y226000D02*
D03*
X211000Y216000D02*
D03*
X206000Y206000D02*
D03*
X211000Y196000D02*
D03*
X206000Y186000D02*
D03*
X211000Y176000D02*
D03*
X206000Y166000D02*
D03*
X211000Y156000D02*
D03*
X206000Y146000D02*
D03*
X211000Y136000D02*
D03*
X206000Y126000D02*
D03*
X211000Y116000D02*
D03*
X206000Y106000D02*
D03*
X211000Y96000D02*
D03*
Y36000D02*
D03*
X206000Y26000D02*
D03*
X211000Y16000D02*
D03*
X206000Y6000D02*
D03*
X196000Y366000D02*
D03*
X201000Y356000D02*
D03*
X196000Y346000D02*
D03*
Y286000D02*
D03*
X201000Y276000D02*
D03*
X196000Y106000D02*
D03*
X201000Y96000D02*
D03*
Y36000D02*
D03*
X196000Y26000D02*
D03*
X201000Y16000D02*
D03*
X196000Y6000D02*
D03*
X186000Y366000D02*
D03*
X191000Y356000D02*
D03*
X186000Y346000D02*
D03*
X191000Y336000D02*
D03*
X186000Y286000D02*
D03*
X191000Y276000D02*
D03*
X186000Y106000D02*
D03*
X191000Y96000D02*
D03*
X186000Y86000D02*
D03*
Y46000D02*
D03*
X191000Y36000D02*
D03*
X186000Y26000D02*
D03*
X191000Y16000D02*
D03*
X186000Y6000D02*
D03*
X176000Y366000D02*
D03*
X181000Y356000D02*
D03*
X176000Y346000D02*
D03*
X181000Y336000D02*
D03*
X176000Y326000D02*
D03*
Y306000D02*
D03*
X181000Y296000D02*
D03*
X176000Y286000D02*
D03*
X181000Y276000D02*
D03*
Y96000D02*
D03*
X176000Y86000D02*
D03*
Y66000D02*
D03*
X181000Y56000D02*
D03*
X176000Y46000D02*
D03*
X181000Y36000D02*
D03*
X176000Y26000D02*
D03*
X181000Y16000D02*
D03*
X176000Y6000D02*
D03*
X166000Y366000D02*
D03*
X171000Y356000D02*
D03*
X166000Y346000D02*
D03*
X171000Y336000D02*
D03*
X166000Y326000D02*
D03*
X171000Y316000D02*
D03*
X166000Y306000D02*
D03*
X171000Y296000D02*
D03*
X166000Y286000D02*
D03*
X171000Y96000D02*
D03*
X166000Y86000D02*
D03*
X171000Y76000D02*
D03*
X166000Y66000D02*
D03*
X171000Y56000D02*
D03*
X166000Y46000D02*
D03*
X171000Y36000D02*
D03*
X166000Y26000D02*
D03*
X171000Y16000D02*
D03*
X166000Y6000D02*
D03*
X156000Y366000D02*
D03*
X161000Y356000D02*
D03*
X156000Y346000D02*
D03*
X161000Y336000D02*
D03*
X156000Y326000D02*
D03*
X161000Y316000D02*
D03*
X156000Y306000D02*
D03*
X161000Y296000D02*
D03*
X156000Y286000D02*
D03*
Y246000D02*
D03*
Y146000D02*
D03*
X161000Y96000D02*
D03*
X156000Y86000D02*
D03*
X161000Y76000D02*
D03*
X156000Y66000D02*
D03*
X161000Y56000D02*
D03*
X156000Y46000D02*
D03*
X161000Y36000D02*
D03*
X156000Y26000D02*
D03*
X161000Y16000D02*
D03*
X156000Y6000D02*
D03*
X146000Y366000D02*
D03*
X151000Y356000D02*
D03*
X146000Y346000D02*
D03*
X151000Y336000D02*
D03*
X146000Y326000D02*
D03*
X151000Y316000D02*
D03*
X146000Y306000D02*
D03*
X151000Y296000D02*
D03*
X146000Y286000D02*
D03*
X151000Y276000D02*
D03*
X146000Y246000D02*
D03*
X151000Y196000D02*
D03*
Y116000D02*
D03*
X146000Y106000D02*
D03*
X151000Y96000D02*
D03*
X146000Y86000D02*
D03*
X151000Y76000D02*
D03*
X146000Y66000D02*
D03*
X151000Y56000D02*
D03*
X146000Y46000D02*
D03*
X151000Y36000D02*
D03*
X146000Y26000D02*
D03*
X151000Y16000D02*
D03*
X146000Y6000D02*
D03*
X136000Y366000D02*
D03*
X141000Y356000D02*
D03*
X136000Y346000D02*
D03*
X141000Y336000D02*
D03*
X136000Y326000D02*
D03*
X141000Y316000D02*
D03*
X136000Y306000D02*
D03*
X141000Y296000D02*
D03*
X136000Y246000D02*
D03*
Y106000D02*
D03*
X141000Y96000D02*
D03*
X136000Y86000D02*
D03*
X141000Y76000D02*
D03*
X136000Y66000D02*
D03*
X141000Y56000D02*
D03*
X136000Y46000D02*
D03*
X141000Y36000D02*
D03*
X136000Y26000D02*
D03*
X141000Y16000D02*
D03*
X136000Y6000D02*
D03*
X126000Y366000D02*
D03*
X131000Y356000D02*
D03*
X126000Y346000D02*
D03*
X131000Y336000D02*
D03*
X126000Y326000D02*
D03*
X131000Y316000D02*
D03*
X126000Y306000D02*
D03*
X131000Y296000D02*
D03*
Y96000D02*
D03*
X126000Y86000D02*
D03*
X131000Y76000D02*
D03*
X126000Y66000D02*
D03*
X131000Y56000D02*
D03*
X126000Y46000D02*
D03*
X131000Y36000D02*
D03*
X126000Y26000D02*
D03*
X131000Y16000D02*
D03*
X126000Y6000D02*
D03*
X116000Y366000D02*
D03*
X121000Y356000D02*
D03*
X116000Y346000D02*
D03*
X121000Y336000D02*
D03*
X116000Y326000D02*
D03*
X121000Y316000D02*
D03*
Y276000D02*
D03*
Y236000D02*
D03*
Y216000D02*
D03*
X116000Y206000D02*
D03*
X121000Y176000D02*
D03*
X116000Y86000D02*
D03*
X121000Y76000D02*
D03*
X116000Y66000D02*
D03*
X121000Y56000D02*
D03*
X116000Y46000D02*
D03*
X121000Y36000D02*
D03*
X116000Y26000D02*
D03*
X121000Y16000D02*
D03*
X116000Y6000D02*
D03*
X106000Y366000D02*
D03*
X111000Y356000D02*
D03*
X106000Y346000D02*
D03*
X111000Y336000D02*
D03*
X106000Y326000D02*
D03*
X111000Y316000D02*
D03*
X106000Y266000D02*
D03*
Y246000D02*
D03*
X111000Y216000D02*
D03*
X106000Y206000D02*
D03*
X111000Y176000D02*
D03*
X106000Y166000D02*
D03*
X111000Y76000D02*
D03*
X106000Y66000D02*
D03*
X111000Y56000D02*
D03*
X106000Y46000D02*
D03*
X111000Y36000D02*
D03*
X106000Y26000D02*
D03*
X111000Y16000D02*
D03*
X106000Y6000D02*
D03*
X96000Y366000D02*
D03*
X101000Y356000D02*
D03*
X96000Y346000D02*
D03*
X101000Y336000D02*
D03*
X96000Y326000D02*
D03*
X101000Y296000D02*
D03*
X96000Y266000D02*
D03*
Y226000D02*
D03*
X101000Y216000D02*
D03*
X96000Y206000D02*
D03*
X101000Y176000D02*
D03*
X96000Y166000D02*
D03*
Y66000D02*
D03*
X101000Y56000D02*
D03*
X96000Y46000D02*
D03*
X101000Y36000D02*
D03*
X96000Y26000D02*
D03*
X101000Y16000D02*
D03*
X96000Y6000D02*
D03*
X86000Y366000D02*
D03*
X91000Y356000D02*
D03*
X86000Y346000D02*
D03*
X91000Y336000D02*
D03*
X86000Y326000D02*
D03*
Y286000D02*
D03*
X91000Y276000D02*
D03*
X86000Y266000D02*
D03*
X91000Y236000D02*
D03*
X86000Y226000D02*
D03*
X91000Y216000D02*
D03*
X86000Y206000D02*
D03*
X91000Y176000D02*
D03*
X86000Y166000D02*
D03*
X91000Y156000D02*
D03*
X86000Y146000D02*
D03*
X91000Y116000D02*
D03*
X86000Y106000D02*
D03*
X91000Y56000D02*
D03*
X86000Y46000D02*
D03*
X91000Y36000D02*
D03*
X86000Y26000D02*
D03*
X91000Y16000D02*
D03*
X86000Y6000D02*
D03*
X76000Y366000D02*
D03*
X81000Y356000D02*
D03*
X76000Y346000D02*
D03*
X81000Y336000D02*
D03*
X76000Y326000D02*
D03*
Y286000D02*
D03*
X81000Y276000D02*
D03*
X76000Y266000D02*
D03*
X81000Y236000D02*
D03*
X76000Y226000D02*
D03*
X81000Y216000D02*
D03*
X76000Y206000D02*
D03*
X81000Y176000D02*
D03*
X76000Y166000D02*
D03*
X81000Y156000D02*
D03*
X76000Y146000D02*
D03*
X81000Y116000D02*
D03*
X76000Y106000D02*
D03*
X81000Y56000D02*
D03*
X76000Y46000D02*
D03*
X81000Y36000D02*
D03*
X76000Y26000D02*
D03*
X81000Y16000D02*
D03*
X76000Y6000D02*
D03*
X66000Y366000D02*
D03*
X71000Y356000D02*
D03*
X66000Y346000D02*
D03*
X71000Y336000D02*
D03*
X66000Y326000D02*
D03*
X71000Y296000D02*
D03*
X66000Y286000D02*
D03*
X71000Y276000D02*
D03*
X66000Y266000D02*
D03*
X71000Y236000D02*
D03*
X66000Y226000D02*
D03*
X71000Y216000D02*
D03*
X66000Y206000D02*
D03*
X71000Y176000D02*
D03*
X66000Y166000D02*
D03*
X71000Y156000D02*
D03*
X66000Y146000D02*
D03*
X71000Y116000D02*
D03*
X66000Y106000D02*
D03*
X71000Y96000D02*
D03*
X66000Y86000D02*
D03*
X71000Y56000D02*
D03*
X66000Y46000D02*
D03*
X71000Y36000D02*
D03*
X66000Y26000D02*
D03*
X71000Y16000D02*
D03*
X66000Y6000D02*
D03*
X56000Y366000D02*
D03*
X61000Y356000D02*
D03*
X56000Y346000D02*
D03*
X61000Y336000D02*
D03*
X56000Y326000D02*
D03*
X61000Y296000D02*
D03*
X56000Y286000D02*
D03*
X61000Y276000D02*
D03*
X56000Y266000D02*
D03*
X61000Y236000D02*
D03*
X56000Y226000D02*
D03*
X61000Y216000D02*
D03*
X56000Y206000D02*
D03*
X61000Y176000D02*
D03*
X56000Y166000D02*
D03*
X61000Y156000D02*
D03*
X56000Y146000D02*
D03*
X61000Y116000D02*
D03*
X56000Y106000D02*
D03*
X61000Y96000D02*
D03*
X56000Y86000D02*
D03*
X61000Y56000D02*
D03*
X56000Y46000D02*
D03*
X61000Y36000D02*
D03*
X56000Y26000D02*
D03*
X61000Y16000D02*
D03*
X56000Y6000D02*
D03*
X46000Y366000D02*
D03*
X51000Y356000D02*
D03*
X46000Y346000D02*
D03*
X51000Y336000D02*
D03*
X46000Y286000D02*
D03*
X51000Y276000D02*
D03*
X46000Y226000D02*
D03*
X51000Y216000D02*
D03*
X46000Y166000D02*
D03*
X51000Y156000D02*
D03*
X46000Y106000D02*
D03*
X51000Y96000D02*
D03*
X46000Y46000D02*
D03*
X51000Y36000D02*
D03*
X46000Y26000D02*
D03*
X51000Y16000D02*
D03*
X46000Y6000D02*
D03*
X41000Y356000D02*
D03*
X36000Y346000D02*
D03*
X41000Y336000D02*
D03*
X36000Y286000D02*
D03*
X41000Y276000D02*
D03*
X36000Y226000D02*
D03*
X41000Y216000D02*
D03*
X36000Y166000D02*
D03*
X41000Y156000D02*
D03*
X36000Y106000D02*
D03*
X41000Y96000D02*
D03*
X36000Y46000D02*
D03*
X41000Y36000D02*
D03*
Y16000D02*
D03*
X36000Y6000D02*
D03*
X31000Y336000D02*
D03*
Y316000D02*
D03*
X26000Y306000D02*
D03*
X31000Y296000D02*
D03*
Y276000D02*
D03*
Y256000D02*
D03*
X26000Y246000D02*
D03*
X31000Y236000D02*
D03*
Y216000D02*
D03*
Y196000D02*
D03*
X26000Y186000D02*
D03*
X31000Y176000D02*
D03*
Y156000D02*
D03*
Y136000D02*
D03*
X26000Y126000D02*
D03*
X31000Y116000D02*
D03*
Y96000D02*
D03*
Y76000D02*
D03*
X26000Y66000D02*
D03*
X31000Y56000D02*
D03*
X21000Y316000D02*
D03*
X16000Y306000D02*
D03*
X21000Y256000D02*
D03*
X16000Y246000D02*
D03*
X21000Y196000D02*
D03*
X16000Y186000D02*
D03*
X21000Y136000D02*
D03*
X16000Y126000D02*
D03*
X21000Y76000D02*
D03*
X16000Y66000D02*
D03*
X11000Y316000D02*
D03*
X6000Y306000D02*
D03*
X11000Y256000D02*
D03*
X6000Y246000D02*
D03*
X11000Y196000D02*
D03*
X6000Y186000D02*
D03*
X11000Y136000D02*
D03*
X6000Y126000D02*
D03*
X11000Y76000D02*
D03*
X6000Y66000D02*
D03*
M02*
