M48
;Layer_Color=9474304
;FILE_FORMAT=4:4
METRIC,LZ
;TYPE=PLATED
T01F00S00C0.3000
T02F00S00C0.8000
T03F00S00C2.4000
T04F00S00C2.8000
%
T01
X00006Y-00014
X00026Y-00016
X00025Y-0001
X00026Y-00004
X00029Y00001
X00034Y00004
X0004Y00005
X00046Y00004
X00051Y00001
X00054Y-00004
X00055Y-00009
X00054Y-00015
X00051Y-0002
X00046Y-00024
X0004Y-00025
X00034Y-00024
X00029Y-00021
X00016Y00006
X00026Y00026
X00046
X00066
X00086
X00106
X00126
X00136Y00046
X00116
X00096
X00076
X00056
X00036
X00016
X00026Y00066
X00046
X00066
X00086
X00106
X00126
X0013Y0008
X00135
X0014
X0012Y0009
X00115
X0011
X00105
X001
Y00095
Y001
Y00105
Y0011
Y00115
Y0012
X00095
X0009
X00085Y00115
X00086Y00106
X0008Y0011
X00075Y00105
X0007Y001
X00065Y00095
X00055
X0005Y00092
X00045Y0009
X0004
X00035
X0003
X00025
Y00095
Y001
Y00105
Y0011
Y00115
Y0012
Y00125
Y0013
X0003
X00035
X0004
X00045
X0005
X00055Y00135
X0006Y0014
X00049Y0012
Y0011
Y001
X00056Y00086
X00076
X00096
X00126Y001
Y0011
Y0012
X00025Y00135
Y0014
X00006Y00106
X00016Y00086
X00006Y00066
Y00026
X00056Y00006
X00076
X00096
X00116
X00136
X00126Y-00014
X00106
X00086
X00066
X00146
X00166
X00186
X00205Y-00011
X00206Y-00016
X00209Y-00021
X00214Y-00024
X0022Y-00025
X00226Y-00024
X00231Y-00021
X00234Y-00016
X00235Y-0001
X00234Y-00004
X00231Y00001
X00226Y00004
X0022Y00005
X00214Y00004
X00209Y-0
X00206Y-00005
X00196Y00006
X00176
X00156
X00166Y00026
X00186
X00206
X00209Y00043
X00203
X00197Y00044
X00191Y00046
X00186Y0005
X00183Y00055
X00181Y0006
X0018Y00065
Y0007
Y00075
Y0008
X00175
X0017
X00165
X0016
X00155
X0015
X00145
X00146Y00066
X00166
X00176Y00046
X00156
X00146Y00026
X00226
X00246
X00256Y00046
X00236
X00223Y00052
X00226Y00057
X00228Y00063
Y00069
X00227Y00075
X00226Y00081
Y00086
X00228Y0009
X0023Y00095
Y001
Y00105
Y0011
Y00115
Y0012
Y00125
Y0013
Y00135
Y0014
X00236Y00126
X00256
X00246Y00106
X00256Y00086
X00236
X00246Y00066
X00219Y00048
X00214Y00045
X00236Y00006
X00256
X00246Y-00014
Y00146
X0023Y00145
Y0015
Y00155
Y0016
Y00165
Y0017
Y00175
Y0018
Y00185
Y0019
Y00195
Y002
Y00205
Y0021
Y00215
Y0022
Y00225
Y0023
Y00235
Y0024
Y00245
Y0025
Y00255
Y0026
Y00265
Y0027
Y00275
Y0028
X00226Y00285
X00222Y0029
Y00295
X00224Y003
X00227Y00306
X00228Y00312
Y00318
X00226Y00323
X00223Y00329
X00219Y00333
X00213Y00336
X00207Y00337
X00201
X00195Y00336
X0019Y00333
X00186Y00329
X00183Y00325
X00181Y0032
X0018Y00315
Y0031
X00182Y00305
X00185Y003
X0018Y00297
X00174
X00168Y00298
X00164Y00301
X00166Y00306
X0016Y00305
X00155
X0015
X00145
X00156Y00326
X00176
X00186Y00346
X00206
X00226
X00246
X00256Y00366
X00236
X00231Y0038
X00234Y00385
X00235Y00391
X00234Y00396
X00231Y00401
X00226Y00404
X0022Y00405
X00214Y00404
X00209Y004
X00206Y00395
X00205Y0039
X00206Y00385
X00209Y0038
X00214Y00376
X0022Y00375
X00226Y00376
X00216Y00366
X00196
X00176
X00156
X00166Y00386
X00186
X00146
Y00346
X00166
X00236Y00326
X00256
X00246Y00306
X00256Y00286
X00236
X00246Y00266
X00256Y00246
X00236
X00246Y00226
X00256Y00206
X00236
X00246Y00186
X00256Y00166
X00236
X00246Y00386
X00126
X00106
X00086
X00066
X00054Y00384
X00055Y0039
X00054Y00396
X00051Y00401
X00046Y00404
X0004Y00405
X00034Y00404
X00029Y00401
X00026Y00396
X00025Y0039
X00026Y00384
X00029Y00379
X00034Y00376
X0004Y00375
X00046Y00376
X00051Y00379
X00056Y00366
X00076
X00096
X00116
X00136
X00126Y00346
X00106
X00086
X00066
X00046
X00026
X00006
X00016Y00366
X00036
Y00326
X00035Y0031
X0004
X00045
X0005
X00055Y00309
X00059Y00307
X00064
X0007
X00075Y00305
X0008Y003
X00085Y00295
X0009Y0029
X001
Y00295
Y003
Y00305
Y0031
X00105
X0011
X00115
X0012
X00125
X0013
X00135Y00305
X0014
X00126Y003
Y0029
Y0028
X001
Y00285
X00095
X00096Y00246
X00095Y0024
Y00235
Y0023
Y00225
X0009
X00085
X0008Y0023
X00075Y00235
Y0024
X0007
X00075Y00245
Y0025
Y00255
Y0026
X0007Y00265
X00066Y00269
X00061Y00271
X00056
X0005Y0027
X00045
X0004
X00035
X0003
X00025
Y00265
Y0026
Y00255
Y0025
X0003
X00035
X0004
X00045
X0005
X00055Y00247
X0006Y00245
X00065
X0008Y0024
X00085
X0009
X00126
Y0023
Y0022
Y0018
Y0017
Y0016
X001Y00165
Y0017
Y00175
Y0018
X00095
X0009
X00085
X0008Y00175
Y00165
X00075
X0007
X00065
X0006
Y0015
X00065
Y00145
X00055Y0015
X0005
X00045
X0004
X00035
X0003
X00025
Y00155
Y0016
Y00165
Y0017
Y00175
Y0018
Y00185
Y0019
Y00195
Y002
Y00205
Y0021
Y00215
Y0022
Y00225
Y0023
Y00235
Y0024
Y00245
X00049Y0024
Y0023
Y0022
X0005Y0021
X00045
X0004
X00035Y00212
X0003Y00213
X00016Y00206
X00006Y00226
Y00266
X00025Y00275
Y0028
Y00285
Y0029
Y00295
Y003
Y00305
Y0031
X0003
X00049Y003
Y0029
Y0028
X00016Y00286
Y00326
X00056
X00076
X00096
X00116
X00136
X00006Y00386
X0003Y0019
X00035
X0004
X00045
X0005
X00055
X0006Y00195
Y00205
X00055
Y0021
X00065Y002
X00066Y00186
X00049Y0018
Y0017
Y0016
X00075Y0017
X00085Y00165
X0009
X00095
X00016Y00166
X00006Y00146
X00025Y00145
T02
X001659Y001138
Y001265
Y001392
X001913Y0013285
Y0012015
Y0014555
Y0015825
Y0017095
Y0018365
Y0019635
Y0020905
Y0022175
Y0023445
Y0024715
Y0025985
X001659Y002535
Y002408
Y002281
Y002154
Y002027
Y0019
Y001773
Y001646
Y001519
Y002662
T03
X0004Y-0001
X0022
Y0039
X0004
T04
X00204Y0006745
Y0031255
M30
