M48
;Layer_Color=9474304
;FILE_FORMAT=4:4
METRIC,LZ
;TYPE=PLATED
T1F00S00C0.3000
T2F00S00C0.8000
T3F00S00C2.4000
T4F00S00C2.8000
%
T01
X00036Y00006
X00046
X00056
X00066
X00076
X00086
X00096
X00106
X00116
X00126
X00136
X00141Y00016
X00131
X00121
X00111
X00101
X00091
X00081
X00071
X00061
X00051
X00041
X00046Y00026
X00056
X00066
X00076
X00086
X00096
X00106
X00116
X00126
X00136
X00141Y00036
X00131
X00121
X00111
X00101
X00091
X00081
X00071
X00061
X00051
X00041
X00036Y00046
X00046
X00056
X00066
X00076
X00086
X00096
X00106
X00116
X00126
X00136
X00141Y00056
X00131
X00121
X00111
X00101
X00091
X00081
X00071
X00061
X00031
X00026Y00066
X00016
X00006
X00011Y00076
X00021
X00031
Y00096
X00041
X00051
X00061
X00071
X00066Y00106
X00076
X00086
X00091Y00116
X00081
X00071
X00061
X00056Y00106
X00046
X00036
X00031Y00116
X00026Y00126
X00016
X00006
X00011Y00136
X00021
X00031
X00056Y00086
X00066
X00116
X00126
X00136
X00141Y00096
X00131
X00136Y00106
X00141Y00076
X00131
X00121
X00111
X00106Y00066
X00116
X00126
X00136
X00096
X00146
X00156
X00166
X00176
X00181Y00056
X00171
X00161
X00151
X00146Y00046
X00156
X00166
X00176
X00186
X00191Y00036
X00201
X00211
X00221
X00216Y00026
X00206
X00196
X00186
X00176
X00166
X00156
X00146
X00151Y00036
X00161
X00171
X00181
Y00016
X00191
X00201
X00211
X00221
X00216Y00006
X00226
X00206
X00196
X00186
X00176
X00166
X00156
X00146
X00151Y00016
X00161
X00171
Y00076
X00161
X00151
X00146Y00086
X00156
X00166
X00176
X00186
X00191Y00096
X00201
X00211
X00221
X00231
X00241
X00251
X00246Y00106
X00236
X00226
X00216
X00206
X00196
X00186
X00181Y00096
X00171
X00161
X00151
X00146Y00106
X00151Y00116
X00211
X00221
X00231
X00241
X00251
X00246Y00126
X00236
X00226
X00216
X00206
X00211Y00136
X00221
X00231
X00241
X00251
X00246Y00086
X00236
X00226
X00231Y00076
X00241
X00251
X00246Y00066
X00236
X00241Y00056
X00251
X00246Y00046
X00236
X00226
X00231Y00056
X00226Y00146
X00236
X00246
X00251Y00156
X00241
X00231
X00221
X00211
X00206Y00166
X00216
X00226
X00236
X00246
X00251Y00176
X00241
X00231
X00221
X00211
X00206Y00186
X00216
X00226
X00236
X00246
X00251Y00196
X00241
X00231
X00221
X00211
X00206Y00206
X00216
X00226
X00236
X00246
X00251Y00216
X00241
X00231
X00221
X00211
X00206Y00226
X00216
X00226
X00236
X00246
X00251Y00236
X00241
X00231
X00221
X00211
X00206Y00246
X00216
X00226
X00236
X00246
X00251Y00256
X00241
X00231
X00221
X00211
X00206Y00266
X00216
X00226
X00236
X00246
X00251Y00276
X00241
X00231
X00221
X00211
X00201
X00191
X00181
X00176Y00286
X00186
X00196
X00206
X00216
X00226
X00236
X00246
X00251Y00296
X00241
X00231
X00236Y00306
X00246
X00251Y00316
X00241
X00231
X00226Y00326
X00236
X00246
X00251Y00336
X00241
X00231
X00221
X00216Y00346
X00226
X00221Y00356
X00211
X00201
X00191
X00181
X00171
X00161
X00151
X00146Y00366
X00156
X00166
X00176
X00186
X00196
X00206
X00216
X00206Y00346
X00196
X00186
X00176
X00166
X00156
X00146
X00151Y00336
X00161
X00171
X00181
X00191
X00176Y00326
X00166
X00156
X00146
X00151Y00316
X00161
X00171
X00166Y00306
X00176
X00181Y00296
X00171
X00161
X00151
X00146Y00306
X00156
Y00286
X00166
X00146
X00151Y00276
X00146Y00246
X00156
X00151Y00196
X00156Y00146
X00206
X00216
X00121Y00176
X00111
X00101
X00091
X00081
X00071
X00061
X00056Y00166
X00066
X00076
X00086
X00096
X00106
X00091Y00156
X00081
X00071
X00061
X00051
X00041
X00031
X00036Y00166
X00046
X00031Y00176
X00026Y00186
X00016
X00006
X00011Y00196
X00021
X00031
Y00216
X00041
X00051
X00061
X00071
X00081
X00091
X00101
X00111
X00121
X00116Y00206
X00106
X00096
X00086
X00076
X00066
X00056
Y00226
X00066
X00076
X00086
X00096
X00091Y00236
X00081
X00071
X00061
X00046Y00226
X00036
X00031Y00236
X00026Y00246
X00016
X00006
X00011Y00256
X00021
X00031
Y00276
X00041
X00051
X00061
X00071
X00081
X00091
X00086Y00286
X00076
X00066
X00056
X00046
X00036
X00031Y00296
X00026Y00306
X00016
X00006
X00011Y00316
X00021
X00031
Y00336
X00041
X00051
X00061
X00071
X00081
X00091
X00101
X00111
X00121
X00131
X00141
X00136Y00346
X00126
X00116
X00106
X00096
X00086
X00076
X00066
X00056
X00046
X00036
X00041Y00356
X00051
X00061
X00071
X00081
X00091
X00101
X00111
X00121
X00131
X00141
X00136Y00366
X00126
X00116
X00106
X00096
X00086
X00076
X00066
X00056
X00046
X00056Y00326
X00066
X00076
X00086
X00096
X00106
X00116
X00126
X00136
X00141Y00316
X00131
X00121
X00111
X00126Y00306
X00136
X00141Y00296
X00131
X00121Y00276
X00106Y00266
X00096
X00086
X00076
X00066
X00056
X00061Y00296
X00071
X00101
X00106Y00246
X00121Y00236
X00136Y00246
X00086Y00146
X00076
X00066
X00056
T02
X001659Y001138
Y001265
Y001392
X001913Y0013285
Y0012015
Y0014555
Y0015825
Y0017095
Y0018365
Y0019635
Y0020905
Y0022175
Y0023445
Y0024715
Y0025985
X001659Y002535
Y002408
Y002281
Y002154
Y002027
Y0019
Y001773
Y001646
Y001519
Y002662
T03
X0002Y0002
X0024
Y0036
X0002
T04
X00204Y0006745
Y0031255
M30
